<svg width="64" height="65" viewBox="0 0 64 65" fill="none" xmlns="http://www.w3.org/2000/svg">
<path d="M3.25 3.30078H60.75V61.6992H3.25V3.30078Z" fill="#1F0740"/>
<path d="M0 0V65H64V0H0ZM60.75 61.6992H3.25V3.30078H60.75V61.6992Z" fill="#D490C5"/>
<path d="M51.75 30.0625C51.75 30.0625 51.45 22.6484 43.5 22.6484C35.5 22.6484 34.85 33.8203 34.85 33.8203V36.207C34.85 36.207 36.25 45.5 43 45.5C49.75 45.5 50.4 44.1797 50.4 44.1797V40.0664C50.4 40.0664 40.75 44.7383 39.8 34.9883H51.8V30.0625H51.75ZM47.25 31.2812H39.75C39.75 31.2812 39.75 27.0664 43.5 26.6094C47.6 26.6094 47.25 31.2812 47.25 31.2812ZM25.25 15.1836H19.2V17.1133L11.2 44.9922H15.9L18.1 36.8164H26.5L28.75 44.9922H33.9L25.25 15.1836ZM19.1 32.043L22.3 19.6016L25.5 32.043H19.1Z" fill="#D490C5"/>
</svg>
