<svg width="90" height="54" viewBox="0 0 90 54" fill="none" xmlns="http://www.w3.org/2000/svg">
<path d="M5.47363 8.45402C5.52227 8.51674 5.69298 8.79402 5.77271 8.90819C5.64179 8.81929 5.29894 8.22698 5.47363 8.45402ZM20.0308 13.7891C19.9174 13.7415 19.8043 13.6937 19.6913 13.6458C19.9381 13.8563 20.3037 14.1053 20.5239 14.3094C20.5597 14.343 20.3941 14.3285 20.4843 14.4026C20.5744 14.4767 20.6437 14.3758 20.7888 14.4696C20.9518 14.5745 21.5846 15.1687 21.8252 15.353C22.7275 16.0399 23.6844 16.686 24.5338 17.429C23.5418 16.777 24.3933 17.5821 24.6805 17.7554C24.7443 17.7936 24.9235 17.5981 25.7952 18.3758C26.3475 18.8717 25.5338 18.7173 26.6395 19.3607C26.0914 18.5638 26.8105 19.1674 27.401 19.6313C27.5032 19.7109 28.2835 20.3985 28.6489 20.6816C28.774 20.7784 29.0685 20.8219 29.2335 20.9512C29.347 21.0402 29.3714 21.169 29.5396 21.3015C30.3229 21.9202 31.082 22.5398 31.8246 23.2017C31.0837 23.1218 32.0478 23.6226 32.0692 23.667C32.1694 23.9015 31.3277 23.2299 31.6012 23.5548C32.0626 23.9297 32.523 24.3056 32.9824 24.6826C32.6496 24.329 33.7284 24.8454 33.7863 25.081C33.9921 24.746 35.5914 27.0877 35.9975 27.2816C36.0835 27.3205 35.7881 26.798 36.7326 27.7508C36.8346 27.8544 36.7078 27.9034 36.7729 27.946C36.8117 27.9718 37.2916 27.8825 37.3614 28.2289C37.3862 28.3561 36.694 28.076 37.8929 29.0123C37.7253 28.3295 39.6068 30.2592 39.8986 30.6685C39.8638 30.5633 39.8288 30.4581 39.7938 30.3531C40.0534 30.7867 40.2158 30.7493 40.2923 30.8289C40.6003 31.1502 40.9524 31.6632 41.2661 31.9357C41.633 32.2547 41.8153 32.0748 42.1599 32.5298C42.1015 32.3985 42.043 32.2673 41.9842 32.1363C42.2618 32.411 42.5387 32.6864 42.8149 32.9625C41.9117 32.5867 42.9463 33.107 43.0044 33.1513C43.0977 33.2214 42.8775 33.2069 43.031 33.3266C43.0476 33.3382 43.1197 33.2253 43.3478 33.4184C43.8238 33.8223 43.6342 33.8728 43.8259 34.0506C43.8439 34.0664 43.8673 33.9245 44.2157 34.2142C45.3218 35.1362 44.146 34.2739 44.0941 34.2479C44.026 34.2138 44.0313 34.9039 43.27 33.9426C43.5281 34.2628 43.4018 34.4473 43.4315 34.4828C43.458 34.5139 43.9941 34.98 44.0277 35.0016C44.3333 35.1888 44.2182 34.8704 44.2865 34.898C44.3426 34.9205 44.8207 35.6499 45.2881 35.4654C45.2851 36.0461 44.8481 35.573 44.3063 35.146C44.1732 35.1378 44.658 35.7169 44.6865 35.7443C45.3873 36.4158 45.2448 35.7985 45.5548 35.7885C45.7174 35.7835 45.8352 36.2249 45.7919 35.7519C46.4507 36.3387 45.9375 36.0965 45.9597 36.1547C45.9939 36.242 46.279 36.3927 46.2983 36.428C46.3266 36.4798 46.1086 36.4194 46.2422 36.6014C46.265 36.6312 46.6553 36.7495 46.3844 36.3645C46.8116 36.8137 46.8869 36.6662 46.8116 37.0387C47.5462 36.9077 46.7805 37.5078 46.8768 37.6492C47.1333 38.0247 47.3772 37.5975 47.4105 37.5975C47.6326 37.6054 48.4001 38.5875 48.6662 38.7547C48.3374 38.9126 47.9649 38.069 47.7801 37.9819C47.1657 37.6897 48.3035 38.7362 47.6661 38.7152C47.889 38.7683 48.1119 38.8215 48.3347 38.8747C48.3928 39.3227 47.9466 39.0509 48.7024 39.6571C48.9839 39.5984 48.192 39.2046 48.445 39.1895C48.5939 39.1807 49.0073 39.5571 49.0563 39.5236C49.114 39.4815 48.6966 39.1851 48.8296 39.1646C49.1189 39.1209 50.2655 40.5779 49.1826 39.6788C49.4261 39.9161 49.3171 40.3033 49.5096 40.4904C49.5096 40.4904 49.5096 40.4904 49.5096 40.4904H40.4904C40.5185 40.4616 40.542 40.426 40.5599 40.3815C40.5931 40.2987 40.4284 40.3053 40.282 40.282H49.718C49.718 40.282 49.718 40.282 49.718 40.282C49.7379 40.1567 49.7797 40.0448 49.9183 40.0817C49.9183 40.0817 49.9183 40.0817 49.9183 40.0817H40.0817C40.117 39.9492 40.2881 39.728 40.7153 39.3544C40.8982 39.4816 40.2368 39.922 40.2345 39.9482C40.2316 39.9855 40.6814 40.236 40.7159 40.236C40.8329 40.231 41.987 38.7133 42.4485 38.6102C42.1333 38.5185 43.4321 37.5749 43.4952 37.3937C43.5112 37.3447 43.2646 37.3412 43.2868 37.2938C43.4288 37.0022 44.2447 36.6453 44.5275 36.384C44.8441 36.0916 44.6989 36.0236 44.7164 36.0071C44.859 35.8817 44.8217 36.0585 44.905 35.978C45.0305 35.856 45.9148 35.0399 45.944 34.9838C45.9521 34.967 45.6893 34.9817 45.8566 34.7783C45.8857 34.7432 46.007 34.9052 46.5094 34.3099C47.1157 33.594 45.8602 34.5787 45.9936 34.1627C46.643 33.9629 46.4187 33.7662 46.554 33.6712C46.6013 33.6387 47.0854 33.5294 47.4072 33.2067C47.1969 33.459 46.9872 33.7118 46.7779 33.9652C47.0432 33.7757 47.4603 33.3097 47.6892 33.164C47.8008 33.0928 47.8686 33.3112 48.0698 33.1154C48.1118 33.0731 47.9301 32.5571 47.5514 33.2184C47.3815 33.1317 47.72 32.9753 47.8031 32.8288C47.8155 32.8064 47.6752 32.5292 47.9585 32.5193C48.0276 32.518 48.2446 33.5014 48.825 32.1052C48.8438 32.0604 48.6521 32.09 48.6685 32.0442C48.6798 32.0129 48.9732 31.8018 48.9914 31.7642C49.0095 31.7252 48.799 31.7585 48.8179 31.7095C48.9147 31.4582 49.4832 31.57 49.0848 31.8891C49.2504 31.8149 49.4161 31.7407 49.5817 31.6664C49.199 31.5405 49.7078 31.4158 49.8731 31.2492C50.9346 30.1837 50.0307 30.7041 50.1385 30.4463C50.3138 30.0333 50.4998 30.6685 50.8308 30.1264C50.8617 30.0765 50.1283 30.3986 51.3122 29.5215C51.159 29.6725 51.0061 29.8238 50.8533 29.9752C51.1823 30.1288 51.414 29.4375 51.4486 29.4011C51.8428 28.986 51.6383 29.3286 52.1525 28.641C52.1984 28.5797 52.3796 28.5271 52.4723 28.3903C52.8581 27.8248 51.7362 28.9095 51.6098 28.8434C51.5473 28.8095 52.8177 27.7068 52.8835 27.6912C53.1637 27.6254 52.3548 28.2382 52.6191 28.2316C52.7123 28.2258 54.4241 26.5554 54.8349 26.2877C55.3071 25.9768 55.7984 26.1156 55.4607 25.7729C55.913 26.0042 55.7894 25.6855 55.8456 25.6415C56.5255 25.1105 56.5298 25.1125 57.0572 24.6015C57.1739 24.489 57.3768 24.4983 57.4038 24.4441C57.4192 24.4123 57.2661 24.3475 57.3585 24.2086C57.4873 24.0162 58.6399 23.2384 58.7742 23.2293C58.9086 23.2202 58.3579 23.6282 58.5448 23.6433C58.9287 23.3333 59.2656 23.0047 59.6539 22.6945C59.8155 22.566 59.799 22.6985 59.8681 22.6423C59.8975 22.6184 60.3848 22.1038 60.3386 22.1C60.2289 22.0897 58.5889 23.5435 58.9166 23.0566C58.98 22.9628 59.4305 22.8579 59.2012 22.717C60.7447 21.4965 62.2982 20.286 63.8605 19.0843C63.1078 19.9196 62.0177 20.6167 61.1208 21.3832C60.9979 21.4883 60.5608 21.8219 60.7012 21.8686C61.4926 21.2456 62.4089 20.4034 63.2095 19.8458C63.2351 19.8279 63.2235 19.9758 63.3245 19.9141C63.5128 19.798 63.936 19.2303 64.059 19.1867C64.0816 19.1808 63.8703 19.5334 64.0268 19.5184C64.4268 19.4783 64.1353 19.075 64.3485 18.9097C64.514 18.7825 65.7618 18.0635 65.9297 17.7416C66.109 17.4 65.0644 18.3258 65.0542 18.17C65.7022 17.4848 66.5502 16.983 67.2419 16.4149C67.254 16.4049 67.0794 16.423 67.2275 16.29C67.4854 16.0588 67.6509 16.0959 67.7988 16.0057C67.958 15.9082 68.4533 15.4956 68.5544 15.4753C68.5673 15.4727 68.5545 15.6438 68.5415 15.6588C68.3584 15.8712 68.1621 15.8153 68.1403 15.8296C68.0602 15.8847 68.0316 15.9889 67.9602 16.0408C67.8424 16.1261 67.7376 16.1331 67.5842 16.2478C67.4782 16.3268 67.6599 16.33 67.557 16.4052C67.5195 16.4332 66.9357 16.5552 67.0939 16.7792C67.1433 16.849 70.4271 14.3612 70.7105 14.0677C70.4126 14.2646 70.1143 14.4612 69.8158 14.6575C70.4287 14.2655 70.9726 13.6023 71.2194 13.7636C73.3227 12.1405 75.4434 10.5348 77.5803 8.9452C77.972 8.67151 77.8519 8.91622 78.4486 8.41825C78.2607 8.51321 78.0719 8.60726 77.8822 8.70046C78.2229 8.48013 79.6781 7.44911 79.8933 7.26194C79.9212 7.23769 79.8944 7.13859 80.2481 6.87098C80.562 6.63366 80.6608 6.64386 80.8392 6.52761C80.989 6.42991 81.1372 6.30021 81.1821 6.27167C81.2166 6.24981 81.2568 6.26773 81.3394 6.21477C81.5997 6.04701 81.3259 6.12011 81.6555 6.02483C81.5994 6.07217 81.5434 6.11958 81.4874 6.16708C81.7965 5.95963 82.2356 5.69285 81.8209 6.0392C81.7498 6.09887 81.7885 6.02522 81.7329 6.06722C79.5644 7.71973 81.3499 6.45401 82.0717 5.83674C82.303 5.72415 83.3787 4.87253 83.4224 4.85218C83.4816 4.8223 83.3191 4.98965 83.5849 4.8231C83.6397 4.78694 85.0868 3.65712 84.5946 4.09285C84.4934 4.1831 83.7885 4.71369 83.6216 4.8447C84.0761 4.59846 84.9189 3.7985 85.0298 3.72467C85.4585 3.40818 84.2663 4.39268 85.218 3.66563C85.9492 3.106 85.2351 3.60378 85.5027 3.375C85.6553 3.24856 86.5129 2.64534 86.4561 2.62822C86.7393 2.40994 86.5888 2.55299 86.6255 2.52774C86.6605 2.50224 87.2142 2.07008 87.4028 1.93859C87.4255 1.92252 87.3692 1.98845 87.3932 1.97225C87.4391 1.94019 87.9765 1.52678 87.9977 1.5097C88.011 1.49876 87.8725 1.58691 87.9234 1.54463C87.9829 1.49555 88.5089 1.1066 88.5359 1.08325C88.5739 1.04997 87.9279 1.53339 88.0261 1.44337C88.328 1.22469 88.8116 0.860015 89.008 0.71275C88.9601 0.749077 88.6676 0.961373 88.5654 1.03443C88.6022 0.988767 89.2369 0.539504 89.0258 0.699017C89.16 0.597674 89.0648 0.663315 89.1399 0.6057C89.1596 0.590643 89.3558 0.452176 89.393 0.424864C89.3979 0.421383 89.1927 0.561537 89.2322 0.531899C89.3038 0.478305 89.9054 0.0652125 89.9546 0.0313007C90.0926 -0.064369 89.6042 0.274587 89.5657 0.305018C89.5607 0.30981 89.974 0.0195004 89.9797 0.0145146C90.0037 -0.00259202 89.5478 0.324537 89.6018 0.289007C89.7144 0.207947 89.8267 0.12657 89.9386 0.0448719C89.5083 0.361462 88.7133 0.948242 88.5183 1.10955C89.1477 0.63162 89.8154 0.140358 89.8148 0.142141C89.8149 0.14307 89.5481 0.354 89.5593 0.346783C89.6008 0.31776 89.9693 0.0230419 89.9836 0.0129242C89.9949 0.00405773 90 1.39065e-08 90 0C90 0 90 0 90 0C90 0 90 0 90 0C89.9994 -0.00057621 89.4738 0.419188 89.4487 0.441469C89.4066 0.47889 89.6436 0.29505 89.6434 0.295529C89.6352 0.302004 89.2695 0.609579 89.3959 0.508774C89.5231 0.406183 89.8411 0.134822 89.8524 0.125512C89.913 0.0735814 89.359 0.550291 89.3439 0.566001C89.336 0.57434 89.6347 0.31943 89.6434 0.312025C89.6511 0.305947 89.4283 0.503853 89.3438 0.585053C89.2808 0.645678 89.4718 0.476757 89.4387 0.506936C89.4151 0.528553 88.9037 0.991101 88.8792 1.01456C88.8429 1.04951 88.9665 0.944953 88.95 0.961726C88.9269 0.985731 88.7614 1.13473 88.7845 1.11684C88.8038 1.10539 89.4462 0.528507 89.4419 0.532099C89.4377 0.541906 88.7718 1.16716 89.3988 0.592709C89.4031 0.588579 89.5495 0.44257 89.5537 0.438663C89.6456 0.35011 89.1811 0.823052 89.7527 0.248262C88.6946 1.32275 89.6259 0.386893 89.4736 0.550119C89.4159 0.61425 89.0154 1.04044 89.0143 1.04315C89.0584 1.00697 89.1822 0.867388 89.2278 0.823399C89.2522 0.798548 88.901 1.18696 88.9852 1.10472C89.0284 1.06186 89.4031 0.651453 89.4189 0.634805C89.5691 0.474325 89.3896 0.67578 89.4237 0.641626C89.4462 0.61879 89.67 0.368821 89.6759 0.362402C89.6851 0.351622 89.3854 0.695251 89.325 0.768828C89.2788 0.824508 89.4589 0.622278 89.4262 0.660623C89.2305 0.893262 88.7977 1.37161 89.2194 0.91526C89.245 0.8872 89.3975 0.70756 89.4021 0.702436C89.4992 0.594295 89.2191 0.925661 89.1728 0.988803C89.0936 1.09749 89.4886 0.613522 89.1616 1.01742C89.4133 0.720778 89.5492 0.55119 89.8379 0.198217C89.0356 1.17249 88.7851 1.54914 89.6517 0.44322C89.3748 0.793809 89.4122 0.761573 89.3307 0.867278C89.2807 0.933631 88.8727 1.43545 89.0777 1.22332C89.103 1.19631 89.3373 0.877977 89.2677 0.981421C88.6982 1.73828 89.2595 1.00134 89.2599 1.00038C89.2652 1.02281 87.8786 2.87728 87.6388 3.19431C87.3662 3.56786 87.154 3.93001 87.0952 4.01162C86.8995 4.27812 87.0447 4.03975 86.9945 4.09293C86.9424 4.14559 86.4192 4.93647 86.3903 4.97325C86.2733 5.11077 86.3584 4.93753 86.346 4.95163C86.1955 5.1163 85.4579 6.1436 85.2384 6.41822C85.266 6.43057 85.6916 5.86405 85.4586 6.25046C85.1902 6.70328 85.0804 6.63486 85.0679 6.64116C83.6437 8.52156 82.2058 10.3883 80.7542 12.2413C80.8592 12.3051 81.7387 11.0241 81.7714 11.0077C81.9577 10.9054 80.3717 12.969 80.1406 13.1857C80.3095 13.0145 80.4776 12.8425 80.6447 12.6695C80.496 13.1014 79.8001 13.6909 79.4794 14.2102C79.377 14.3792 79.6476 14.1287 79.6456 14.1375C79.5566 14.3535 79.3099 14.5961 79.4104 14.3307C79.142 14.8069 79.1268 14.683 78.8712 14.9987C78.8583 15.0152 79.0126 14.9242 78.835 15.1986C78.7519 15.3274 78.2579 15.9631 78.2356 16.092C78.2278 16.1464 78.6676 16.0132 78.5339 15.8088C79.1461 15.1922 78.6309 15.5132 78.8426 15.2475C78.8753 15.207 78.8912 15.3913 79.3707 14.6687C79.4275 14.9544 78.7134 15.6246 78.6286 15.7771C78.4599 16.0977 79.4089 15.0302 79.4465 14.6978C79.493 14.9172 79.5242 14.6324 79.7228 14.3815C79.9395 14.1062 79.8822 14.2633 79.9964 14.1113C80.3084 13.6952 80.0998 13.7884 80.4282 13.5166C79.9555 13.629 80.8431 12.9039 81.0938 12.6845C80.7798 13.1352 80.4658 13.586 80.1518 14.0366C80.1823 14.0234 80.2128 14.0102 80.2432 13.9969C80.156 14.1112 80.0688 14.2253 79.9814 14.3394C79.9835 14.3092 79.9857 14.2791 79.9879 14.249C79.6217 14.9215 79.4269 14.9801 79.3892 15.027C78.9121 15.6402 78.3705 16.3579 77.8937 16.9833C77.8216 17.0767 77.9603 17.1018 77.3688 17.7157C77.1795 17.9109 77.2664 17.6348 77.0872 17.8914C77.0445 18.3938 76.8942 18.2332 76.8228 18.324C76.62 18.5863 76.5457 18.7963 76.5276 18.8211C76.2854 19.1536 75.9097 19.6195 75.6411 19.9823C75.6369 19.9898 75.8448 19.8693 75.6468 20.0813C75.5794 20.158 74.7282 20.5983 74.3193 21.3184C74.4693 21.1747 74.6188 21.0306 74.7677 20.8859C74.5882 21.0517 73.5908 22.4739 73.9335 22.2249C74.1416 22.0704 74.3426 21.386 74.5666 21.5129C74.1607 21.9121 72.2765 24.4748 72.0743 24.6188C72.0462 24.6386 72.1128 24.4106 72.0751 24.439C72.046 24.4611 71.6058 25.0396 71.5197 25.0887C71.4685 25.1179 71.6301 24.8294 71.59 24.826C71.5592 24.8272 70.9573 25.4974 71.0086 25.6213C71.1158 25.4161 71.5396 24.9619 71.4028 25.2856C71.385 25.3271 71.1935 25.4424 71.1722 25.493C70.9757 25.9642 71.8447 24.8381 71.9828 24.6674C71.5295 25.4674 70.535 26.4112 69.9507 27.279C69.6127 27.5279 70.2327 26.6911 69.8724 26.9948C69.1223 27.6219 69.8076 27.2964 69.7971 27.3287C69.7181 27.5918 68.7881 27.827 69.0933 28.1328C68.8204 28.3592 68.8548 28.232 68.5743 28.6562C68.6381 28.6272 68.7017 28.5981 68.7653 28.569C68.5922 29.1783 67.3754 29.6172 67.3945 29.5123C67.454 29.238 67.9977 28.9195 68.0275 28.8756C68.0712 28.8103 67.8965 28.3343 68.7237 27.9685C68.7399 27.4962 67.712 28.8476 68.0671 28.1201C67.7556 28.5398 66.2059 29.998 66.0992 30.3242C66.0877 30.3644 66.4206 30.4567 65.9623 30.7415C65.7442 30.8761 66.138 30.4193 66.0124 30.4551C65.6311 30.5705 62.5504 34.2455 61.946 34.9244C61.9067 34.9684 61.8472 34.8784 61.8089 34.922C61.6913 35.0558 61.3666 35.6474 61.1179 35.8487C61.7 35.4984 60.8498 36.4589 60.6145 36.6843C60.2577 37.0265 60.1446 36.8702 59.9716 36.9992C59.3034 37.495 58.7589 38.7542 58.0197 38.9193C58.3451 39.1953 57.1163 39.58 56.7557 39.9536C56.4741 40.2469 56.2712 40.8782 56.7708 40.6017C56.2755 41.099 55.8247 41.6929 55.3897 42.189C55.3178 42.271 55.3299 42.0712 55.2101 42.214C55.1998 42.2276 55.2733 42.3339 55.1726 42.4587C54.3422 43.4897 54.5933 42.8351 54.367 42.957C54.2401 43.0251 54.154 43.0827 54.0971 43.1314C54.6113 42.5607 55.1872 41.8851 55.3478 41.7111C55.0117 41.6604 54.2107 42.9786 53.8525 43.2412C53.84 43.2502 53.7672 43.1024 53.7557 43.1127C53.7555 43.113 53.7552 43.1132 53.755 43.1134C53.6327 43.2237 52.9448 44.0172 53.2259 43.9933C53.3012 43.9868 53.6364 43.6401 54.0209 43.2159C53.9381 43.352 54.141 43.3915 54.1273 43.4164C53.9588 43.7163 53.2755 44.1804 53.0587 44.3707C53.0094 44.4144 53.0917 44.49 53.0844 44.498C52.8844 44.6681 52.7331 44.365 52.7792 44.7908C52.1673 44.8493 53.3559 44.1111 53.1062 43.9972C52.9163 43.9116 50.877 46.152 51.1049 46.3671C51.0737 46.3507 51.015 46.3508 50.9214 46.3779C50.714 46.4382 50.1456 47.061 50.0844 47.2054C50.0753 47.2309 50.2991 47.4409 50.2797 47.4645C50.2314 47.5238 49.3362 48.0845 49.1927 48.4848C49.3697 48.3682 49.5467 48.2515 49.7234 48.1346C48.8407 49.0253 49.0414 48.9519 49.4016 48.7213C49.417 48.7071 49.4396 48.7009 49.4546 48.6876C49.7312 48.5064 50.07 48.258 50.0915 48.2706C50.1414 48.3001 49.621 48.8823 49.2229 49.2229L45 53.4459L40.7771 49.2229C40.7771 49.2229 40.7771 49.2229 40.7771 49.2229C40.5569 48.9659 40.4369 48.7605 40.6294 48.7951C40.6591 48.8008 40.7919 48.9547 40.9151 49.0849C40.9151 49.0849 40.9151 49.0849 40.9151 49.0849L45 53.1697L49.0849 49.0849C49.2519 48.9267 49.3798 48.7844 49.1054 48.8975C49.0842 48.9062 49.0433 48.9428 48.9931 48.9931L45 52.9862L41.0069 48.9931C41.0069 48.9931 41.0069 48.9931 41.0069 48.9931C40.8547 48.8411 40.5778 48.6039 40.5721 48.5743C40.5426 48.4238 40.8957 48.6347 41.209 48.791L45 52.5821L48.791 48.791C48.791 48.791 48.791 48.791 48.791 48.791C48.9077 48.5576 48.9941 48.3464 48.8793 48.3335C48.8459 48.4681 48.7767 48.5838 48.6908 48.6908L45 52.3815L41.3092 48.6908C41.3092 48.6908 41.3092 48.6908 41.3092 48.6908C41.1145 48.5343 40.9487 48.3225 40.75 48.1705C40.61 48.0632 40.4709 48.1416 40.4536 48.1284C40.1979 47.9282 40.4396 47.9424 40.3609 47.8689C40.3181 47.83 39.6282 47.6216 40.0473 47.3722C38.3306 46.1288 39.3929 47.2077 40.3168 48.0998C39.9087 47.9341 39.4082 47.3096 39.1296 47.0835C39.0295 47.0025 38.9712 47.1681 38.7972 47.0362C38.438 46.7657 37.0818 45.1155 36.7279 44.6862C37.0035 44.8916 37.055 44.6994 36.8641 44.5191C36.6731 44.3388 36.6655 44.6582 36.6126 44.6387C36.5563 44.6174 35.7778 43.654 35.6156 43.5263C36.3157 44.1377 36.2909 43.8666 35.758 43.2865C35.8712 43.3341 35.9845 43.3817 36.0979 43.4292C35.7295 43.1453 35.2405 42.2626 35.0023 42.1237C34.9648 42.1021 34.9686 42.3108 34.9475 42.2987C34.7434 42.1719 34.2967 41.4932 34.2373 41.5003C34.1874 41.5057 34.3376 41.8356 34.2098 41.7852C34.1831 41.7748 34.0923 41.4028 33.8377 41.2015C33.7434 41.1267 33.6991 41.2729 33.673 41.2564C33.4555 41.1188 33.715 41.0689 33.3748 40.7602C33.1253 40.5342 32.8004 40.505 32.5338 40.1146C33.3814 41.4243 32.5853 40.4068 32.092 39.9981C32.013 39.9326 31.9043 40.1652 31.5709 39.6348C32.7592 40.2847 31.4783 39.2034 31.2501 38.9482C31.2384 38.9334 31.344 38.8188 31.2319 38.6939C31.2221 38.6836 31.1617 38.7728 31.0504 38.6639C29.9955 37.6298 30.7193 38.2418 30.6017 37.9625C30.5513 37.8438 29.9613 37.418 29.8285 37.2772C29.7982 37.2446 29.8879 37.1839 29.7686 37.0597C29.5574 36.8403 29.2932 36.7187 29.1516 36.576C29.1355 36.559 29.2534 36.4398 28.9584 36.1959C28.8755 36.1273 28.7528 36.0799 28.8211 36.2268C29.0476 36.7138 29.8877 37.2272 30.1605 37.761C30.4079 38.249 29.292 37.0458 29.2348 36.9824C29.2133 36.9596 29.4881 37.1378 29.2807 36.885C29.1031 36.6697 28.5577 36.497 28.3253 36.1438C28.3075 36.1168 28.258 35.6985 28.2782 35.6999C28.2947 35.703 28.673 36.0432 28.6735 35.9383C28.6732 35.9261 28.4552 35.6875 28.4639 35.6192C28.4745 35.5356 28.8227 34.9906 28.7869 34.9288C28.6946 34.7709 28.6719 34.9565 28.6015 34.865C28.4507 34.6687 28.0051 33.9103 27.8356 34.0406C27.9214 34.1538 28.0071 34.2669 28.0929 34.3801C27.5503 33.816 27.7109 34.1271 27.608 34.0732C27.4973 34.0151 27.6522 33.9076 27.4872 33.6996C27.4511 33.6546 26.6829 32.8619 26.6421 32.9311C27.1382 33.2982 26.8251 33.2913 26.841 33.3152C26.902 33.4054 27.0844 33.4162 27.1788 33.5246C27.8417 34.2889 27.0146 33.6768 27.1374 33.8909C27.1797 33.9645 27.3672 34.008 27.3866 34.0379C27.4494 34.1349 27.348 34.2389 27.4068 34.2868C27.544 34.3985 27.5517 34.1003 27.5685 34.1031C27.7651 34.1289 28.0657 34.6999 27.6493 34.5737C27.7463 34.8024 27.9578 34.629 28.0031 34.842C28.0932 35.2654 27.7677 34.8216 27.6438 34.7371C27.1988 34.4345 27.1679 34.2437 26.644 33.7093C26.4555 33.5166 26.1516 33.3691 26.0638 33.2801C26.0091 33.2234 25.8307 32.3501 25.3231 32.8267C25.1808 32.5602 25.2036 31.8959 24.9912 31.6871C24.8008 31.4993 24.6855 31.7349 24.6624 31.7227C24.6267 31.7043 24.4273 31.4465 24.3312 31.3878C24.2185 31.3193 24.1955 31.4328 24.0357 31.305C23.6389 30.9862 23.8202 30.8237 23.7971 30.7732C23.5298 30.1866 23.4597 30.6306 23.3526 30.5482C23.2532 30.4714 22.2061 29.0468 21.9085 28.8241C22.0386 28.9057 22.1691 28.987 22.2998 29.068C22.2285 28.7604 21.8759 28.7114 22.0568 28.5234C21.7242 28.7791 21.5641 28.1571 21.4483 28.0381C21.4027 27.9911 21.3561 28.045 21.3009 27.9843C21.085 27.7475 20.6579 27.1541 20.5212 27.0452C19.9327 26.572 20.9879 28.2318 21.0732 28.3603C20.8804 28.1252 19.7235 26.8615 20.0878 27.6099C20.1437 27.726 20.4097 27.7647 20.4586 27.8124C20.7874 28.1374 20.4389 27.9718 20.4511 28.0108C20.4724 28.0767 20.7793 28.2001 20.8174 28.2755C20.8302 28.3006 20.6142 28.2727 20.8934 28.617C20.6514 28.5523 19.9472 27.5038 19.8206 27.4005C19.7753 27.3639 19.7917 27.861 19.328 26.8247C19.3162 26.8539 19.3043 26.8831 19.2925 26.9124C18.9119 26.4578 18.5329 26.0016 18.1555 25.5438C18.239 25.5511 18.5353 25.7238 18.2541 25.4143C18.0924 25.236 18.1075 25.4724 18.0909 25.458C17.9254 25.3184 15.5866 22.2565 15.1271 21.6693C14.9689 21.4715 14.4726 20.9754 14.4393 20.9331C14.2377 20.6822 13.5921 19.7255 13.4462 19.5517C13.3551 19.4432 13.3704 19.6177 13.2974 19.5124C13.2296 19.4144 13.3663 19.4494 13.348 19.4185C13.1933 19.1655 11.7981 17.4632 11.544 16.9818C11.7152 17.2601 12.7886 18.4299 12.815 18.3585C12.8168 18.3469 12.6283 17.9903 12.5576 17.9484C12.5289 17.7913 12.0995 17.5828 11.9826 17.3527C11.9692 17.3269 12.1216 17.3291 11.8714 16.9599C11.7847 16.8333 11.4818 16.5776 11.3134 16.1838C10.9319 15.7513 9.21039 13.1936 9.01449 13.0959C9.00717 13.0946 9.2347 13.4696 9.03377 13.2634C8.76744 12.9885 9.1054 13.1366 8.85062 12.7606C8.81161 12.7046 8.06061 11.7006 8.02978 11.6739C7.74066 11.4315 8.35065 12.3551 8.33309 12.3512C8.28951 12.3413 7.75074 11.6058 7.73433 11.5705C7.71796 11.5375 8.23925 12.0554 7.68661 11.3593C7.73553 11.4534 7.78426 11.5478 7.83284 11.6422C7.56946 11.3183 7.60671 11.2251 7.55109 11.1385C7.37755 10.8697 7.09551 10.6733 6.90644 10.1537C6.85581 10.017 7.01563 10.1682 7.01012 10.1503C6.95216 9.98312 6.73606 9.91205 6.66609 9.64354C6.66025 9.6239 7.03392 10.0379 6.4555 9.23958C6.48875 9.30109 6.5219 9.36269 6.55497 9.42438C6.45821 9.327 5.86916 8.52206 5.79469 8.40899C5.57592 8.07991 5.81699 8.31661 5.58176 8.00119C5.67115 8.26498 4.97229 7.28936 5.05635 7.30162C4.90356 7.22054 4.35911 6.34255 4.08302 5.94996C3.90902 5.70205 3.53746 5.21302 3.48511 5.13132C3.42075 5.03238 3.46801 5.03474 3.35202 4.85585C3.31801 4.80577 2.94093 4.30504 2.64608 3.82938C2.58926 3.73688 2.49179 3.52073 2.61626 3.67381C2.83105 3.93409 3.17775 4.48609 3.19669 4.45569C3.2169 4.422 2.68972 3.7387 2.55597 3.54664C1.9336 2.66482 2.31811 3.1489 2.30896 3.11936C2.28081 3.0472 1.92658 2.57954 1.91308 2.55874C1.85646 2.47323 2.1176 2.7945 2.13 2.79089C2.1461 2.78541 1.81594 2.32334 1.89782 2.42157C2.01651 2.56069 2.32169 2.98357 2.34226 3.00916C2.61854 3.33376 2.28228 2.84638 2.19099 2.71067C2.16368 2.66917 2.29312 2.81392 2.2686 2.78138C1.8919 2.28717 2.1526 2.7138 1.89798 2.38914C1.67071 2.09957 1.98036 2.4549 1.97292 2.4426C1.96234 2.42767 1.68627 2.08578 1.64701 2.02831C1.62517 2.00247 2.38086 2.85293 2.36786 2.79886C2.12914 2.5251 1.89154 2.25023 1.65509 1.97422C1.65019 1.93895 1.97833 2.3479 2.01452 2.38795C2.08852 2.46744 1.89983 2.22815 1.91292 2.23343C1.9201 2.23611 2.16568 2.49282 1.95887 2.24585C1.88718 2.16158 1.72568 1.99579 1.46985 1.68361C2.40662 2.7236 1.776 1.98436 1.75121 1.95088C1.72822 1.91679 2.19097 2.39776 1.64198 1.80124C1.64311 1.75045 1.66172 1.8062 1.82267 1.97075C2.02084 2.17132 1.58552 1.68507 2.28225 2.44569C2.25857 2.38646 1.68716 1.7865 1.65811 1.75353C1.6328 1.72529 1.76555 1.85292 1.72229 1.80333C1.20533 1.22216 1.56532 1.61643 1.42111 1.44259C1.40868 1.42673 0.895428 0.902078 1.29072 1.29695C2.01428 2.01294 2.29017 2.33868 2.46144 2.40933C1.94137 1.86461 1.26292 1.25292 1.10294 1.08922C0.853292 0.843432 1.11593 1.09401 1.08664 1.06226C1.07633 1.05137 0.860076 0.840682 0.857469 0.837556C0.716908 0.673688 1.82297 1.77266 2.17615 2.11372C2.08681 2.01698 1.99683 1.92088 1.90619 1.82543C2.03527 1.94881 2.16437 2.07216 2.2935 2.19549C1.68908 1.59721 2.27363 2.17296 2.45915 2.28733C2.501 2.31281 2.07909 1.94459 2.56596 2.35905C2.22443 2.03581 2.33952 2.13275 2.01859 1.85174C2.03531 1.85055 2.75868 2.48153 3.04867 2.72572C2.06644 1.82081 2.59308 2.37034 1.75535 1.57664C1.58625 1.44321 1.99633 1.81184 1.96107 1.7836C1.83608 1.68076 1.56322 1.41956 1.21221 1.1262C1.15574 1.07775 1.37612 1.30132 1.03885 0.981645C1.00186 0.94597 0.791028 0.738205 0.794059 0.740977C0.826199 0.764331 1.03982 0.964952 1.05051 0.971354C1.06066 0.977262 0.819326 0.756444 0.818924 0.755251C0.815931 0.744044 1.02168 0.938092 0.992951 0.908754C0.933682 0.842623 0.0628192 0.0511443 1.20626 1.07722C0.250601 0.230864 1.07826 0.974503 1.44973 1.30479C1.54467 1.38882 1.57338 1.40543 1.70997 1.52383C1.88583 1.67598 2.08586 1.85987 2.17663 1.93883C2.27515 2.02285 1.74009 1.5207 2.5321 2.22881C2.14294 1.85451 1.40894 1.23997 1.01571 0.883248C0.211726 0.174187 1.59741 1.35651 1.74568 1.47576C1.78483 1.50788 1.66237 1.3914 1.68851 1.41277C1.73195 1.44702 2.51865 2.11777 2.60543 2.1747C2.69219 2.23127 2.31468 1.93162 2.29829 1.903C2.28583 1.88495 3.26176 2.66721 2.74393 2.23327C2.38406 1.93713 1.70325 1.40875 1.60805 1.30028C2.14198 1.73109 2.67641 2.1614 3.21127 2.59128C2.93224 2.34228 2.64972 2.09677 2.36361 1.85484C2.97313 2.32814 3.47874 2.75863 4.07288 3.19292C2.73309 2.06144 4.56246 3.50573 4.59023 3.51396C4.60222 3.51402 4.09286 3.05066 4.00898 2.97804C4.5141 3.33484 6.027 4.44104 5.20678 3.72894C5.35358 3.86027 5.77787 4.1095 5.77607 4.10241C5.75561 4.03735 4.88196 3.44201 5.04451 3.51905C5.23391 3.60729 5.42466 3.80559 5.67599 3.98139C6.96682 4.88237 6.79378 4.4541 8.06829 5.37733C8.04957 5.35233 8.03079 5.3274 8.01193 5.30254C9.4187 6.28462 10.8094 7.28273 12.1849 8.29611C12.8181 8.59757 14.3383 9.56475 15.0381 10.0867C15.1799 10.1909 15.8234 10.7552 15.865 10.8048C15.9427 10.8959 15.399 10.5114 15.6046 10.7252C15.6493 10.7691 16.7987 11.6646 16.7803 11.5367C16.656 11.4318 16.2106 11.1602 16.1581 11.0953C15.7942 10.6347 19.3314 13.4016 19.5513 13.494C19.4958 13.4099 19.44 13.3261 19.3839 13.2425C19.6001 13.4241 19.8158 13.6063 20.0308 13.7891ZM6.23479 9.30579C6.0977 9.20415 5.88236 8.82113 5.72747 8.62247C5.51166 8.34981 5.04663 7.98449 5.32275 8.06588C5.62429 8.48165 5.92833 8.89494 6.23479 9.30579ZM10.5128 15.5115C10.3435 15.1998 10.6326 15.2837 10.745 15.5656C10.7575 15.5968 10.7412 15.9339 10.5128 15.5115ZM8.46227 12.5193C8.47215 12.5297 8.64227 12.7752 8.64656 12.7855C8.75599 13.0488 8.24531 12.3062 8.46227 12.5193ZM19.0627 26.2791C18.8171 25.9946 18.8049 26.3907 19.0273 26.4978C19.0414 26.5044 19.0788 26.2978 19.0627 26.2791ZM18.899 26.0657C18.8776 25.6755 18.1794 25.5447 18.5056 25.8776C18.5371 25.9101 18.8993 26.0845 18.899 26.0657ZM9.8441 14.4656C9.90596 14.4579 10.0961 14.764 10.1756 14.8963C10.1364 14.9297 9.93583 14.5817 9.8441 14.4656ZM15.2369 21.653C15.2889 21.622 14.5351 20.6512 14.4305 20.6383C14.5714 20.7696 15.1895 21.6805 15.2369 21.653ZM17.2401 24.0724C17.2288 24.04 16.9535 23.7196 16.9206 23.7699C16.995 23.9863 17.2904 24.219 17.2401 24.0724ZM21.1679 28.935C21.1944 28.9409 21.2892 28.3999 21.5735 29.1728C21.615 29.2866 21.2854 29.0619 21.2998 29.1026C21.3312 29.1867 21.3627 29.2465 21.3942 29.2883C21.1464 29.0437 20.9044 28.7743 20.9 28.7292C20.8797 28.5172 21.1565 28.9321 21.1679 28.935ZM23.5018 31.2161C23.5995 31.2199 23.871 31.5962 23.9178 31.6969C23.9254 31.7146 23.7391 31.7905 23.8835 31.9379C23.9998 32.0558 23.9776 31.7281 24.166 31.996C24.3565 32.2666 23.9725 32.0345 23.9842 32.0631C23.9996 32.1017 24.3914 32.423 24.2996 32.4926C24.2315 32.5443 23.9206 32.0911 23.821 32.0018C23.6935 31.8873 23.7284 32.1458 23.5644 31.9054C23.4613 31.7544 23.7005 31.6561 23.6847 31.6182C23.6709 31.5871 23.163 31.2068 23.5019 31.2174C23.5018 31.217 23.5018 31.2166 23.5018 31.2161ZM21.4618 29.3539C21.4394 29.3392 21.4167 29.3184 21.3942 29.2883C21.4166 29.3106 21.4394 29.3323 21.4618 29.3539ZM6.83717 10.0932C6.91853 10.2619 6.58567 9.85256 6.49747 9.65972C6.51707 9.63526 6.82399 10.0665 6.83717 10.0932ZM21.8048 29.4675C22.0959 29.9079 21.7926 29.6732 21.4618 29.3539C21.5866 29.4355 21.707 29.3197 21.8048 29.4675ZM12.5576 17.9484C12.5622 17.9746 12.5572 17.9993 12.5362 18.0228C12.5256 17.9523 12.5353 17.9352 12.5576 17.9484ZM13.2514 18.961C13.5742 19.2231 13.0577 18.5511 13.0118 18.6046C12.9946 18.6253 13.2385 18.9505 13.2514 18.961ZM19.3581 26.6634C19.3428 26.6253 19.9909 26.8084 19.2429 26.3495C19.4996 26.7369 19.165 26.3919 19.1458 26.4212C19.0887 26.5046 19.6391 27.0362 19.7168 27.1981C19.926 27.1764 19.4075 26.7907 19.3587 26.6642C19.3585 26.6639 19.3583 26.6637 19.3581 26.6634ZM27.2896 35.7457C27.1342 35.7544 26.9444 35.4792 26.8027 35.307C26.9572 35.2991 27.1475 35.5739 27.2896 35.7457ZM75.4918 20.3246C74.6092 21.5926 74.2334 21.4954 75.198 20.4922C75.2172 20.4729 75.5245 20.2268 75.4918 20.3246ZM67.1549 30.4448C66.9209 30.4134 67.2073 30.0291 67.467 29.8484C67.5259 29.8076 67.8349 29.7482 67.6703 30.0043C67.5081 29.8287 67.1437 30.1151 67.1549 30.4448ZM22.0816 29.6041C22.271 29.6277 22.5055 30.0488 22.6495 30.2502C22.476 30.2129 22.1922 29.7989 22.0816 29.6041ZM72.2338 24.1335C72.1232 24.2496 72.1603 24.4397 72.1866 24.4269C72.3047 24.3699 72.4087 24.0501 72.2338 24.1335ZM21.1319 28.4376C21.1716 28.3679 21.6197 28.7881 21.513 28.9553C21.4382 28.8445 21.1079 28.483 21.1319 28.4376ZM27.0579 35.3855C27.0256 35.283 27.4089 35.5979 27.4774 35.7406C27.404 35.7969 27.0791 35.4526 27.0579 35.3855ZM70.6325 26.1818C70.5315 26.2838 70.2996 26.559 70.3196 26.6352C70.3451 26.7304 70.6601 26.3018 70.6325 26.1818ZM86.8344 4.61397C86.8486 4.60254 86.5609 5.10026 86.4098 5.29832C86.1198 5.67126 86.8194 4.62672 86.8344 4.61397ZM73.1384 22.8924C73.5193 22.6331 73.11 22.9346 73.2238 23.0203C73.4186 22.7844 73.8984 22.1926 73.4735 22.5045C73.3907 22.5652 73.2344 22.7876 73.1384 22.8924ZM72.8408 23.1853C72.8431 23.2562 72.7427 23.6172 72.9127 23.3883C72.9908 23.2821 73.0078 23.0018 72.8408 23.1853ZM84.8381 7.48393C84.5655 7.78508 85.678 6.26739 85.7124 6.2262C85.7316 6.20543 85.7449 6.19254 85.7531 6.18589C85.7839 6.12009 85.9881 5.82746 86.033 5.81487C85.97 5.90086 85.8047 6.14213 85.7827 6.16738C85.7732 6.17829 85.766 6.1862 85.7606 6.19133C85.7091 6.31508 84.8918 7.42765 84.8381 7.48393ZM82.9726 9.97662C83.1857 9.53314 83.3432 9.57443 83.3226 9.61037C83.0679 10.0704 83.1823 9.71875 83.1696 9.72795C83.1421 9.75039 82.9663 10.0823 82.9735 9.97543C82.9732 9.97583 82.9729 9.97622 82.9726 9.97662ZM84.4519 7.99102C84.462 7.97418 84.6945 7.6555 84.7052 7.64357C84.9221 7.40868 84.2671 8.31335 84.4519 7.99102ZM25.3098 32.8867C25.4652 33.1259 25.1796 33.0244 25.0956 32.8462C25.0893 32.8309 25.1726 32.6758 25.3098 32.8867ZM72.7226 23.3822C72.6673 23.4184 71.5543 24.6459 71.7491 24.7001C71.8242 24.5765 73.0778 23.1698 72.7226 23.3822ZM64.7037 32.8543C64.8971 32.635 64.8373 33.0252 64.679 33.0871C64.6202 33.11 64.6549 32.9096 64.7037 32.8543ZM20.723 27.6758C20.4546 27.5156 20.7419 27.3169 20.8265 27.6039C20.8298 27.6151 20.7335 27.682 20.723 27.6758ZM66.3179 31.1712C65.7487 32.0255 65.4409 31.3806 66.4554 30.5445C66.4489 30.5959 66.4424 30.6474 66.436 30.6988C67.4908 29.6177 66.536 30.6527 66.3196 30.9594C66.2374 31.076 66.3911 31.063 66.3191 31.1711C66.3187 31.1711 66.3183 31.1712 66.3179 31.1712ZM63.6804 34.0015C62.6929 34.3848 64.1466 33.2216 64.452 32.7763C64.2509 33.3029 63.7884 33.7879 64.5329 33.2438C63.6824 34.2773 63.9114 33.722 63.8653 33.7511C63.8109 33.7857 63.7225 33.9852 63.6804 34.0015ZM65.365 32.0702C65.3922 32.0183 65.7367 31.7657 65.8252 31.6391C65.7989 31.9136 65.187 32.4183 65.365 32.0702ZM81.0697 12.6426C81.0471 12.5705 81.0681 12.4688 81.2856 12.2151C81.2446 12.3197 81.1348 12.5109 81.0697 12.6426ZM6.21552 8.87188C6.08153 8.68137 5.82178 8.29499 5.87318 8.44174C5.87947 8.45713 6.19617 8.89024 6.21552 8.87188ZM69.5953 27.0528C69.5545 27.081 68.7336 28.0448 69.1046 27.7994C69.2166 27.7255 69.9425 26.8275 69.5953 27.0528ZM73.7644 21.9796C73.6972 22.0618 73.44 22.4113 73.4508 22.435C73.4899 22.5152 73.7892 22.0697 73.7644 21.9796ZM5.55857 7.89186C5.54339 7.86431 5.12223 7.29433 5.15522 7.3703C5.21667 7.51565 5.60926 7.98765 5.55857 7.89186ZM26.1939 33.4383C26.2362 33.4789 26.1883 33.6364 26.2006 33.6528C26.2304 33.6903 26.9813 34.4561 26.5805 34.2775C26.5131 34.2482 25.5412 33.0379 25.4216 32.8737C25.505 32.6806 25.8125 33.3053 25.9325 33.4121C25.9538 33.4307 26.0795 33.3306 26.193 33.4385C26.1933 33.4385 26.1936 33.4384 26.1939 33.4383ZM82.07 11.1882C82.0607 11.112 82.7985 10.0667 82.8302 10.1192C82.5769 10.4756 82.3235 10.832 82.07 11.1882ZM81.6783 11.7022C81.4884 11.8927 81.8604 11.3737 81.984 11.2347C82.0102 11.2581 81.7061 11.6745 81.6783 11.7022ZM71.9936 23.5906C71.9297 23.7058 72.2798 23.5049 72.2437 23.592C72.2204 23.6478 72.0018 23.8295 71.9761 23.9314C71.97 23.9616 72.2494 23.8326 72.298 23.7632C72.3679 23.6652 72.2201 23.6801 72.3019 23.5789C72.574 23.2431 72.8681 22.9983 73.1217 22.682C73.1445 22.6534 72.9145 22.8225 73.112 22.581C73.1425 22.5437 73.4005 22.3942 73.6233 22.0919C73.9124 21.2213 74.5158 20.9733 75.0884 20.0743C75.044 20.0854 74.4984 20.6403 74.4669 20.6737C73.8814 21.3182 72.8848 22.5252 72.3011 23.2299C72.1513 23.4107 72.2752 23.3741 72.2128 23.454C72.1633 23.5171 72.1286 23.3486 71.9936 23.5906ZM6.31103 8.94871C6.2874 8.81769 6.03162 8.53095 5.88799 8.32805C5.90388 8.43413 6.17706 8.74407 6.31103 8.94871ZM78.1784 16.2072C78.1055 16.308 77.8486 16.5895 77.8508 16.6363C77.8545 16.6973 78.2104 16.276 78.1784 16.2072ZM30.2085 37.9752C30.22 37.9806 30.4129 38.2055 30.4165 38.2177C30.4929 38.5146 29.9153 37.8389 30.2085 37.9752ZM35.0096 43.1697C35.1805 43.3157 35.3781 43.4377 35.3226 43.5996C35.2404 43.48 34.9167 43.2254 35.0096 43.1697ZM50.1311 48.1618C49.9557 48.0519 50.5229 47.6653 50.625 47.5874C50.6554 47.6845 50.258 48.2408 50.1311 48.1618ZM80.8506 12.4922C81.1064 12.165 80.9637 12.1453 81.165 11.9764C81.1982 11.9492 81.4658 12.0216 81.1216 12.3182C81.059 12.371 81.2101 12.0709 80.8506 12.4922ZM66.5987 30.3864C66.5881 30.2275 66.8264 30.0024 66.9774 29.8402C67.0033 29.9362 66.6963 30.2612 66.5987 30.3864ZM4.83412 6.82622C4.7508 6.63608 4.19553 5.92787 4.30833 6.12771C4.32399 6.15651 4.76031 6.72278 4.83412 6.82622ZM23.1186 30.0496C23.4468 30.2412 22.9748 29.6364 22.7334 29.538C22.8099 29.6153 23.0966 30.0365 23.1186 30.0496ZM40.2586 48.3983C40.2753 48.4065 40.5402 48.6928 40.5474 48.7103C40.663 49.0464 39.913 48.2368 40.2586 48.3983ZM33.5801 41.3122C33.7603 41.3306 34.3273 42.0693 34.3851 42.3042C34.1239 42.2837 33.3556 41.2903 33.5801 41.3122ZM79.8367 13.8774C80.0154 13.6402 80.199 13.4291 80.3808 13.2288C80.3786 13.307 79.8816 13.8784 79.8367 13.8774ZM49.4016 48.7213C49.417 48.7071 49.4396 48.7009 49.4546 48.6876C49.4368 48.6993 49.4188 48.7102 49.4016 48.7213ZM75.716 19.067C75.5435 19.2431 75.6568 19.284 75.6688 19.2745C75.811 19.1545 75.9109 18.8672 75.716 19.067ZM6.20324 8.65825C6.18818 8.55246 5.91057 8.24379 5.77587 8.04122C5.7905 8.12444 6.08377 8.50604 6.20324 8.65825ZM62.7692 34.5584C62.4442 34.6713 63.1506 33.5959 63.4025 33.4723C63.4871 33.5292 62.8156 34.5406 62.7692 34.5584ZM22.5215 29.0323C22.5823 28.9366 22.1438 28.6269 22.1812 28.7485C22.2045 28.8258 22.4831 29.0916 22.5215 29.0323ZM63.8732 33.0469C63.9266 32.9329 64.1917 32.8079 64.1771 32.9306C64.1586 33.0885 63.8602 33.0772 63.8732 33.0469ZM70.77 24.9233C70.7257 24.9522 70.3487 25.5596 70.6062 25.4105C70.7845 25.3066 70.7033 25.1804 70.7332 25.1441C70.7677 25.1043 71.6095 24.3659 70.77 24.9233ZM57.933 39.7019C58.0773 39.4748 58.3339 39.2823 58.5183 39.078C58.4978 39.2159 58.0836 39.6945 57.933 39.7019ZM23.8805 30.5586C23.8702 30.4788 22.7485 29.1433 23.2985 29.9892C23.3306 30.0385 23.9101 30.803 23.8805 30.5586ZM80.8506 12.4922C80.8183 12.5334 80.7796 12.5796 80.7329 12.6313C80.7769 12.5776 80.8165 12.5321 80.8506 12.4922ZM77.9522 16.2158C77.9751 16.1045 77.6668 16.4724 77.5983 16.6035C77.6168 16.6834 77.9491 16.2312 77.9522 16.2158ZM58.4411 38.9713C58.5115 38.8177 58.747 38.6467 58.8758 38.4982C58.9138 38.5832 58.5497 38.983 58.4411 38.9713ZM50.6808 46.9386C50.9395 46.7526 51.1933 46.4591 51.1196 46.377C51.1363 46.3845 51.1599 46.3865 51.1907 46.3815C51.2215 46.3761 51.4212 46.0994 51.5502 46.0214C52.3232 45.5552 49.2689 48.5257 50.782 46.5469C50.7483 46.6775 50.7146 46.8081 50.6808 46.9386ZM32.9019 40.2237C32.8712 40.0019 32.4145 39.7517 32.4673 39.8823C32.5043 39.9731 32.9317 40.4466 32.9019 40.2237ZM37.7051 45.1338C37.6847 45.0787 37.2783 44.7949 37.2199 44.8355C37.3629 45.0893 37.7963 45.3863 37.7051 45.1338ZM32.0706 39.1146C32.0077 39.019 31.7638 39.0607 31.7664 39.0767C31.7905 39.2137 32.1173 39.3339 32.0706 39.1146ZM80.1434 12.9928C80.0197 13.1048 79.7374 13.574 79.7127 13.7129C79.6903 13.721 79.6424 13.7552 79.5617 13.8249C79.5619 13.8247 79.5621 13.8244 79.5623 13.8242C79.4568 13.9218 76.7379 17.2765 78.6435 15.1081C78.7029 15.0399 78.5804 15.0917 78.8179 14.8101C78.8337 14.7916 78.8779 14.8187 78.9263 14.7612C79.0381 14.6292 79.6302 13.923 79.7168 13.7486C79.7241 13.7537 79.7376 13.7503 79.7589 13.7357C79.9473 13.6041 80.2379 12.9044 80.1434 12.9928ZM38.3947 45.8126C38.3534 45.7151 38.11 45.5188 38.0224 45.5608C38.0981 45.7032 38.4903 46.0395 38.3947 45.8126ZM24.0716 30.2913C23.9844 30.0955 23.5652 29.7976 23.6217 29.9578C23.6558 30.0566 24.1717 30.5176 24.0716 30.2913ZM36.1905 43.6127C36.9106 44.5154 36.3868 43.8037 36.6037 43.8353C36.4659 43.7612 36.3281 43.687 36.1905 43.6127ZM83.5109 8.84973C83.3924 8.99 83.4646 8.75813 83.6197 8.62824C83.6681 8.5873 83.5768 8.77084 83.5109 8.84973ZM88.4694 2.12354C88.3629 2.23792 88.8258 1.62216 88.6564 1.87323C88.6486 1.88495 88.4766 2.11501 88.4694 2.12354ZM84.9881 6.80716C84.9407 6.93546 84.8959 7.00502 84.6767 7.28068C84.9821 6.85357 84.6654 7.21619 84.9881 6.80716ZM51.1049 46.3671C51.1109 46.3703 51.1155 46.3725 51.1196 46.377C51.1138 46.3744 51.1091 46.3711 51.1049 46.3671ZM31.3066 38.3528C31.3007 38.1555 31.0198 37.8671 31.0092 38.0473C31.0086 38.0643 31.1986 38.3776 31.3066 38.3528ZM79.7127 13.7129C79.7326 13.7058 79.7317 13.7187 79.7168 13.7486C79.7099 13.7438 79.7093 13.7316 79.7127 13.7129ZM32.8584 39.8579C32.7789 39.9171 33.1716 40.391 33.1967 40.4006C33.5593 40.5353 33.0358 40.0383 32.8584 39.8579ZM21.488 27.1456C21.4614 27.1274 21.4472 27.4299 21.5867 27.467C21.6952 27.4954 21.5883 27.2127 21.488 27.1456ZM85.6983 5.83722C85.816 5.68051 85.9817 5.45984 86.0295 5.43645C85.9485 5.53929 85.7099 5.85446 85.6983 5.83722ZM88.2809 2.35738C88.1528 2.55356 87.8413 2.98288 87.6389 3.25348C87.6187 3.24201 88.1557 2.53649 88.2809 2.35738ZM80.4937 12.5988C80.4816 12.6092 80.1604 12.9761 80.2423 12.964C80.3619 12.9463 80.6001 12.5111 80.4937 12.5988ZM22.0284 27.9413C22.2223 28.0552 22.0484 27.521 21.778 27.4667C21.6397 27.4383 21.9959 27.922 22.0284 27.9413ZM30.5716 37.3101C30.3267 37.1488 30.7206 37.7613 30.8789 37.7437C30.7962 37.6393 30.6585 37.3673 30.5716 37.3101ZM37.3898 44.3079C37.0337 43.3844 36.8769 44.2382 37.0324 44.3096C37.0544 44.3196 37.3987 44.3302 37.3898 44.3079ZM3.6036 4.88168C3.51961 4.78453 3.78184 5.19763 3.83643 5.23044C3.87072 5.25015 3.65773 4.9434 3.6036 4.88168ZM54.0971 43.1314C54.0715 43.1598 54.0461 43.1881 54.0209 43.2159C54.0359 43.1911 54.0601 43.163 54.0971 43.1314ZM29.1473 35.0485C29.2194 35.8771 29.4511 35.5508 29.4874 35.5928C29.5647 35.6846 29.6553 35.9871 29.8243 36.1368C29.6082 35.9878 29.3926 35.8383 29.1775 35.6884C29.2892 35.865 30.3546 37.3049 30.4396 37.2724C30.5605 37.2267 30.1554 36.8435 30.1519 36.824C30.1467 36.7962 30.322 36.4977 30.2957 36.4509C30.2516 36.3747 29.2506 35.2809 29.1473 35.0485ZM36.0313 42.9905C36.1029 43.1247 36.0335 43.2526 36.1038 43.2778C36.1278 43.2864 36.2239 43.1955 36.3027 43.2279C36.2122 43.1488 36.1218 43.0697 36.0313 42.9905ZM28.0559 34.5268C28.0395 34.2883 28.5446 34.9265 28.5503 34.9574C28.5715 35.1318 28.069 34.7222 28.0559 34.5268ZM32.7298 39.5539C32.7161 39.5259 32.3257 39.0384 32.2676 39.1036C32.3329 39.2706 32.8873 39.8899 32.7298 39.5539ZM36.3765 43.2914C36.5171 43.4593 36.7092 43.8503 36.8176 43.675C36.8174 43.6748 36.8172 43.6745 36.817 43.6743C36.67 43.5468 36.5232 43.4192 36.3765 43.2914ZM22.7623 28.2607C22.6793 27.7722 22.5736 28.1486 22.7497 28.4787C22.9045 28.4772 22.7761 28.3407 22.7623 28.2607ZM22.0434 27.1504C22.0012 27.0336 21.2005 26.1956 21.2239 26.4223C21.2315 26.5035 21.7551 26.9222 21.7691 26.9516C21.79 26.9965 21.545 26.941 21.7997 27.1888C21.8217 27.1375 22.058 27.1903 22.0434 27.1504ZM22.659 27.891C22.532 27.45 22.2162 27.6381 22.4149 27.8666C22.4923 27.9562 22.6767 27.9543 22.659 27.891ZM23.7255 29.1447C23.6546 29.0111 23.4346 28.6868 23.1716 28.5745C23.3996 28.8487 23.6278 29.1226 23.8562 29.3964C23.9335 29.377 23.7874 29.2616 23.7248 29.144C23.725 29.1442 23.7253 29.1445 23.7255 29.1447ZM89.7094 0.372491C89.5093 0.623759 89.9669 0.0416423 89.9865 0.0172051C90.0436 -0.0562556 89.7982 0.259574 89.7094 0.372491ZM2.40953 2.55051C2.35255 2.48208 2.3245 2.42815 2.1835 2.29313C2.31051 2.44376 2.43599 2.59592 2.55996 2.74957C2.68761 2.83769 2.47185 2.62525 2.40953 2.55051ZM1.95636 1.94349C1.97644 1.96263 1.89504 1.8298 2.13258 2.09892C2.28963 2.2842 1.35068 1.36154 1.19046 1.18572C1.38023 1.36725 1.78412 1.77813 1.95636 1.94349ZM0.33946 0.299501C0.328219 0.289277 0.705377 0.619391 0.748456 0.658176C0.973093 0.863399 0.39908 0.356012 0.33946 0.299501ZM1.5333 1.36198C1.36114 1.20244 1.75365 1.54475 1.86731 1.65008C1.874 1.66463 1.55986 1.38667 1.5333 1.36198ZM87.1931 2.42658C86.9757 2.56813 86.8593 2.77274 87.1422 2.50338C87.1556 2.49046 87.2024 2.42056 87.1931 2.42658ZM0.715785 0.61463C0.891927 0.770183 0.496956 0.430345 0.380173 0.32814C0.369978 0.317969 0.688881 0.591029 0.715785 0.61463ZM86.9988 2.48496C86.7198 2.6827 86.8751 2.67006 86.9092 2.64466C87.0502 2.54026 87.4805 2.1292 87.57 2.04677C86.8966 2.63268 87.1294 2.39109 86.9988 2.48496ZM85.8503 3.53514C85.6221 3.74916 86.2439 3.24078 86.3392 3.12038C86.222 3.22296 85.9156 3.47458 85.8503 3.53514ZM84.3721 4.74104C84.24 4.84664 83.8472 5.16109 83.8022 5.23474C83.9391 5.11202 84.3359 4.80512 84.3721 4.74104ZM84.027 4.93427C83.7993 5.07823 83.8249 5.193 84.0353 4.97483C84.0435 4.96637 84.0358 4.92941 84.027 4.93427ZM82.8599 5.85663C82.6925 5.93303 82.6251 6.14398 82.8416 5.9653C82.9056 5.91195 82.8779 5.84874 82.8599 5.85663ZM86.6022 2.68502C86.3999 2.83188 86.1821 3.06396 86.5973 2.73366C86.457 2.85522 86.3173 2.97738 86.1782 3.10015C86.7318 2.67727 86.6524 2.66952 86.8097 2.54653C87.0294 2.37441 87.0407 2.41656 87.007 2.46155C87.1643 2.29765 87.917 1.68558 88.3508 1.33065C87.9641 1.6372 87.3298 2.12782 86.9445 2.4265C86.8344 2.51179 86.7378 2.60467 86.6446 2.67802C86.4949 2.79537 86.6134 2.67666 86.6029 2.68441C86.6027 2.68461 86.6024 2.68481 86.6022 2.68502ZM81.3624 7.10564C80.9263 7.38623 81.2728 7.27961 81.4742 7.076C81.4823 7.06678 81.3732 7.09869 81.3624 7.10564ZM0.212438 0.167658C0.746449 0.591143 0.348519 0.293091 1.47383 1.17083C0.996543 0.806587 1.44079 1.15733 1.34557 1.08829C1.26973 1.03236 1.00007 0.808263 1.15276 0.942582C0.951558 0.766534 0.0441065 0.0361567 0.00400876 0.00323695C0.00438865 0.0035437 0.00476854 0.00385046 0.00514843 0.00415721C-0.0192514 -0.0152978 0.0414698 0.0330902 0.212438 0.167658ZM84.1959 4.56824C83.9806 4.59193 84.0604 4.7655 83.7289 4.90396C83.4853 5.28592 84.6916 4.13842 84.9252 4.08698C83.5103 5.22848 85.927 3.39981 84.8352 4.09244C85.6884 3.47557 85.0899 3.86537 85.2027 3.75135C85.3246 3.63044 85.8038 3.27818 85.758 3.27456C85.7577 3.27477 85.7575 3.27495 85.7572 3.27516C85.4732 3.4997 85.1897 3.72483 84.9069 3.95055C85.2404 3.78628 84.648 4.23315 84.3995 4.3372C84.3311 4.41367 84.2632 4.49069 84.1959 4.56824ZM85.8439 3.33778C85.8148 3.35883 85.2117 3.86193 85.2624 3.84121C85.35 3.78109 86.2061 3.06722 85.8439 3.33778ZM88.536 1.16162C88.3152 1.33797 87.9683 1.60516 87.8575 1.71084C88.0783 1.53438 88.4223 1.2641 88.536 1.16162ZM77.2763 10.3537C77.043 10.6267 77.9007 9.92561 77.608 10.0839C77.5937 10.0918 77.2879 10.3404 77.2763 10.3537ZM83.5697 5.09356C83.2567 5.29526 83.4804 5.2757 83.6672 5.08117C83.6781 5.07 83.5842 5.08428 83.5697 5.09356ZM0.646929 0.509078C0.668621 0.521817 1.44468 1.135 1.58157 1.24437C1.49768 1.18834 0.622773 0.493735 0.646929 0.509078ZM88.9113 0.837861C88.4478 1.16469 87.8622 1.65148 87.7986 1.70543C87.7321 1.75586 87.8235 1.66385 87.8082 1.67525C87.773 1.70083 87.0706 2.24381 87.038 2.27146C87.0148 2.29139 87.1628 2.21412 87.0262 2.33448C87.2933 2.10025 88.5783 1.10845 88.643 1.055C88.6939 1.01437 88.2934 1.30384 88.9105 0.838462C88.9108 0.838254 88.911 0.838068 88.9113 0.837861ZM87.6295 1.83027C87.8116 1.7012 87.3232 2.08532 87.2017 2.17492C86.9307 2.37306 87.606 1.84664 87.6295 1.83027ZM86.44 2.73915C86.3815 2.78031 85.8724 3.17036 85.8441 3.21855C86.1006 3.04939 86.5721 2.64524 86.44 2.73915ZM80.8504 7.15537C80.7248 7.26336 80.3443 7.52505 80.3516 7.5691C80.4773 7.46102 80.8564 7.19807 80.8504 7.15537ZM3.37863 2.5173C3.16521 2.34275 3.6831 2.72376 3.8284 2.8407C3.82877 2.85456 3.39678 2.53218 3.37863 2.5173ZM83.3368 4.94789C83.251 5.00031 81.666 6.23631 81.4561 6.4221C81.6926 6.27153 83.2717 5.05496 83.3376 4.99395C83.3564 4.97572 83.3478 4.94121 83.3368 4.94789ZM86.8188 2.32897C86.9539 2.20544 87.0674 2.15016 87.0861 2.13624C87.2718 2.00205 87.6508 1.71777 87.5775 1.78992C87.2486 2.02547 86.5518 2.57684 86.8188 2.32897ZM80.5616 7.06708C80.0366 7.49994 81.1136 6.73704 80.9379 6.80268C80.9268 6.80714 80.6161 7.02249 80.5616 7.06708ZM83.5081 4.80395C83.6055 4.69016 85.2382 3.50094 85.4974 3.30716C85.2947 3.51024 85.0858 3.62839 84.7756 3.86325C84.6922 3.92684 84.7288 3.92421 84.7198 3.93101C84.5755 4.04137 84.6675 3.94273 84.5776 4.00993C84.5194 4.05092 83.3702 4.9634 83.5081 4.80395ZM86.8942 2.25679C86.9764 2.18122 87.9954 1.4383 88.0383 1.41026C88.354 1.19572 86.9757 2.20136 86.8942 2.25679ZM83.3231 4.87788C83.4485 4.69986 84.2864 4.13629 83.7581 4.5671C83.7079 4.60855 83.465 4.75353 83.3231 4.87788ZM80.555 6.9582C80.5264 6.97667 79.9449 7.39371 79.9576 7.42434C80.0481 7.3706 80.8811 6.74796 80.555 6.9582ZM80.7787 6.66413C80.7655 6.67506 80.9392 6.6146 80.667 6.81063C80.6444 6.82705 80.5564 6.81179 80.237 7.08098C80.1722 7.13566 80.0987 7.2472 80.1084 7.2435C80.529 7.05123 81.4467 6.12307 80.7787 6.66413ZM86.8997 2.23003C86.8376 2.26288 86.9509 2.14715 87.0813 2.07098C87.1369 2.03809 87.0522 2.11852 86.8997 2.23003ZM78.7382 8.30819C79.0265 8.01594 77.9834 8.79535 77.9422 8.84707C78.003 8.8493 78.7094 8.33739 78.7382 8.30819ZM4.01661 2.78776C4.01634 2.78757 4.01607 2.78738 4.01581 2.78719C4.29867 2.99268 4.10777 2.88109 4.12091 2.89083C4.70724 3.34472 4.57847 3.19757 4.67791 3.2608C4.8911 3.3964 4.81508 3.41622 5.17586 3.64382C4.58268 3.26444 5.10941 3.62299 5.10882 3.65112C5.10761 3.76132 4.38881 3.07625 4.09058 2.88957C4.05 2.86259 4.32241 3.08902 4.21687 3.02146C3.88047 2.79504 2.92914 2.00131 4.01661 2.78776ZM87.1725 2.00286C87.2938 1.89773 88.3086 1.19409 88.0479 1.38894C88.0053 1.41964 86.9949 2.15828 87.1725 2.00286ZM43.3576 38.4639C43.4761 38.1694 42.8867 38.5372 42.8675 38.6955C42.858 38.7741 43.3055 38.5932 43.3576 38.4639ZM48.5772 39.6051C48.3125 39.3791 47.6759 39.4983 48.0411 39.7437C48.0801 39.7696 48.5532 39.6854 48.5772 39.6051ZM56.4 25.9919C56.0076 26.112 56.2464 26.3202 56.443 26.1406C56.5125 26.0773 56.4123 25.9881 56.4 25.9919ZM46.2248 35.3752C46.1899 35.3916 45.9029 35.697 45.9708 35.7432C46.1165 35.67 46.4535 35.2721 46.2248 35.3752ZM56.4551 25.8843C56.3334 26.0664 56.7712 25.9812 56.8131 25.6518C56.7254 25.7527 56.4677 25.8656 56.4551 25.8843ZM82.5734 5.18692C82.4521 5.32005 82.0267 5.61455 81.7922 5.79351C81.728 5.7738 82.4079 5.31687 82.5734 5.18692ZM40.7965 40.5308C40.6578 40.8568 41.2326 40.4362 41.063 40.3579C41.0499 40.3575 40.8016 40.5177 40.7965 40.5308ZM65.3087 18.3675C65.181 18.5775 65.8473 18.1716 65.5843 18.2037C65.5722 18.2061 65.3157 18.356 65.3087 18.3675ZM67.9281 16.3047C67.7678 16.4005 67.168 16.8933 67.4564 16.7565C67.501 16.7351 67.966 16.3618 67.9281 16.3047ZM4.711 3.25655C4.65273 3.17677 5.11947 3.51133 5.18223 3.56329C5.20604 3.58455 4.7859 3.3617 4.711 3.25655ZM54.615 27.5351C54.4903 27.6755 54.0974 27.9703 54.0993 28.0933C54.2568 27.9264 54.791 27.6238 54.615 27.5351ZM41.858 39.474C41.5061 39.5267 41.174 39.8859 41.4538 39.9948C41.824 39.6014 41.2318 39.8671 41.858 39.474ZM57.227 24.9484C57.1031 25.0372 57.1789 25.2759 57.1994 25.2724C57.3952 25.2379 57.4032 24.9134 57.227 24.9484ZM48.9677 32.6448C48.8843 32.5736 48.5666 32.9376 48.6635 32.9434C48.6955 32.9457 49.0351 32.7023 48.9677 32.6448ZM77.4005 8.94051C77.1901 9.04244 77.7094 8.60797 77.9066 8.52308C78.0348 8.5141 77.4268 8.92731 77.4005 8.94051ZM60.4436 22.2688C60.3637 22.1572 59.8412 22.7001 60.1496 22.5887C60.2266 22.5607 60.4699 22.3062 60.4436 22.2688ZM65.9263 17.5528C65.6313 17.9724 67.3621 16.7025 66.8037 16.9326C66.7638 16.949 65.9523 17.5166 65.9263 17.5528ZM68.7158 15.4417C68.6367 15.4858 68.4128 15.2005 68.7995 15.077C68.8499 15.0604 68.7415 15.2653 68.7879 15.2569C68.8148 15.2517 69.4728 14.8002 69.4956 14.772C69.5199 14.7413 69.4033 14.6894 69.4257 14.656C69.4512 14.6187 69.9059 14.3904 70.1079 14.2348C70.4889 13.9418 70.4663 13.8464 70.4973 13.8222C70.5881 13.752 70.7863 13.6795 70.9707 13.5376C71.8981 12.8197 73.2881 11.6935 74.1483 11.2494C73.4399 11.7016 72.8604 12.2282 72.2246 12.7473C72.2905 12.4749 71.3617 13.5834 71.8894 12.9195C71.6058 13.1845 68.97 15.2918 68.7166 15.4411C68.7163 15.4412 68.7161 15.4415 68.7158 15.4417ZM47.7139 38.5314C48.0016 38.5452 47.1901 37.8098 46.967 37.9016C47.0487 38.0241 47.6799 38.5281 47.7139 38.5314ZM41.7681 38.3857C41.8172 38.2911 41.621 37.9586 42.136 37.7202C42.1363 37.7199 42.1367 37.7195 42.137 37.7192C42.2876 37.6495 42.2251 37.838 42.2685 37.841C42.2853 37.8431 42.7641 37.635 42.4968 37.9383C42.0898 38.4013 42.2586 37.782 42.0215 38.0088C41.9925 38.0365 41.693 38.6151 41.7503 38.6213C41.7566 38.6224 41.8594 38.461 41.8945 38.4524C42.0267 38.4199 42.069 38.5423 42.0846 38.5347C42.1327 38.5068 42.6933 37.6788 42.9186 37.7022C42.9906 37.7086 41.9317 38.9288 41.8671 38.9531C41.8259 38.968 41.6082 38.7266 41.5564 38.7329C41.5299 38.7364 41.155 39.2783 41.0743 39.3166C41.0508 39.3277 41.031 39.3342 41.0158 39.3384C41.1565 39.3404 40.7349 39.749 40.6675 39.6562C40.6432 39.6174 40.948 39.3508 40.9639 39.3462C40.9707 39.3441 40.9778 39.3434 40.9837 39.342C40.8372 39.3138 41.8143 38.3563 41.4755 38.4351C41.6876 38.0863 41.6243 38.6635 41.7681 38.3857ZM42.9904 36.9122C42.985 36.9648 42.9797 37.0174 42.9744 37.07C43.4136 36.5274 44.106 36.0868 44.6832 35.533C44.8299 35.3927 44.5148 35.4077 44.7472 35.264C44.9335 35.1489 45.2397 35.1217 45.186 35.2318C45.1731 35.2588 44.7708 35.4701 44.623 35.6294C44.1869 36.0999 44.4298 36.1138 44.4061 36.143C44.3798 36.1753 44.0006 36.3667 43.8461 36.5237C43.4578 36.9189 43.3535 37.1725 42.7102 37.5996C42.9398 37.2114 42.5875 37.1975 42.9904 36.9122ZM62.6149 19.9405C62.5736 19.8619 62.9826 19.6284 63.1024 19.5148C63.1433 19.5924 62.7345 19.8266 62.6149 19.9405ZM21.6654 15.2656C21.4695 15.2642 22.2788 15.934 22.1321 15.6909C22.0998 15.637 21.7698 15.3471 21.6654 15.2656ZM25.3296 18.2461C25.4664 18.3072 25.0919 17.885 25.0189 17.9594C24.996 17.9835 25.3121 18.2381 25.3296 18.2461ZM49.6567 30.8873C49.6723 30.8655 49.985 30.6338 50.0003 30.6321C50.3213 30.5925 49.3084 31.3711 49.6567 30.8873ZM29.9084 21.745C29.4615 21.5022 30.5642 22.4753 30.3083 22.097C30.2955 22.0782 29.9301 21.7565 29.9084 21.745ZM31.5024 23.0363C31.4088 22.9646 31.0446 22.5947 31.0058 22.6238C30.9442 22.6708 31.3638 23.0915 31.5024 23.0363ZM56.8734 24.4514C56.7019 24.3596 57.3226 24.0122 57.489 23.8419C57.6591 23.9322 57.039 24.2805 56.8734 24.4514ZM53.4979 27.1863C55.5751 25.1823 55.3751 25.882 53.4342 27.3657C53.3449 27.2813 53.3673 27.3133 53.4979 27.1863ZM56.3164 24.7787C56.3192 24.9299 56.0451 25.1193 55.87 25.2573C55.8421 25.1731 56.2094 24.8976 56.3164 24.7787ZM20.7971 14.3727C21.0186 14.4072 21.5694 14.9898 21.4226 14.935C21.3895 14.9213 20.7028 14.373 20.7971 14.3727ZM49.715 30.6036C49.5279 30.5116 50.2273 29.9855 50.307 29.9713C50.6272 29.9133 49.7366 30.5259 49.715 30.6036ZM59.918 21.7034C59.9446 21.5136 60.3298 21.2841 60.5484 21.1075C60.5269 21.266 60.1036 21.5536 59.918 21.7034ZM58.2842 22.9234C58.2941 22.9084 58.6036 22.6665 58.6214 22.6597C58.9599 22.5464 58.0863 23.2325 58.2842 22.9234ZM3.76107 2.36626C3.77278 2.37292 4.0263 2.53692 4.03452 2.54325C4.24585 2.70459 3.48734 2.20998 3.76107 2.36626Z" fill="white"/>
</svg>
