<svg width="39" height="25" viewBox="0 0 39 25" fill="none" xmlns="http://www.w3.org/2000/svg">
<path d="M11.3442 0C12.4693 0 13.5099 0.0880352 14.4607 0.348619C15.4132 0.522929 16.1932 0.871549 16.8852 1.30644C17.5789 1.74192 18.0983 2.35171 18.4434 3.13582C18.7902 3.91933 18.9645 4.87891 18.9645 5.92301C18.9645 7.14318 18.704 8.18728 18.0983 8.97079C17.5789 9.75606 16.7126 10.4515 15.6738 10.9745C17.1457 11.4111 18.2708 12.1946 18.9645 13.2387C19.6583 14.2828 20.0896 15.591 20.0896 17.0718C20.0896 18.292 19.8291 19.3361 19.3959 20.2076C18.9645 21.0792 18.2708 21.8627 17.4908 22.3856C16.6432 22.9455 15.7067 23.3575 14.7213 23.604C13.6824 23.8664 12.6436 24.0407 11.6048 24.0407H0V0H11.3442ZM10.6505 9.75431C11.603 9.75431 12.383 9.49372 12.9887 9.05883C13.5944 8.62393 13.855 7.83866 13.855 6.88084C13.855 6.35791 13.7669 5.83498 13.5944 5.48812C13.4219 5.14126 13.1613 4.87715 12.8162 4.61657C12.4633 4.41839 12.0838 4.27193 11.6893 4.18167C11.2562 4.09364 10.8248 4.09364 10.3036 4.09364H5.28211V9.75606L10.6505 9.75431ZM10.9111 20.0333C11.4305 20.0333 11.9499 19.9453 12.383 19.859C12.8162 19.771 13.2493 19.5984 13.5944 19.3361C13.9458 19.0796 14.2407 18.7536 14.4607 18.3782C14.6332 17.9433 14.8075 17.4204 14.8075 16.8112C14.8075 15.591 14.4607 14.7195 13.7687 14.1103C13.075 13.5874 12.1225 13.3268 10.9974 13.3268H5.28211V20.0351L10.9111 20.0333ZM27.6237 19.9453C28.3162 20.6425 29.3551 20.9911 30.7401 20.9911C31.6927 20.9911 32.559 20.7305 33.2509 20.2956C33.9446 19.7721 34.3778 19.2492 34.5503 18.7269H38.7936C38.0999 20.8168 37.0611 22.2976 35.6772 23.2554C34.2897 24.1269 32.6452 24.6499 30.6539 24.6499C29.3799 24.6518 28.1169 24.4153 26.93 23.9526C25.8615 23.5541 24.909 22.8958 24.1586 22.037C23.3528 21.2365 22.7581 20.2486 22.4279 19.1617C21.9947 18.0296 21.8204 16.8112 21.8204 15.4167C21.8204 14.1103 21.9947 12.8919 22.4279 11.758C22.8433 10.6656 23.4603 9.66105 24.2467 8.79648C25.0249 8.01297 25.9774 7.31749 27.0163 6.88084C28.1726 6.41654 29.4078 6.1798 30.6539 6.1836C32.1258 6.1836 33.4252 6.44594 34.5503 7.05514C35.6772 7.66435 36.5417 8.36159 37.2336 9.40745C37.9273 10.3653 38.4485 11.4974 38.7936 12.7176C38.9662 13.936 39.0524 15.1561 38.9662 16.5489H26.4106C26.4106 17.9433 26.93 19.2498 27.6237 19.947M33.0784 10.8019C32.4727 10.1927 31.5201 9.8441 30.3933 9.8441C29.7326 9.8342 29.0792 9.98335 28.4882 10.279C27.9688 10.5413 27.6237 10.89 27.2768 11.2386C26.9561 11.5739 26.7449 11.9988 26.6712 12.457C26.5831 12.8936 26.4968 13.2405 26.4968 13.5891H34.2897C34.1172 12.2827 33.684 11.4129 33.0784 10.8019ZM25.458 1.65506H35.156V4.00736H25.4598L25.458 1.65506Z" fill="#D9D9D9"/>
</svg>
