<svg width="148" height="49" viewBox="0 0 148 49" fill="none" xmlns="http://www.w3.org/2000/svg">
<path d="M0.00147778 13.1385C-0.0105162 12.6989 0.0543361 12.0784 0.0577524 11.5598C0.0597411 11.2717 0.0622566 11.0077 0.0651838 10.7618C0.128602 9.01025 0.337452 8.08971 1.06034 6.3883C1.642 4.92961 3.5824 2.26792 6.11343 1.117C8.59758 -0.124932 11.0333 0.096246 11 0.308228C11 0.308239 11 0.30825 11 0.308262C11 0.312679 10.9991 0.317148 10.9974 0.32167C10.9623 0.401016 10.208 0.523189 10.1087 0.636838C10.0112 0.751685 10.1292 1.33067 9.17667 1.53408C7.72996 1.68029 4.6885 3.39438 4.23901 4.07178C3.87144 4.44886 3.49498 4.97891 3.1355 5.53949C2.02983 7.36856 1.67827 8.53192 1.71167 10.4433C1.69679 10.5486 1.68367 10.6548 1.67235 10.7618C1.60209 11.4687 1.53183 12.1755 1.46156 12.8824C1.49939 13.9532 1.3918 15.5762 1.39772 16.2268C1.4026 16.7605 1.46711 17.0733 1.47011 17.6296C1.47384 18.2535 1.4042 19.2116 1.41469 20.3465C1.43156 22.207 1.59986 22.538 1.62123 23.6543C1.64335 24.8119 1.55188 26.6121 1.6111 28.0892C1.62961 28.2744 1.64813 28.4597 1.66664 28.6449C1.70851 28.5122 1.75038 28.3795 1.79225 28.2468C1.81174 28.9907 1.72594 29.3106 1.72438 29.9942C1.72251 30.7986 1.80386 31.2089 1.80348 31.7502C1.80311 32.1936 1.73787 32.7947 1.74196 33.3696C1.74758 34.2078 1.84177 34.0245 1.85939 34.4755C1.86493 34.6211 1.89998 36.8247 1.91358 37.7618C1.91689 37.9649 1.92513 38.1012 1.92643 38.1338C2.0212 39.4241 1.94314 39.5618 2.21898 40.5736C3.05497 43.3931 5.52443 45.6027 8.05594 46.3803C8.99126 46.6858 10.0021 46.856 11 46.8677C11.2259 46.8704 11.4505 46.8735 11.6735 46.8771C9.62544 47.207 14.1578 47.4638 12.4628 46.9475C13.9095 47.0209 14.9352 46.8816 16.3067 46.9051C17.1937 46.9205 17.8076 46.9921 19.0742 46.9902C21.3217 46.9864 23.7801 46.783 24.4265 47.1507C27.0647 47.0859 29.3498 47.2193 30.3006 46.8946C30.981 46.8748 32.7245 47.0682 33.4875 47.0945C34.2091 47.1192 39.7461 47.2065 40.6519 47.2114C41.5577 47.2163 43.1434 47.2216 43.9063 47.1931C44.8647 47.1579 45.5345 46.8211 47.2409 47.2148C49.2249 47.183 49.9318 47.1942 51.777 47.24C52.1111 47.2482 52.1489 47.3067 52.344 47.3067C52.7461 47.3067 53.4301 47.2636 54.1478 47.2583C55.328 47.2497 56.0015 47.3726 55.87 47.1848C56.648 47.1533 57.4261 47.1218 58.2042 47.0903C58.4771 47.1266 58.7501 47.1628 59.023 47.1991C59.439 47.1596 59.855 47.1201 60.271 47.0806C59.7824 47.3524 62.7103 47.192 61.7596 47.036C63.2679 47.0922 64.7762 47.1485 66.2845 47.2047C66.074 47.5136 69.5963 47.2403 69.2997 47.0724C69.4723 47.0726 69.6449 47.0729 69.8175 47.0731C71.3284 47.1552 72.716 47.0881 74.5576 47.1432C76.3992 47.1983 76.2263 47.2284 76.7863 47.3705C77.2197 47.3623 77.653 47.3542 78.0864 47.3461C80.3603 46.9565 79.9584 47.631 83.8522 47.3321C85.0963 47.577 88.163 47.4484 90.1964 47.3741C90.433 47.3655 90.437 47.318 90.7522 47.3033C91.5226 47.2681 93.4884 47.3292 93.4212 47.1759C94.1017 47.2202 94.7822 47.2646 95.4628 47.3089C96.019 47.2811 96.5752 47.2532 97.1315 47.2253C97.1286 47.1775 97.1258 47.1296 97.123 47.0818C98.2431 47.2449 100.003 47.1822 100.871 47.2212C101.044 47.2291 101.081 47.2951 101.618 47.3131C102.246 47.3345 103.416 47.3149 104.164 47.3356C104.454 47.2624 104.745 47.1893 105.036 47.1162C106.373 47.0765 106.844 47.2695 107.629 47.2845C107.77 47.2871 110.35 47.2733 110.489 47.2691C111.628 47.2365 111.305 47.0721 114.596 47.1073C115.183 47.1137 115.657 47.1705 116.186 47.1728C117.122 47.177 119.942 47.0479 120.164 46.9287C121.299 47.0779 124.336 47.0169 125.231 47.06C125.501 47.0733 125.561 47.1684 126.391 47.1886C127.064 47.2051 128.797 47.129 129.65 47.1417C130.556 47.1556 130.879 47.2354 131.285 47.2411C131.668 47.2463 132.022 47.1819 132.544 47.1822C134.175 47.1845 135.652 47.2882 136.941 47.2901C136.961 47.2902 136.98 47.2902 137 47.2902C138.769 47.2861 140.246 46.6364 141.447 45.8814C141.767 45.7198 142.089 45.5671 142.398 45.3478C144.722 43.7361 146.362 40.7963 146.347 37.7618C146.36 35.6499 146.375 33.5575 146.391 31.5635C146.41 29.2255 146.669 23.4115 146.237 24.9633C146.161 24.1508 146.336 18.243 146.338 17.1193C146.341 15.9959 146.263 15.1053 146.262 14.2223C146.261 12.9692 146.272 11.8904 146.278 10.7618C146.277 9.58485 146.091 8.32043 145.398 6.88594C145.061 6.18488 144.523 5.54607 144.245 5.19102C143.914 4.7597 143.583 4.2563 143.046 3.78086C141.829 2.53295 138.735 1.4225 137.077 1.52853C137.05 1.52804 137.024 1.52706 137 1.52565C136.736 1.51152 136.604 1.44503 136.184 1.42287C134.384 1.32764 132.366 1.3359 132.723 1.58486C130.415 1.44352 128.281 1.57244 126.142 1.58034C121.621 1.59646 113.385 1.53835 109.446 1.64296C106.962 1.70895 107.025 1.82061 103.369 1.72426C102.557 1.70289 101.749 1.67407 100.764 1.64858C98.4567 1.58859 96.3397 1.38231 94.5807 1.63088C92.0177 1.56641 89.9764 1.61213 88.0748 1.39955C87.8506 1.45054 87.6264 1.50152 87.4022 1.55251C87.088 1.55377 86.7737 1.55503 86.4595 1.55629C86.3615 1.50767 86.2635 1.45904 86.1655 1.41042C83.9144 1.39732 81.0585 1.59718 79.153 1.59572C75.9582 1.59347 67.7297 1.51583 64.7004 1.45021C63.0921 1.41537 63.0055 1.51951 62.0848 1.30544C61.725 1.32033 61.3653 1.33522 61.0056 1.35011C60.7805 1.39699 60.5554 1.44386 60.3302 1.49074C58.2669 1.49261 55.8195 1.4198 53.8538 1.42055C50.272 1.42205 44.8933 1.55106 41.2964 1.46633C40.3945 1.44496 39.2671 1.34829 38.3839 1.34938C37.0985 1.35088 36.7861 1.5113 35.1549 1.5143C32.3435 1.51917 27.1078 1.33281 24.4505 1.34706C23.6612 1.35119 23.293 1.41088 22.748 1.41725C20.4628 1.44462 18.5867 1.43976 16.3954 1.532C14.0426 1.37827 14.2459 1.17985 13.5167 0.97963C12.9641 0.828515 11.2697 0.47831 11.0292 0.345962C10.8602 0.252979 11.491 0.133369 11.2543 0.0310194C14.0732 -0.0507159 15.2574 0.039264 17.5464 0.183241C21.7734 0.177504 26.0005 0.171767 30.2276 0.16603C30.6122 0.221897 30.9967 0.277765 31.3813 0.333632C31.3813 0.333754 31.3813 0.333877 31.3813 0.333999C33.0047 0.398474 33.6927 0.254597 34.5682 0.221938C42.9497 -0.090765 59.4465 0.153978 68.6737 0.189223C70.6621 0.196719 77.1302 0.121437 78.4945 0.212172C78.8477 0.235803 78.946 0.321949 79.3218 0.325698C82.6794 0.274469 86.0369 0.22324 89.3945 0.172011C96.299 0.305865 103.437 0.195318 110.394 0.174697C119.302 0.148256 128.169 0.119119 137 0.0979465C142.695 -0.0519451 147.825 5.07963 147.691 10.7618C147.695 15.3221 147.695 19.874 147.69 24.4188C147.686 27.9969 147.751 32.5376 147.709 36.0406C147.701 36.7278 147.666 37.2267 147.642 37.7618C147.609 38.4035 147.568 39.0897 147.385 40.1609C147.344 40.1735 147.303 40.1859 147.262 40.198C146.862 41.9106 146.447 43.0359 145.201 44.6091C144.286 46.1128 140.245 48.3321 138.685 48.3112C137.917 48.4097 138.196 48.3093 137.48 48.3564C137.339 48.3628 137.177 48.3686 137 48.371C135.733 48.3892 133.637 48.4645 132.225 48.4645C130.778 48.4645 128.338 48.3842 127.226 48.3959C123.219 48.4371 118.855 48.556 114.585 48.5242C113.406 48.5151 111.889 48.4248 111.519 48.4274C110.798 48.4326 110.583 48.5203 110.098 48.5316C107.637 48.5886 103.799 48.4843 101.386 48.4802C93.5233 48.4667 85.1936 48.505 77.3646 48.4889C72.4184 48.4788 64.1988 48.4942 59.6323 48.4282C58.6475 48.414 58.91 48.3179 58.0832 48.3179C57.1663 48.3179 56.6698 48.3828 56.2414 48.388C53.2757 48.4248 46.7288 48.4904 43.9288 48.4241C43.3955 48.4113 43.0086 48.336 42.6892 48.3363C42.5276 48.3363 42.1625 48.3877 41.6551 48.3929C37.1749 48.4394 33.9083 48.4095 29.5184 48.3918C23.7336 48.3689 17.3172 48.407 11 48.4161C7.93925 48.4422 4.94885 47.0325 3.03192 44.8139C1.67672 43.2532 1.34821 41.8295 1.23666 41.583C1.02159 41.0017 0.75864 40.6604 0.516575 39.4033C0.42539 38.8831 0.37284 38.3317 0.367967 37.7618C0.333138 33.9991 0.409578 29.4573 0.365614 26.1278C0.340871 24.2488 0.2137 21.6666 0.18556 19.8175C0.163066 18.3405 0.212951 14.8525 0.157118 14.1979C0.123385 13.7997 0.0150412 13.6154 0.00147778 13.1385ZM20.4236 47.0738C20.1604 47.2471 22.9256 47.1031 21.8882 47.0101C21.6546 46.9892 20.4915 47.0289 20.4236 47.0738ZM146.24 40.4229C146.186 40.4326 146.131 40.4419 146.077 40.4508C145.999 40.7859 145.903 41.1182 145.788 41.4446C145.891 41.2775 145.989 41.1047 146.081 40.93C146.139 40.7626 146.192 40.593 146.24 40.4229Z" fill="#C69059"/>
</svg>
