<svg width="145" height="49" viewBox="0 0 145 49" fill="none" xmlns="http://www.w3.org/2000/svg">
<path d="M0.00147778 12.8443C-0.0105162 12.4118 0.0543361 11.8014 0.0577524 11.2913C0.0590587 11.1051 0.0605922 10.9292 0.0623205 10.7618C0.134405 8.85035 0.369453 7.94969 1.14449 6.2021C1.74563 4.77872 3.68995 2.19307 6.18716 1.07993C8.63936 -0.121645 11.032 0.0959572 11 0.308228C11 0.308239 11 0.30825 11 0.308262C11 0.312679 10.9991 0.317148 10.9974 0.32167C10.9629 0.401227 10.221 0.522474 10.1231 0.635594C10.0271 0.749878 10.1435 1.33038 9.20587 1.52839C7.78416 1.67091 4.77763 3.32659 4.32565 3.98534C3.95942 4.3517 3.58261 4.86838 3.22028 5.41427C2.1035 7.19609 1.73272 8.33076 1.72233 10.2112C1.69175 10.3935 1.66647 10.5758 1.64653 10.7618C1.58487 11.372 1.52322 11.9822 1.46156 12.5923C1.49939 13.6458 1.3918 15.2424 1.39772 15.8824C1.4026 16.4074 1.46711 16.7151 1.47011 17.2623C1.47384 17.8761 1.4042 18.8186 1.41469 19.935C1.43156 21.7652 1.59986 22.0909 1.62123 23.1891C1.64335 24.3278 1.55188 26.0988 1.6111 27.5518C1.62961 27.734 1.64813 27.9162 1.66664 28.0985C1.70851 27.9679 1.75038 27.8373 1.79225 27.7068C1.81174 28.4386 1.72594 28.7534 1.72438 29.4258C1.72251 30.2171 1.80386 30.6208 1.80348 31.1532C1.80311 31.5894 1.73787 32.1808 1.74196 32.7463C1.74758 33.5708 1.84177 33.3905 1.85939 33.8342C1.86624 34.0113 1.91821 37.2842 1.91896 37.4689C1.91924 37.5733 1.91878 37.6707 1.91769 37.7618C1.92928 38.793 1.84636 38.9756 2.03459 39.9127C2.64585 42.7398 4.88547 45.0944 7.29676 46.0821C8.3691 46.5442 9.5694 46.8227 10.7366 46.8733C9.7932 46.9862 10.3623 47.1885 11 47.2314C11.6454 47.2685 12.3098 47.2017 11.4887 46.9475C12.9118 47.0209 13.9209 46.8816 15.2701 46.9051C16.1427 46.9205 16.7466 46.9921 17.9926 46.9902C20.2035 46.9864 22.6219 46.783 23.2577 47.1507C25.8531 47.0859 28.101 47.2193 29.0364 46.8946C29.7057 46.8748 31.4208 47.0682 32.1714 47.0945C32.8813 47.1192 38.3282 47.2065 39.2192 47.2114C40.1103 47.2163 41.6702 47.2216 42.4207 47.1931C43.3635 47.1579 44.0224 46.8211 45.701 47.2148C47.6528 47.183 48.3481 47.1942 50.1634 47.24C50.492 47.2482 50.5292 47.3067 50.7212 47.3067C51.1167 47.3067 51.7896 47.2636 52.4956 47.2583C53.6566 47.2497 54.3191 47.3726 54.1897 47.1848C54.9551 47.1533 55.7206 47.1218 56.486 47.0903C56.7545 47.1266 57.023 47.1628 57.2915 47.1991C57.7008 47.1596 58.11 47.1201 58.5192 47.0806C58.0386 47.3524 60.9188 47.192 59.9836 47.036C61.4674 47.0922 62.9511 47.1485 64.4349 47.2047C64.2278 47.5136 67.6928 47.2403 67.401 47.0724C67.5708 47.0726 67.7406 47.0729 67.9104 47.0731C69.3967 47.1552 70.7617 47.0881 72.5734 47.1432C74.385 47.1983 74.215 47.2284 74.7659 47.3705C75.1922 47.3623 75.6185 47.3542 76.0448 47.3461C78.2817 46.9565 77.8863 47.631 81.7168 47.3321C82.9407 47.577 85.9575 47.4484 87.9578 47.3741C88.1905 47.3655 88.1945 47.318 88.5045 47.3033C89.2624 47.2681 91.1963 47.3292 91.1301 47.1759C91.7996 47.2202 92.469 47.2646 93.1385 47.3089C93.6857 47.2811 94.2328 47.2532 94.78 47.2253C94.7773 47.1775 94.7745 47.1296 94.7717 47.0818C95.8736 47.2449 97.6049 47.1822 98.459 47.2212C98.6289 47.2291 98.6656 47.2951 99.1939 47.3131C99.8114 47.3345 100.962 47.3149 101.698 47.3356C101.984 47.2624 102.27 47.1893 102.556 47.1162C103.872 47.0765 104.334 47.2695 105.107 47.2845C105.246 47.2871 107.784 47.2733 107.921 47.2691C109.04 47.2365 108.723 47.0721 111.961 47.1073C112.538 47.1137 113.004 47.1705 113.525 47.1728C114.446 47.177 117.22 47.0479 117.438 46.9287C118.554 47.0779 121.542 47.0169 122.422 47.06C122.688 47.0733 122.748 47.1684 123.564 47.1886C124.226 47.2051 125.93 47.129 126.769 47.1417C127.66 47.1556 127.979 47.2354 128.378 47.2411C128.755 47.2463 129.103 47.1819 129.617 47.1822C131.221 47.1845 132.674 47.2882 133.942 47.2901C133.961 47.2902 133.981 47.2902 134 47.2902C135.74 47.2861 137.194 46.6517 138.381 45.9174C138.697 45.7612 139.015 45.6144 139.321 45.4018C141.686 43.7983 143.365 40.8258 143.349 37.7618C143.361 35.7711 143.376 33.8009 143.391 31.9199C143.41 29.6199 143.669 23.9005 143.237 25.427C143.161 24.6277 143.336 18.8161 143.338 17.7106C143.341 16.6055 143.263 15.7294 143.262 14.8608C143.26 13.3739 143.277 12.1366 143.28 10.7618C143.279 9.78756 143.139 8.72882 142.67 7.53873C142.392 6.82525 141.913 6.1588 141.669 5.78866C141.377 5.33977 141.095 4.81924 140.606 4.30927C139.515 2.98981 136.583 1.62798 134.952 1.57668C134.662 1.54656 134.563 1.4577 134.139 1.42388C134.093 1.42057 134.046 1.41767 134 1.41519C132.268 1.32828 130.401 1.3428 130.743 1.58486C128.473 1.44352 126.373 1.57244 124.269 1.58034C119.821 1.59646 111.719 1.53835 107.844 1.64296C105.401 1.70895 105.463 1.82061 101.866 1.72426C101.068 1.70289 100.273 1.67407 99.3042 1.64858C97.034 1.58859 94.9514 1.38231 93.221 1.63088C90.6997 1.56641 88.6917 1.61213 86.8209 1.39955C86.6004 1.45054 86.3799 1.50152 86.1593 1.55251C85.8502 1.55377 85.5411 1.55503 85.232 1.55629C85.1355 1.50767 85.0391 1.45904 84.9427 1.41042C82.7283 1.39732 79.9188 1.59718 78.0443 1.59572C74.9015 1.59347 66.8069 1.51583 63.8268 1.45021C62.2447 1.41537 62.1595 1.51951 61.2537 1.30544C60.8999 1.32033 60.546 1.33522 60.1921 1.35011C59.9707 1.39699 59.7492 1.44386 59.5278 1.49074C57.4979 1.49261 55.0904 1.4198 53.1567 1.42055C49.6331 1.42205 44.342 1.55106 40.8036 1.46633C39.9163 1.44496 38.8073 1.34829 37.9385 1.34938C36.674 1.35088 36.3666 1.5113 34.7619 1.5143C31.9963 1.51917 26.8457 1.33281 24.2317 1.34706C23.4553 1.35119 23.093 1.41088 22.5569 1.41725C20.3089 1.44462 18.4632 1.43976 16.3077 1.532C13.9931 1.37827 14.1931 1.17985 13.4758 0.97963C12.9322 0.828515 11.2653 0.47831 11.0287 0.345962C10.8625 0.252979 11.4831 0.133369 11.2501 0.0310194C14.0232 -0.0507159 15.1882 0.039264 17.4399 0.183241C21.5982 0.177504 25.7565 0.171767 29.9148 0.16603C30.2931 0.221897 30.6715 0.277765 31.0498 0.333632C31.0498 0.333754 31.0498 0.333877 31.0498 0.333999C32.6467 0.398474 33.3235 0.254597 34.1848 0.221938C42.43 -0.090765 58.6584 0.153978 67.7355 0.189223C69.6915 0.196719 76.0544 0.121437 77.3966 0.212172C77.744 0.235803 77.8407 0.321949 78.2104 0.325698C81.5134 0.274469 84.8163 0.22324 88.1192 0.172011C94.9113 0.305865 101.933 0.195318 108.777 0.174697C117.221 0.14922 125.627 0.12124 134 0.100293C139.694 -0.0501326 144.824 5.08026 144.69 10.7618C144.695 15.4803 144.696 20.1898 144.69 24.8914C144.686 28.4113 144.751 32.8781 144.709 36.3241C144.702 36.89 144.677 37.326 144.655 37.7618C144.612 38.4761 144.559 39.1872 144.331 40.3872C144.289 40.3984 144.248 40.4095 144.207 40.4205C143.777 42.0982 143.351 43.1949 142.102 44.7251C141.18 46.1876 137.19 48.3367 135.658 48.3155C134.902 48.4105 135.176 48.3111 134.472 48.3567C134.333 48.363 134.175 48.3686 134 48.371C132.753 48.3892 130.691 48.4645 129.302 48.4645C127.879 48.4645 125.479 48.3842 124.385 48.3959C120.443 48.4371 116.15 48.556 111.95 48.5242C110.79 48.5151 109.297 48.4248 108.934 48.4274C108.224 48.4326 108.013 48.5203 107.536 48.5316C105.114 48.5886 101.339 48.4843 98.9656 48.4802C91.2306 48.4667 83.0364 48.505 75.3347 48.4889C70.469 48.4788 62.3831 48.4942 57.8908 48.4282C56.9221 48.414 57.1804 48.3179 56.3669 48.3179C55.465 48.3179 54.9766 48.3828 54.5551 48.388C51.6377 48.4248 45.1972 48.4904 42.4428 48.4241C41.9181 48.4113 41.5376 48.336 41.2234 48.3363C41.0644 48.3363 40.7052 48.3877 40.2061 48.3929C35.7988 48.4394 32.5854 48.4095 28.2668 48.3918C22.866 48.37 16.9056 48.4032 11 48.4145C7.64242 48.4503 4.37678 46.7383 2.48551 44.1443C1.28081 42.5065 1.06712 41.0857 0.976042 40.8349C0.808221 40.2488 0.574929 39.8938 0.426575 38.6454C0.397241 38.3579 0.379959 38.0647 0.375999 37.7618C0.322954 33.9373 0.412368 29.1054 0.365614 25.6223C0.340871 23.7738 0.2137 21.2337 0.18556 19.4146C0.163066 17.9617 0.212951 14.5304 0.157118 13.8865C0.123385 13.4947 0.0150412 13.3134 0.00147778 12.8443ZM19.32 47.0738C19.0611 47.2471 21.7813 47.1031 20.7608 47.0101C20.531 46.9892 19.3869 47.0289 19.32 47.0738ZM143.182 40.6159C143.128 40.6241 143.073 40.632 143.019 40.6394C142.936 40.9679 142.835 41.2922 142.716 41.6117C142.821 41.4484 142.921 41.2826 143.016 41.1116C143.076 40.948 143.131 40.783 143.182 40.6159Z" fill="#C69059"/>
</svg>
