<svg width="116" height="49" viewBox="0 0 116 49" fill="none" xmlns="http://www.w3.org/2000/svg">
<path d="M0.00186992 9.91702C0.0181629 9.51823 0.157138 8.96557 0.2583 8.50987C0.733857 6.60561 1.11414 5.94159 2.10426 4.49164C2.83018 3.41596 4.73294 1.52618 6.88383 0.750381C9.00784 -0.0915442 10.989 0.0930768 10.9684 0.308197C10.9684 0.308209 10.9684 0.30822 10.9684 0.308231C10.9684 0.312649 10.9677 0.317118 10.9662 0.321639C10.9369 0.403066 10.3149 0.51612 10.2316 0.624555C10.15 0.733822 10.2503 1.3279 9.45894 1.47793C8.27573 1.58919 5.64248 2.72157 5.18846 3.20733C4.84587 3.47524 4.48011 3.86887 4.11 4.27598C2.95079 5.60962 2.45046 6.46008 2.0913 8.00147C1.82654 8.57862 1.61885 9.19112 1.47513 9.82708C1.46044 10.1051 1.43883 10.4296 1.42916 10.7618C1.40907 11.4639 1.36214 12.184 1.36611 12.5439C1.37098 12.9848 1.43549 13.2432 1.43849 13.7027C1.44222 14.2181 1.37258 15.0096 1.38307 15.947C1.39995 17.4839 1.56824 17.7574 1.58962 18.6795C1.61173 19.6357 1.52026 21.1228 1.57948 22.343C1.598 22.496 1.61651 22.649 1.63503 22.8021C1.6769 22.6924 1.71877 22.5828 1.76064 22.4731C1.78013 23.0877 1.69432 23.352 1.69277 23.9167C1.69089 24.5811 1.77224 24.9201 1.77187 25.3672C1.77149 25.7334 1.70626 26.23 1.71034 26.705C1.71597 27.3973 1.81015 27.2459 1.82778 27.6185C1.83462 27.7672 1.8866 30.5155 1.88735 30.6706C1.89106 31.8498 1.76214 31.9525 1.75087 32.8929C1.73174 34.5159 1.76485 36.1657 1.80209 37.7618C1.8243 38.6533 1.97745 39.5124 2.22321 40.3045C2.51131 41.2411 2.95096 42.1731 3.49787 42.9862C2.93294 42.434 3.05362 42.9049 3.3287 43.3553C3.60681 43.8032 4.01834 44.1677 3.79973 43.5058C4.44343 44.4064 5.13335 44.8323 5.97533 45.4228C6.53106 45.7927 6.90548 46.0957 7.81096 46.4361C8.90607 46.8422 10.1456 46.9027 10.9684 46.9471C11.3971 46.9727 11.726 47.0319 11.8986 47.1507C14.0779 47.0859 15.9655 47.2193 16.751 46.8946C17.313 46.8748 18.7532 47.0682 19.3835 47.0944C19.9796 47.1192 24.5536 47.2065 25.3018 47.2114C26.0501 47.2163 27.3599 47.2216 27.9901 47.1931C28.7818 47.1578 29.3351 46.8211 30.7447 47.2148C32.3836 47.1829 32.9676 47.1942 34.4918 47.2399C34.7678 47.2482 34.799 47.3067 34.9602 47.3067C35.2924 47.3067 35.8574 47.2635 36.4503 47.2583C37.4252 47.2496 37.9815 47.3726 37.8729 47.1848C38.5156 47.1533 39.1583 47.1218 39.8011 47.0903C40.0265 47.1265 40.252 47.1628 40.4775 47.1991C40.8211 47.1595 41.1648 47.12 41.5084 47.0805C41.1048 47.3523 43.5234 47.1919 42.7381 47.036C43.9841 47.0922 45.23 47.1484 46.476 47.2047C46.3021 47.5136 49.2117 47.2403 48.9667 47.0723C49.1093 47.0726 49.2518 47.0728 49.3944 47.0731C50.6425 47.1552 51.7887 47.088 53.3101 47.1431C54.8313 47.1983 54.6885 47.2283 55.1511 47.3704C55.5091 47.3623 55.8671 47.3542 56.225 47.346C58.1034 46.9565 57.7714 47.6309 60.988 47.3321C62.0157 47.5769 64.549 47.4483 66.2287 47.3741C66.4241 47.3655 66.4275 47.318 66.6878 47.3033C67.3242 47.2681 68.9481 47.3291 68.8926 47.1759C69.4547 47.2202 70.0169 47.2646 70.579 47.3089C71.0385 47.281 71.498 47.2532 71.9575 47.2253C71.9551 47.1774 71.9528 47.1296 71.9505 47.0817C72.8757 47.2448 74.3296 47.1822 75.0468 47.2211C75.1895 47.229 75.2203 47.2951 75.6639 47.3131C76.1824 47.3344 77.1486 47.3149 77.7665 47.3355C78.0067 47.2624 78.2469 47.1893 78.4871 47.1162C79.5919 47.0765 79.9803 47.2695 80.6291 47.2845C80.746 47.2871 82.8772 47.2732 82.992 47.2691C83.9321 47.2365 83.6658 47.072 86.3847 47.1073C86.8689 47.1136 87.2604 47.1705 87.698 47.1728C88.4711 47.1769 90.8006 47.0479 90.9838 46.9287C91.9214 47.0779 94.4301 47.0169 95.1691 47.06C95.3921 47.0733 95.4424 47.1683 96.1279 47.1886C96.6837 47.205 98.1149 47.1289 98.8198 47.1417C99.5679 47.1555 99.8351 47.2354 100.17 47.241C100.487 47.2463 100.779 47.1818 101.211 47.1822C102.558 47.1845 103.778 47.2882 104.843 47.2901C104.859 47.2901 104.875 47.2902 104.891 47.2901C106.352 47.2867 107.578 46.7858 108.615 46.2381C108.891 46.1303 109.171 46.0369 109.444 45.8843C112.221 44.3967 114.292 41.0818 114.261 37.7618C114.268 36.9522 114.275 36.1539 114.283 35.3739C114.302 33.4426 114.561 28.6398 114.128 29.9217C114.053 29.2505 114.227 24.3703 114.23 23.4421C114.232 22.5141 114.155 21.7784 114.154 21.049C114.15 18.8477 114.206 17.2976 114.139 14.6182C114.121 13.9261 114.029 13.1846 114.03 12.7748C114.032 12.2812 114.12 11.7499 114.126 11.1104C114.127 11.0007 114.128 10.8842 114.128 10.7618C114.205 9.28539 113.477 6.99807 112.775 5.95226C112.648 5.74137 112.668 5.62506 112.482 5.31935C111.764 4.10599 110.463 3.15408 110.538 3.52681C109.232 2.33008 107.581 1.82359 105.985 1.64465C105.647 1.60625 105.282 1.58277 104.891 1.58314C101.037 1.58653 95.2227 1.54867 92.2906 1.64293C90.239 1.70892 90.2915 1.82058 87.2708 1.72423C86.6003 1.70286 85.9327 1.67404 85.1194 1.64855C83.2131 1.58856 81.4643 1.38228 80.0113 1.63085C77.8941 1.56638 76.2079 1.6121 74.637 1.39952C74.4518 1.45051 74.2666 1.50149 74.0814 1.55248C73.8218 1.55374 73.5623 1.555 73.3027 1.55626C73.2217 1.50764 73.1407 1.45901 73.0598 1.41039C71.2003 1.39729 68.8411 1.59715 67.267 1.59569C64.628 1.59344 57.8307 1.5158 55.3283 1.45018C53.9997 1.41534 53.9282 1.51948 53.1676 1.30541C52.8705 1.3203 52.5733 1.33519 52.2761 1.35008C52.0902 1.39696 51.9042 1.44383 51.7183 1.49071C50.0138 1.49258 47.9921 1.41977 46.3683 1.42052C43.4095 1.42202 38.9664 1.55103 35.9951 1.4663C35.2501 1.44493 34.3188 1.34826 33.5892 1.34935C32.5274 1.35085 32.2693 1.51127 30.9218 1.51427C28.5995 1.51914 24.2744 1.33278 22.0793 1.34703C21.4274 1.35116 21.1232 1.41085 20.673 1.41722C18.7853 1.44459 17.2354 1.43973 15.4254 1.53197C13.4818 1.37824 13.6497 1.17982 13.0474 0.9796C12.5909 0.828485 11.1912 0.478279 10.9925 0.345931C10.8529 0.252949 11.374 0.133338 11.1784 0.0309889C13.507 -0.0507464 14.4853 0.0392334 16.3761 0.183211C19.8679 0.177474 23.3598 0.171736 26.8516 0.165999C27.1693 0.221867 27.487 0.277734 27.8046 0.333602C27.8046 0.333724 27.8046 0.333846 27.8046 0.333968C29.1456 0.398443 29.714 0.254566 30.4372 0.221907C37.3609 -0.0907955 50.9882 0.153948 58.6105 0.189192C60.253 0.196688 65.5961 0.121407 66.7231 0.212142C67.0149 0.235772 67.0961 0.321918 67.4065 0.325667C70.1801 0.274438 72.9536 0.223209 75.7272 0.17198C81.4307 0.305834 87.327 0.195288 93.074 0.174666C97.0228 0.160478 100.962 0.145513 104.891 0.131419C110.573 -0.0243997 115.696 5.09013 115.57 10.7618C115.584 17.0174 115.59 23.2529 115.582 29.4719C115.578 31.9982 115.625 35.1055 115.612 37.7618C115.61 38.2472 115.574 38.714 115.51 39.1611C115.287 40.4371 115.055 40.9317 114.438 42.5014C114.397 42.5008 114.356 42.4999 114.315 42.4988C113.676 43.8059 113.177 44.6461 111.959 45.773C111.013 46.8525 107.556 48.3747 106.285 48.3532C105.647 48.4183 105.88 48.3275 105.288 48.3597C105.171 48.3642 105.038 48.3686 104.891 48.371C103.845 48.3892 102.113 48.4644 100.947 48.4644C99.7513 48.4644 97.7362 48.3842 96.8172 48.3958C93.5075 48.4371 89.9024 48.556 86.3754 48.5241C85.4011 48.5151 84.1479 48.4248 83.8428 48.4273C83.2468 48.4326 83.0693 48.5203 82.6689 48.5316C80.6354 48.5886 77.4655 48.4843 75.4722 48.4802C68.9769 48.4667 62.0961 48.505 55.6288 48.4888C51.5429 48.4787 44.753 48.4942 40.9808 48.4282C40.1673 48.4139 40.3842 48.3178 39.7011 48.3178C38.9438 48.3178 38.5336 48.3828 38.1797 48.388C35.7298 48.4248 30.3217 48.4904 28.0087 48.424C27.5682 48.4113 27.2486 48.336 26.9848 48.3363C26.8513 48.3363 26.5496 48.3876 26.1305 48.3929C22.4296 48.4394 19.7312 48.4094 16.1048 48.3918C14.447 48.3838 12.7265 48.3832 10.9684 48.3862C5.41182 48.5968 0.103493 43.3671 0.319543 37.7618C0.321746 37.2777 0.324504 36.7962 0.327895 36.3181C0.339143 34.7284 0.488086 33.6382 0.486586 33.4147C0.483582 32.9242 0.383402 32.6102 0.358656 31.6167C0.277319 28.3134 0.38422 23.8646 0.333998 20.7228C0.309255 19.1705 0.182084 17.0375 0.153944 15.51C0.13145 14.29 0.181335 11.4087 0.125502 10.8679C0.121661 10.8305 0.116854 10.7953 0.111329 10.7618C0.0698174 10.4775 -0.0136294 10.303 0.00186992 9.91702ZM8.77477 46.8141C8.52894 46.9817 10.6783 47.1489 9.89043 46.948C9.71446 46.9187 8.83549 46.7929 8.77477 46.8141ZM113.307 42.4114C113.254 42.4051 113.201 42.3984 113.148 42.3914C113.027 42.6489 112.894 42.9018 112.749 43.1489C112.865 43.0333 112.977 42.9145 113.088 42.7919C113.164 42.6667 113.237 42.54 113.307 42.4114Z" fill="#C69059"/>
</svg>
