<svg width="65" height="65" viewBox="0 0 65 65" fill="none" xmlns="http://www.w3.org/2000/svg">
<path d="M9.98865 13.2031L14.0862 59.1566L32.472 64.2601L50.9092 59.15L55.0113 13.2031H9.98865ZM45.1343 38.8416L43.941 49.9586L43.9456 50.9107L32.5 54.1074V54.1079L32.4908 54.1155L20.9538 50.9544L20.1733 42.1484H25.8309L26.232 46.5999L32.502 48.2732L32.5 48.2808V48.2645L38.7938 46.4897L39.458 39.1016H26.3021L26.1894 37.9057L25.9324 35.038L25.7979 33.5156H39.9587L40.4736 27.9297H18.9053L18.7921 26.615L18.5351 23.5529L18.4006 21.8359H46.6334L46.4978 23.529L45.1343 38.8416ZM45.1953 7.2993L41.5649 3.04688H45.1953V0.507812H37.0703V2.7234L41.3308 6.60156H37.0703V9.14062H45.1953V7.2993ZM35.5469 7.2993L32.0902 3.04688H35.5469V0.507812H27.9297V2.7234L31.8566 6.60156H27.9297V9.14062H35.5469V7.2993ZM26.4062 6.60156H22.3437V3.04688H26.4062V0.507812H19.2969V9.14062H26.4062V6.60156Z" fill="#1572B6"/>
</svg>
