<svg width="64" height="66" viewBox="0 0 64 66" fill="none" xmlns="http://www.w3.org/2000/svg">
<path d="M22.75 65.5078C28.7 65.5078 33.5 60.6328 33.5 54.5898V43.6719H22.75C16.8 43.6719 12 48.5469 12 54.5898C12 60.6328 16.8 65.5078 22.75 65.5078Z" fill="#0ACF83"/>
<path d="M12 32.7539C12 26.7109 16.8 21.8359 22.75 21.8359H33.5V43.6719H22.75C16.8 43.6719 12 38.7969 12 32.7539Z" fill="#A259FF"/>
<path d="M12 10.918C12 4.875 16.8 0 22.75 0H33.5V21.8359H22.75C16.8 21.8359 12 16.9609 12 10.918Z" fill="#F24E1E"/>
<path d="M33.5 0H44.25C50.2 0 55 4.875 55 10.918C55 16.9609 50.2 21.8359 44.25 21.8359H33.5V0Z" fill="#FF7262"/>
<path d="M55 32.7539C55 38.7969 50.2 43.6719 44.25 43.6719C38.3 43.6719 33.5 38.7969 33.5 32.7539C33.5 26.7109 38.3 21.8359 44.25 21.8359C50.2 21.8359 55 26.7109 55 32.7539Z" fill="#1ABCFE"/>
</svg>
