<svg width="64" height="65" viewBox="0 0 64 65" fill="none" xmlns="http://www.w3.org/2000/svg">
<path fill-rule="evenodd" clip-rule="evenodd" d="M32 0.767822C20.2535 0.767822 10.7275 10.4401 10.7275 22.3727C10.7275 31.9181 16.8225 40.0167 25.275 42.8731C26.338 43.0732 26.7285 42.4044 26.7285 41.8336C26.7285 41.3187 26.7085 39.6165 26.6995 37.8117C20.781 39.1183 19.5325 35.2625 19.5325 35.2625C18.565 32.7651 17.1705 32.1009 17.1705 32.1009C15.2405 30.7602 17.3155 30.7877 17.3155 30.7877C19.452 30.94 20.577 33.0144 20.577 33.0144C22.474 36.3172 25.5535 35.362 26.767 34.8101C26.9585 33.4136 27.5095 32.4599 28.118 31.9206C23.393 31.3747 18.426 29.5217 18.426 21.2433C18.426 18.8845 19.257 16.9574 20.618 15.4441C20.397 14.8997 19.669 12.7019 20.824 9.72614C20.824 9.72614 22.61 9.14622 26.674 11.9417C28.3715 11.4629 30.1915 11.2227 31.999 11.2145C33.807 11.2232 35.628 11.4634 37.328 11.9417C41.388 9.14673 43.172 9.72665 43.172 9.72665C44.33 12.7024 43.602 14.8997 43.381 15.4446C44.745 16.9569 45.57 18.8845 45.57 21.2438C45.57 29.5415 40.5935 31.3686 35.8565 31.9028C36.6195 32.5731 37.2995 33.8884 37.2995 35.9044C37.2995 38.7949 37.2755 41.1211 37.2755 41.8326C37.2755 42.4064 37.6585 43.0808 38.7365 42.8685C47.1845 40.0085 53.2715 31.913 53.2715 22.3707C53.2725 10.4406 43.7485 0.767822 32 0.767822Z" fill="white"/>
<path d="M18.7851 31.787C18.7376 31.8947 18.5711 31.9266 18.4201 31.853C18.2651 31.7819 18.1791 31.6362 18.2291 31.528C18.2741 31.4183 18.4411 31.3873 18.5956 31.461C18.7506 31.5321 18.8386 31.6793 18.7856 31.787H18.7851ZM19.6466 32.764C19.5451 32.859 19.3466 32.8148 19.2116 32.6635C19.0726 32.5127 19.0466 32.3111 19.1496 32.2146C19.2536 32.1191 19.4461 32.1638 19.5846 32.3146C19.7246 32.467 19.7521 32.6665 19.6461 32.7635L19.6466 32.764ZM20.4851 34.0072C20.3551 34.0996 20.1416 34.0132 20.0101 33.8208C19.8791 33.6293 19.8791 33.3993 20.0126 33.3064C20.1446 33.2139 20.3546 33.2972 20.4876 33.4877C20.6186 33.6832 20.6186 33.9142 20.4851 34.0077V34.0072ZM21.6341 35.2097C21.5176 35.3402 21.2691 35.3051 21.0876 35.1269C20.9016 34.9527 20.8501 34.7054 20.9666 34.5749C21.0851 34.4444 21.3346 34.4809 21.5176 34.6577C21.7026 34.8313 21.7586 35.0791 21.6341 35.2091V35.2097ZM23.2201 35.9074C23.1681 36.077 22.9291 36.1537 22.6881 36.0821C22.4471 36.0079 22.2901 35.8099 22.3381 35.6393C22.3881 35.4686 22.6291 35.3889 22.8716 35.4656C23.1116 35.5387 23.2691 35.7347 23.2196 35.9074H23.2201ZM24.9601 36.0369C24.9666 36.2146 24.7621 36.3629 24.5091 36.3659C24.2551 36.372 24.0491 36.2278 24.0461 36.0521C24.0461 35.8723 24.2461 35.7261 24.5001 35.722C24.7531 35.717 24.9601 35.8602 24.9601 36.0369ZM26.5801 35.7571C26.6101 35.9307 26.4351 36.1095 26.1836 36.1567C25.9366 36.2034 25.7086 36.0958 25.6766 35.9231C25.6466 35.7454 25.8251 35.5677 26.0716 35.5209C26.3231 35.4763 26.5481 35.5809 26.5801 35.7576V35.7571Z" fill="white"/>
<path d="M12.4274 54.9971H7.07744C7.01114 54.9971 6.94755 55.0239 6.90066 55.0715C6.85378 55.1191 6.82744 55.1837 6.82744 55.251V57.9079C6.82744 57.9752 6.85378 58.0398 6.90066 58.0874C6.94755 58.1351 7.01114 58.1618 7.07744 58.1618H9.16394V61.4626C9.16394 61.4626 8.69544 61.6251 7.39894 61.6251C5.87094 61.6251 3.73544 61.0584 3.73544 56.289C3.73544 51.5191 5.95944 50.891 8.04744 50.891C9.85444 50.891 10.6324 51.2139 11.1284 51.3698C11.2834 51.4175 11.4284 51.2601 11.4284 51.12L12.0249 48.553C12.0259 48.5145 12.0177 48.4764 12.001 48.442C11.9842 48.4075 11.9595 48.3776 11.9289 48.3549C11.7274 48.2087 10.5004 47.512 7.39994 47.512C3.82794 47.512 0.16394 49.0547 0.16394 56.4749C0.16394 63.894 4.35894 64.9995 7.89394 64.9995C10.8209 64.9995 12.5964 63.729 12.5964 63.729C12.6694 63.6883 12.6774 63.5842 12.6774 63.536V55.2505C12.6774 55.1832 12.6511 55.1186 12.6042 55.071C12.5573 55.0234 12.4937 54.9966 12.4274 54.9966V54.9971ZM39.7529 48.1457H36.7399C36.7071 48.1458 36.6745 48.1526 36.6442 48.1655C36.6139 48.1784 36.5864 48.1973 36.5633 48.221C36.5401 48.2447 36.5218 48.2728 36.5094 48.3037C36.497 48.3347 36.4907 48.3678 36.4909 48.4011L36.4919 54.3141H31.7959V48.4011C31.7961 48.3678 31.7899 48.3347 31.7775 48.3039C31.7651 48.273 31.7468 48.2449 31.7238 48.2212C31.7007 48.1974 31.6732 48.1786 31.643 48.1656C31.6127 48.1527 31.5803 48.1459 31.5474 48.1457H28.5349C28.5021 48.1458 28.4695 48.1526 28.4392 48.1655C28.4089 48.1784 28.3814 48.1973 28.3583 48.221C28.3351 48.2447 28.3169 48.2728 28.3044 48.3037C28.292 48.3347 28.2857 48.3678 28.2859 48.4011V64.4125C28.2859 64.5531 28.3979 64.6679 28.5349 64.6679H31.5474C31.5803 64.6677 31.6128 64.6609 31.6431 64.6479C31.6734 64.635 31.7009 64.6161 31.724 64.5923C31.747 64.5685 31.7653 64.5403 31.7776 64.5094C31.79 64.4785 31.7962 64.4454 31.7959 64.412V57.5636H36.4919L36.4839 64.412C36.4839 64.5531 36.5959 64.6679 36.7339 64.6679H39.7529C39.7858 64.6677 39.8183 64.6609 39.8486 64.6479C39.8789 64.635 39.9064 64.6161 39.9294 64.5923C39.9525 64.5685 39.9708 64.5403 39.9831 64.5094C39.9955 64.4785 40.0017 64.4454 40.0014 64.412V48.4006C40.0018 48.3673 39.9956 48.3342 39.9832 48.3033C39.9709 48.2724 39.9526 48.2442 39.9295 48.2205C39.9064 48.1968 39.8789 48.178 39.8486 48.1652C39.8183 48.1523 39.7858 48.1457 39.7529 48.1457ZM16.1699 48.5098C15.0979 48.5098 14.2279 49.4 14.2279 50.502C14.2279 51.6024 15.0979 52.4951 16.1699 52.4951C17.2429 52.4951 18.1124 51.6024 18.1124 50.502C18.1124 49.4 17.2424 48.5098 16.1699 48.5098ZM17.6479 53.3889H14.6449C14.5069 53.3889 14.3839 53.5331 14.3839 53.6733V64.2622C14.3839 64.5734 14.5749 64.6659 14.8219 64.6659H17.5269C17.8244 64.6659 17.8969 64.5176 17.8969 64.2571V53.6443C17.8971 53.611 17.8907 53.5779 17.8783 53.5471C17.8658 53.5162 17.8475 53.4881 17.8244 53.4645C17.8013 53.4408 17.7738 53.422 17.7435 53.4091C17.7133 53.3962 17.6808 53.3895 17.6479 53.3894V53.3889ZM51.4509 53.4127H48.4609C48.4281 53.413 48.3956 53.4198 48.3654 53.4328C48.3352 53.4459 48.3078 53.4648 48.2847 53.4885C48.2617 53.5123 48.2435 53.5405 48.2312 53.5714C48.2189 53.6023 48.2127 53.6353 48.2129 53.6687V61.5195C48.2129 61.5195 47.4529 62.0831 46.3754 62.0831C45.2979 62.0831 45.0119 61.587 45.0119 60.515V53.6687C45.0122 53.6353 45.006 53.6022 44.9936 53.5712C44.9813 53.5403 44.963 53.5121 44.9399 53.4884C44.9169 53.4646 44.8894 53.4457 44.8591 53.4327C44.8288 53.4197 44.7963 53.4129 44.7634 53.4127H41.7294C41.663 53.4133 41.5996 53.4405 41.5529 53.4885C41.5062 53.5365 41.4802 53.6012 41.4804 53.6687V61.033C41.4804 64.217 43.2279 64.9959 45.6314 64.9959C47.6034 64.9959 49.1934 63.8889 49.1934 63.8889C49.1934 63.8889 49.2684 64.4729 49.3034 64.5415C49.3384 64.6105 49.4269 64.6801 49.5234 64.6801L51.4534 64.6715C51.4864 64.6713 51.519 64.6646 51.5494 64.6517C51.5798 64.6387 51.6074 64.6198 51.6306 64.5961C51.6538 64.5723 51.6722 64.5441 51.6847 64.5131C51.6972 64.4822 51.7036 64.449 51.7034 64.4155L51.7019 53.6672C51.7017 53.5998 51.6753 53.5353 51.6285 53.4876C51.5817 53.4398 51.5182 53.4128 51.4519 53.4122L51.4509 53.4127ZM59.6219 53.0532C57.9239 53.0532 56.7689 53.8225 56.7689 53.8225V48.4006C56.7691 48.3673 56.7629 48.3342 56.7505 48.3034C56.7381 48.2725 56.7198 48.2444 56.6968 48.2207C56.6737 48.1969 56.6462 48.1781 56.616 48.1651C56.5857 48.1522 56.5533 48.1454 56.5204 48.1452H53.4999C53.467 48.1452 53.4343 48.1518 53.4039 48.1647C53.3735 48.1775 53.3459 48.1964 53.3226 48.2201C53.2994 48.2439 53.281 48.272 53.2685 48.303C53.2561 48.334 53.2497 48.3672 53.2499 48.4006V64.412C53.2497 64.4454 53.2561 64.4786 53.2685 64.5096C53.281 64.5406 53.2994 64.5687 53.3226 64.5925C53.3459 64.6162 53.3735 64.6351 53.4039 64.6479C53.4343 64.6608 53.467 64.6674 53.4999 64.6674H55.5959C55.6909 64.6674 55.7619 64.6181 55.8144 64.5313C55.8659 64.445 55.9414 63.7929 55.9414 63.7929C55.9414 63.7929 57.1764 64.9812 59.5154 64.9812C62.2604 64.9812 63.8354 63.5675 63.8354 58.6325C63.8354 53.6976 61.3204 53.0527 59.6214 53.0527L59.6219 53.0532ZM58.4419 62.074C57.4054 62.042 56.7019 61.5642 56.7019 61.5642V56.4936C56.7019 56.4936 57.3959 56.062 58.2469 55.9838C59.3234 55.8858 60.3609 56.2164 60.3609 58.8245C60.3609 61.5753 59.8934 62.1182 58.4424 62.0735L58.4419 62.074ZM26.5974 62.0141C26.4659 62.0141 26.1289 62.0684 25.7824 62.0684C24.6724 62.0684 24.2959 61.5443 24.2959 60.8659V56.3636H26.5559C26.5889 56.3636 26.6216 56.357 26.6521 56.3441C26.6825 56.3312 26.7102 56.3124 26.7334 56.2886C26.7567 56.2648 26.775 56.2365 26.7875 56.2055C26.7999 56.1745 26.8062 56.1412 26.8059 56.1077V53.6418C26.8061 53.6083 26.7997 53.5752 26.7872 53.5443C26.7747 53.5134 26.7563 53.4853 26.7331 53.4616C26.7098 53.4379 26.6822 53.4191 26.6518 53.4063C26.6214 53.3934 26.5889 53.3868 26.5559 53.3868H24.2959L24.2924 50.3552C24.2924 50.2399 24.2344 50.1825 24.1034 50.1825H21.0234C20.9044 50.1825 20.8399 50.2364 20.8399 50.3527V53.4859C20.8399 53.4859 19.2964 53.8642 19.1924 53.8947C19.1405 53.91 19.0949 53.9421 19.0624 53.9861C19.03 54.03 19.0124 54.0835 19.0124 54.1384V56.1072C19.0122 56.1405 19.0185 56.1736 19.0309 56.2045C19.0433 56.2354 19.0615 56.2635 19.0846 56.2872C19.1077 56.3109 19.1351 56.3298 19.1654 56.3427C19.1956 56.3557 19.2281 56.3624 19.2609 56.3626H20.8399V61.0995C20.8399 64.6186 23.2699 64.964 24.9099 64.964C25.6584 64.964 26.5549 64.7202 26.7029 64.6643C26.7929 64.6303 26.8444 64.5364 26.8444 64.4343L26.8464 62.2685C26.8454 62.2014 26.8188 62.1373 26.7721 62.0897C26.7255 62.0422 26.6625 62.0149 26.5964 62.0136L26.5974 62.0141Z" fill="white"/>
</svg>
