<svg width="65" height="65" viewBox="0 0 65 65" fill="none" xmlns="http://www.w3.org/2000/svg">
<path d="M9.93738 13.7109L14.0441 59.3729L32.4721 64.2895L50.9514 59.4658L55.0626 13.7109H9.93738ZM46.5207 24.1063L46.2632 27.0689L46.15 28.4375H24.5329L25.0494 34.5312H45.6361L45.4985 35.6641L44.1705 50.3445L44.073 51.2027L32.5 54.3176V54.3151L32.4863 54.3212L20.9198 51.317L20.1348 42.6562H25.806L26.2077 46.9523L32.4969 48.5463L32.5 48.4275V48.4336L38.803 47.0884L39.4611 40.1171H19.8824L18.494 24.4582L18.3584 22.8515H46.6558L46.5207 24.1063ZM14.1964 0.826172H17.0513V3.64758H19.6635V0.826172H22.5189V9.36859H19.6635V6.50809H17.0518V9.36859H14.1964V0.826172ZM26.2732 3.65926H23.7595V0.826172H31.6433V3.65926H29.1286V9.36859H26.2732V3.65926ZM32.8946 0.826172H35.8714L37.703 3.82785L39.5327 0.826172H42.511V9.36859H39.6667V5.13445L37.703 8.17168H37.6533L35.688 5.13445V9.36859H32.8941L32.8946 0.826172ZM43.9324 0.826172H46.7883V6.54516H50.8036V9.3691H43.9324V0.826172Z" fill="#E44D26"/>
</svg>
