<svg width="64" height="65" viewBox="0 0 64 65" fill="none" xmlns="http://www.w3.org/2000/svg">
<path fill-rule="evenodd" clip-rule="evenodd" d="M0.5 0.507812V64.3866C1 64.4282 0.995 64.5059 1.1795 64.5059C19.314 64.5115 37.512 64.5115 55.6465 64.5115C58.1435 64.5115 60.576 64.5135 63.0735 64.5059C63.2375 64.5054 63.5005 64.4282 63.5005 64.3866L63.5 0.507812H0.5ZM57.5 32.4563V57.1111C57.5 57.9683 57.3735 57.8906 56.56 57.8906H7.8855C7.072 57.8906 7 57.9688 7 57.1116V7.73906C7 6.88137 7.072 6.60156 7.947 6.60156H56.4985C57.374 6.60156 57.5 6.88137 57.5 7.80152V32.4563ZM32.207 20.4994C32.1 20.1632 31.901 20.1459 31.6105 20.1475C30.0535 20.1571 28.496 20.1825 26.94 20.1475C26.448 20.1368 26.2345 20.2866 26.0825 20.7736C23.89 27.7738 21.674 34.7694 19.466 41.7645C19.106 42.9051 18.7575 44.0502 18.3735 45.2882C19.829 45.2882 21.159 45.2679 22.488 45.3014C22.9395 45.3126 23.1275 45.1618 23.2505 44.7296C23.8195 42.737 24.4355 40.758 24.999 38.7639C25.1315 38.2936 25.346 38.1667 25.8115 38.1723C28.0235 38.1987 30.2365 38.1987 32.4485 38.1723C32.879 38.1672 33.054 38.3084 33.176 38.7116C33.7825 40.7169 34.427 42.7101 35.033 44.7154C35.1585 45.1298 35.316 45.2893 35.7865 45.2547C36.4406 45.2108 37.096 45.191 37.7515 45.1953H40.0475L40.037 45.0272C37.426 36.8479 34.8115 28.6807 32.207 20.4994ZM26.0005 34.5312C27.019 30.9766 28.03 27.4991 29.026 24.048C30.0525 27.4869 31.0965 30.9766 32.156 34.5312H26.0005ZM41 45.1953H46V26.9141H41V45.1953ZM43.5355 19.5787C42.054 19.5802 40.96 20.6487 40.97 22.0853C40.98 23.5259 42.031 24.5517 43.4985 24.5543C45.024 24.5563 46.1025 23.531 46.092 22.0883C46.081 20.6106 45.0285 19.5772 43.5355 19.5787Z" fill="#FAA625"/>
</svg>
