<svg width="188" height="39" viewBox="0 0 188 39" fill="none" xmlns="http://www.w3.org/2000/svg">
<path d="M0.906393 13.2549C0.916177 13.2878 0.942547 13.4259 0.957 13.4843C0.919542 13.4271 0.87151 13.1359 0.906393 13.2549ZM5.70509 17.8302C5.66857 17.7922 5.63215 17.7542 5.59583 17.7161C5.66046 17.8408 5.76496 18.001 5.82034 18.1187C5.82931 18.138 5.76828 18.1041 5.7923 18.1486C5.8163 18.1931 5.85671 18.1652 5.89887 18.2267C5.94633 18.2957 6.10446 18.637 6.1704 18.7504C6.41824 19.1741 6.69252 19.5909 6.91242 20.0276C6.62556 19.6024 6.8376 20.0638 6.92281 20.1808C6.94177 20.2067 7.0372 20.1604 7.26078 20.6145C7.40195 20.9035 7.11368 20.7042 7.44502 21.1454C7.34732 20.7388 7.53701 21.0985 7.6972 21.3814C7.72504 21.43 7.92633 21.8332 8.02599 22.0067C8.06015 22.066 8.16619 22.1332 8.21102 22.2121C8.2418 22.2665 8.2332 22.3212 8.27874 22.402C8.4908 22.7785 8.69346 23.1513 8.88398 23.5379C8.61306 23.3803 8.91035 23.7413 8.91231 23.7624C8.91778 23.8716 8.6909 23.4644 8.74979 23.6386C8.87322 23.8646 8.99613 24.0907 9.11851 24.3171C9.04105 24.1214 9.37982 24.5081 9.36907 24.6105C9.49406 24.5139 9.77677 25.7066 9.90435 25.852C9.93168 25.8819 9.89199 25.6262 10.1189 26.1616C10.1433 26.2196 10.0882 26.2173 10.107 26.2452C10.1182 26.2619 10.3133 26.3085 10.2916 26.4565C10.2834 26.5108 10.0589 26.2828 10.3849 26.855C10.4162 26.5581 10.8637 27.6368 10.9178 27.8474C10.9192 27.8001 10.9205 27.7528 10.9218 27.7056C10.9602 27.9202 11.0273 27.9332 11.0453 27.9775C11.1178 28.1562 11.1804 28.4178 11.2619 28.5783C11.3516 28.7553 11.4406 28.7303 11.5074 28.9254L6.46716 28.9869C6.47275 28.9755 6.47899 28.9636 6.48596 28.951C6.47656 28.9617 6.46716 28.9724 6.45777 28.9831L11.5167 28.9214C11.5136 28.8741 11.5105 28.8267 11.5073 28.7794C11.5252 28.8205 11.5429 28.8615 11.5607 28.9026L6.41329 28.9653C6.45913 28.8495 6.50514 28.7339 6.55134 28.6182C6.5443 29.0375 6.5862 28.5411 6.59424 28.5105C6.60675 28.4616 6.63404 28.55 6.65626 28.4687C6.65817 28.4601 6.60493 28.4523 6.64366 28.3288C6.72489 28.0709 6.7721 28.1357 6.81051 28.0291C6.81379 28.0193 6.75688 28.0356 6.81408 27.8479C6.99655 27.2515 6.84692 27.8643 6.84487 27.8892C6.84217 27.9219 7.10114 27.7959 6.85256 28.2651C6.93469 28.107 7.02292 28.1231 7.03188 28.1052C7.03963 28.0893 7.1353 27.7968 7.13846 27.7798C7.16342 27.6272 7.06071 27.7292 7.06095 27.6976C7.06106 27.6717 7.26447 27.3546 7.12549 27.2056C7.3445 27.1025 7.23146 27.3577 7.15136 27.6454C7.16809 27.6987 7.31393 27.4059 7.32 27.3899C7.46845 26.9963 7.2573 27.1626 7.20741 27.0437C7.18134 26.9812 7.32995 26.8561 7.15836 26.9579C7.28121 26.5959 7.2664 26.8393 7.28502 26.8202C7.3128 26.7912 7.3271 26.6531 7.33749 26.6393C7.35278 26.619 7.3625 26.7147 7.41112 26.63C7.41893 26.6158 7.4054 26.4425 7.30077 26.6171C7.40629 26.3701 7.33955 26.3672 7.49101 26.3297C7.33239 26.0671 7.6722 26.2576 7.71108 26.1947C7.81425 26.0274 7.61716 26.0091 7.61222 25.9961C7.58213 25.9082 7.83759 25.4329 7.86094 25.2992C7.9693 25.399 7.70722 25.6955 7.70191 25.7832C7.68335 26.0749 7.90794 25.4439 7.9949 25.6959C7.98172 25.5996 7.96856 25.5032 7.95546 25.4069C8.11543 25.3038 8.07952 25.5264 8.19526 25.1232C8.13126 25.0241 8.10085 25.4032 8.05752 25.3074C8.03207 25.2509 8.11224 25.0224 8.09233 25.0093C8.06792 24.9944 8.01843 25.2101 7.99094 25.162C7.93144 25.0572 8.30925 24.349 8.13196 24.9322C8.18506 24.7948 8.34701 24.7678 8.38882 24.6592C8.39509 24.6429 8.39866 24.6248 8.39877 24.6043C8.39892 24.5661 8.33792 24.5982 8.27936 24.6154C8.22923 24.6301 8.18088 24.6339 8.17413 24.5733C8.16771 24.5154 8.19922 24.3985 8.3044 24.1763C8.39217 24.193 8.20876 24.4833 8.21179 24.4939C8.21623 24.5089 8.42283 24.5258 8.43585 24.5196C8.47913 24.4967 8.68771 23.6983 8.84607 23.5753C8.71377 23.5961 9.06227 22.9954 9.05906 22.9135C9.0578 22.8916 8.96445 22.9345 8.96576 22.912C8.97582 22.773 9.22983 22.4875 9.2974 22.3349C9.37306 22.1642 9.30828 22.1638 9.31242 22.1542C9.34744 22.0798 9.35969 22.1553 9.37909 22.109C9.40816 22.039 9.61957 21.5624 9.62222 21.5352C9.6228 21.5272 9.52605 21.5801 9.55874 21.4709C9.56449 21.452 9.63423 21.4933 9.73479 21.1712C9.85649 20.7835 9.53041 21.3925 9.51871 21.2065C9.73341 21.0121 9.61974 20.9757 9.65654 20.9144C9.66947 20.8933 9.83546 20.7638 9.90856 20.5803C9.86696 20.7164 9.82563 20.8525 9.78457 20.9888C9.85624 20.8673 9.94389 20.6109 10.0084 20.5131C10.0398 20.4653 10.0978 20.5382 10.1444 20.4258C10.1539 20.4018 10.0087 20.2334 9.96459 20.559C9.88775 20.5557 9.99189 20.434 10.0014 20.3621C10.0027 20.3511 9.90861 20.2683 10.0138 20.2136C10.0396 20.2007 10.2676 20.5449 10.2784 19.8968C10.2787 19.8759 10.211 19.9219 10.2104 19.9011C10.21 19.8869 10.289 19.752 10.2902 19.7341C10.2912 19.7156 10.217 19.7664 10.2168 19.7439C10.2158 19.6287 10.4465 19.5701 10.344 19.766C10.3953 19.7073 10.4466 19.6487 10.4979 19.5901C10.3351 19.6097 10.5081 19.4698 10.5455 19.3752C10.7865 18.7696 10.5237 19.1346 10.5259 19.0148C10.5305 18.8225 10.695 19.0365 10.7389 18.7659C10.7431 18.741 10.515 18.998 10.8301 18.4439C10.7949 18.5302 10.7599 18.6166 10.7249 18.703C10.8716 18.7038 10.8559 18.3929 10.8635 18.3725C10.9502 18.1401 10.9242 18.3102 11.0154 17.9501C11.0236 17.9179 11.0839 17.8649 11.0985 17.795C11.1595 17.5054 10.8986 18.1294 10.8413 18.1263C10.8126 18.1243 11.1268 17.4668 11.1492 17.4489C11.2449 17.373 11.0316 17.7568 11.1301 17.7068C11.1643 17.6879 11.5601 16.7299 11.6749 16.5519C11.8064 16.346 12.012 16.3119 11.8339 16.239C12.0386 16.248 11.9446 16.146 11.9592 16.1187C12.1361 15.7899 12.138 15.7899 12.2605 15.4962C12.2877 15.4314 12.3655 15.3986 12.3676 15.3727C12.3686 15.3575 12.3014 15.3597 12.3155 15.289C12.3353 15.191 12.6534 14.6811 12.7026 14.6535C12.7519 14.6258 12.6053 14.8836 12.6779 14.8559C12.7763 14.6662 12.8542 14.4778 12.9542 14.2872C12.9959 14.2082 13.0094 14.2628 13.0271 14.2285C13.0346 14.2138 13.1414 13.9259 13.1235 13.9328C13.0806 13.9484 12.6797 14.8091 12.7306 14.5606C12.7405 14.5127 12.8944 14.391 12.7871 14.3772C13.1865 13.6248 13.5912 12.8744 14.0004 12.1259C13.8414 12.5864 13.5348 13.0536 13.3112 13.5131C13.2806 13.5761 13.1657 13.7845 13.2255 13.7775C13.4307 13.3928 13.6503 12.9002 13.8687 12.5393C13.8757 12.5278 13.8933 12.5875 13.9222 12.5453C13.9758 12.4663 14.0506 12.1692 14.0904 12.1301C14.098 12.1238 14.0709 12.299 14.1276 12.2651C14.2722 12.1777 14.1025 12.0729 14.1581 11.9703C14.2015 11.891 14.5642 11.387 14.5795 11.2314C14.5962 11.0662 14.3407 11.6143 14.3137 11.5554C14.4557 11.1722 14.7002 10.8245 14.876 10.4791C14.8791 10.473 14.8161 10.5114 14.852 10.433C14.9147 10.2967 14.9825 10.2814 15.0248 10.2198C15.0702 10.1532 15.1952 9.90354 15.2303 9.87749C15.2347 9.87418 15.2554 9.94314 15.2527 9.95129C15.2154 10.0669 15.1332 10.0804 15.1271 10.0898C15.1052 10.1257 15.1099 10.1714 15.0907 10.2044C15.0591 10.2588 15.0207 10.2804 14.98 10.3525C14.9519 10.4024 15.0207 10.371 14.9932 10.4188C14.9832 10.4364 14.7817 10.5887 14.8745 10.6476C14.9035 10.6659 15.7694 9.10738 15.8324 8.94218C15.7495 9.07236 15.6665 9.20247 15.5834 9.33252C15.7557 9.06983 15.8618 8.71384 15.9787 8.73239C16.5289 7.72259 17.0883 6.71645 17.6561 5.71371C17.7628 5.53679 17.754 5.65369 17.9045 5.35259C17.8479 5.42331 17.7908 5.49385 17.7333 5.5642C17.8288 5.41721 18.2231 4.75439 18.2763 4.64285C18.2832 4.6284 18.2583 4.5946 18.3516 4.42688C18.4345 4.27809 18.4732 4.26433 18.5231 4.18702C18.5649 4.12209 18.6014 4.04497 18.614 4.02579C18.6237 4.01107 18.6416 4.01084 18.6648 3.97538C18.7378 3.86331 18.6456 3.94094 18.7555 3.84466C18.7414 3.87317 18.7274 3.9017 18.7134 3.93024C18.7989 3.79395 18.9244 3.61123 18.8199 3.82056C18.802 3.85658 18.8056 3.82094 18.7909 3.84728C18.2206 4.88023 18.7043 4.0667 18.8842 3.6967C18.9545 3.61131 19.2327 3.0865 19.2461 3.07073C19.2639 3.04846 19.2277 3.14282 19.3029 3.03024C19.3182 3.00631 19.6948 2.30646 19.5743 2.56454C19.5497 2.61787 19.3633 2.95108 19.32 3.03206C19.4544 2.85456 19.6526 2.39167 19.6834 2.34301C19.7976 2.14278 19.4954 2.74027 19.7454 2.28624C19.9374 1.93699 19.7426 2.25908 19.8094 2.12191C19.848 2.04527 20.081 1.65637 20.0571 1.65989C20.1312 1.52404 20.0959 1.60677 20.1059 1.59035C20.1153 1.57413 20.2594 1.3064 20.3108 1.22134C20.317 1.211 20.3056 1.24678 20.3122 1.23617C20.3248 1.21543 20.4655 0.957932 20.4709 0.947489C20.4743 0.940826 20.4353 1.00003 20.4482 0.974422C20.4633 0.944629 20.6034 0.698706 20.6101 0.684751C20.6194 0.664969 20.4482 0.969241 20.4718 0.916548C20.5529 0.777168 20.6806 0.548316 20.7326 0.455705C20.72 0.478448 20.6415 0.613653 20.6139 0.660446C20.621 0.63605 20.793 0.347135 20.7373 0.447151C20.7727 0.383594 20.7467 0.426237 20.7664 0.390327C20.7715 0.380923 20.8248 0.291768 20.8347 0.274452C20.8361 0.272216 20.7797 0.363638 20.7901 0.345002C20.8091 0.311267 20.9741 0.0423855 20.9876 0.0203489C21.0253 -0.0416895 20.8919 0.178002 20.8819 0.196777C20.8807 0.199541 20.9931 0.0122712 20.9945 0.00930418C21.001 -0.00167274 20.8781 0.207584 20.8931 0.184046C20.9234 0.132266 20.9536 0.0804151 20.9836 0.028501C20.8687 0.229057 20.6568 0.600327 20.6074 0.698165C20.7732 0.399013 20.9514 0.0878079 20.9514 0.0886175C20.9516 0.0889554 20.8826 0.219012 20.8857 0.214176C20.897 0.195432 20.9919 0.0144923 20.9957 0.00798604C20.9987 0.00250257 21 5.32298e-07 21 0C20.9997 -0.000117816 20.8643 0.257745 20.8582 0.270919C20.8479 0.293051 20.9097 0.178912 20.9097 0.179133C20.9076 0.183123 20.8157 0.368571 20.8483 0.306622C20.8809 0.24382 20.9602 0.0810483 20.9631 0.0753868C20.9782 0.044278 20.8406 0.329423 20.8373 0.33824C20.8355 0.342901 20.91 0.189999 20.9122 0.185557C20.9142 0.181801 20.8598 0.298879 20.84 0.345695C20.8254 0.380611 20.8721 0.280531 20.8641 0.298227C20.8585 0.310886 20.7348 0.582856 20.7291 0.59638C20.7206 0.616519 20.7516 0.553617 20.7479 0.563097C20.7428 0.576592 20.7026 0.664339 20.7086 0.653235C20.7142 0.645307 20.8702 0.305292 20.8691 0.307457C20.869 0.312022 20.7114 0.67511 20.8619 0.3388C20.8629 0.336424 20.8963 0.253258 20.8973 0.250982C20.9187 0.199984 20.8142 0.467608 20.9438 0.141106C20.7055 0.749572 20.9168 0.217859 20.8837 0.308778C20.8715 0.34412 20.7842 0.582025 20.7842 0.583286C20.7954 0.561263 20.8212 0.48467 20.8319 0.459357C20.8373 0.445292 20.7629 0.659639 20.7824 0.612487C20.7923 0.588037 20.8723 0.360899 20.8757 0.351587C20.9084 0.262108 20.8708 0.372813 20.8785 0.353389C20.8836 0.34045 20.9307 0.202905 20.9319 0.199343C20.9338 0.193501 20.8721 0.381149 20.8603 0.420656C20.8512 0.45064 20.8889 0.339526 20.8823 0.360338C20.8433 0.486078 20.7515 0.750105 20.8424 0.496649C20.8478 0.48113 20.8785 0.383783 20.8795 0.380953C20.8999 0.321393 20.8438 0.500762 20.8358 0.533665C20.8221 0.59021 20.8988 0.330782 20.8358 0.546823C20.8864 0.386094 20.9123 0.295621 20.9685 0.106315C20.8114 0.629855 20.7732 0.82152 20.9348 0.235177C20.8828 0.421439 20.8921 0.402182 20.8771 0.457977C20.8682 0.492806 20.7893 0.761513 20.8349 0.642087C20.8404 0.627013 20.8812 0.460957 20.8704 0.513752C20.7686 0.910807 20.8703 0.522985 20.8703 0.522542C20.8756 0.530334 20.6296 1.50161 20.5865 1.66816C20.5395 1.86261 20.5135 2.04176 20.5035 2.08412C20.4695 2.22305 20.4887 2.10414 20.4777 2.13385C20.466 2.16372 20.3867 2.56573 20.3813 2.58523C20.3577 2.65981 20.364 2.57704 20.3614 2.58476C20.3293 2.67592 20.2045 3.2085 20.1627 3.35488C20.1749 3.35473 20.2508 3.05766 20.2206 3.25001C20.187 3.47458 20.1355 3.46762 20.1317 3.47233C19.8754 4.46047 19.612 5.44575 19.3413 6.42812C19.3903 6.43413 19.5307 5.77726 19.5406 5.76499C19.5955 5.6917 19.3056 6.78028 19.2508 6.90615C19.289 6.80915 19.3266 6.71196 19.3638 6.61457C19.3721 6.80955 19.1979 7.16407 19.1544 7.42393C19.141 7.50813 19.2056 7.36199 19.2062 7.36577C19.2048 7.46588 19.148 7.6047 19.1464 7.48326C19.1162 7.71693 19.092 7.67138 19.0428 7.84025C19.0404 7.84899 19.0849 7.78586 19.0589 7.92464C19.0468 7.98971 18.9555 8.32602 18.9662 8.38025C18.9714 8.40285 19.1171 8.272 19.0364 8.21636C19.1751 7.8663 19.0289 8.08379 19.069 7.94229C19.0753 7.92065 19.1087 7.98959 19.1817 7.62205C19.2456 7.72316 19.0765 8.1124 19.0673 8.18704C19.0515 8.34221 19.2499 7.75603 19.2146 7.61979C19.2647 7.69691 19.2341 7.58038 19.2715 7.44698C19.3121 7.30084 19.3139 7.37234 19.3343 7.29261C19.3898 7.07451 19.3251 7.14826 19.4083 6.98344C19.2471 7.11209 19.4733 6.67028 19.535 6.53985C19.4839 6.77179 19.4328 7.00372 19.3817 7.23564C19.3912 7.22503 19.4007 7.21439 19.4102 7.20376C19.3944 7.26391 19.3785 7.32405 19.3626 7.38416C19.3589 7.37203 19.3552 7.35991 19.3516 7.34779C19.3138 7.67548 19.2492 7.73327 19.242 7.75833C19.1536 8.08282 19.0566 8.4596 18.9701 8.78883C18.9569 8.83812 19.0129 8.82303 18.8816 9.16835C18.8394 9.27835 18.831 9.15519 18.8017 9.28733C18.8604 9.49072 18.7799 9.45512 18.7666 9.50328C18.7293 9.64187 18.7325 9.73701 18.7294 9.74995C18.6877 9.92292 18.6156 10.1719 18.5685 10.3614C18.568 10.3651 18.6284 10.2808 18.5854 10.3989C18.5714 10.4409 18.3166 10.7652 18.2698 11.1191C18.3048 11.0362 18.3397 10.9533 18.3742 10.8702C18.3313 10.967 18.1675 11.7 18.2594 11.5415C18.3148 11.4439 18.2886 11.1413 18.3918 11.1505C18.2984 11.3789 17.9705 12.7154 17.9158 12.8077C17.9082 12.8205 17.8994 12.7197 17.8894 12.7376C17.8817 12.7514 17.8021 13.0557 17.777 13.0903C17.7621 13.1109 17.78 12.9695 17.7644 12.9754C17.753 12.9814 17.6261 13.3505 17.6639 13.3896C17.6737 13.2904 17.7656 13.0374 17.7623 13.188C17.7618 13.2074 17.7068 13.2867 17.7063 13.3102C17.7025 13.529 17.862 12.9344 17.8886 12.8431C17.837 13.2361 17.6031 13.7823 17.5123 14.2252C17.4221 14.3828 17.531 13.9456 17.4405 14.1285C17.2515 14.5075 17.461 14.2577 17.4619 14.2721C17.4713 14.3888 17.1562 14.6473 17.3166 14.7117C17.2476 14.8489 17.2416 14.7931 17.1992 15.0087C17.2188 14.986 17.2385 14.9632 17.2581 14.9405C17.2836 15.2089 16.8909 15.5983 16.8825 15.554C16.864 15.4364 17.0213 15.2148 17.026 15.1923C17.0327 15.1591 16.8961 15.005 17.1531 14.714C17.0889 14.5271 16.903 15.238 16.9284 14.8909C16.8737 15.1103 16.5073 15.9565 16.5157 16.1027C16.5173 16.1205 16.6564 16.0967 16.5263 16.2899C16.4642 16.3815 16.5444 16.1328 16.5025 16.1693C16.3761 16.2827 15.7634 18.2672 15.6369 18.6402C15.6286 18.6644 15.5928 18.64 15.5849 18.6638C15.5606 18.7371 15.5264 19.0258 15.4627 19.1489C15.6297 18.9079 15.4526 19.4347 15.3975 19.5647C15.3142 19.7621 15.2483 19.7215 15.2024 19.8028C15.0247 20.1159 15.0071 20.7041 14.7534 20.9011C14.917 20.9502 14.5116 21.3206 14.4315 21.5309C14.3691 21.6957 14.3867 21.978 14.5336 21.7807C14.4212 22.0633 14.3399 22.3755 14.2499 22.6469C14.2351 22.6917 14.2099 22.6117 14.1861 22.6888C14.1842 22.696 14.2277 22.7242 14.2084 22.7909C14.0492 23.3416 14.0463 23.0415 13.9793 23.1296C13.9416 23.1789 13.9178 23.2168 13.9036 23.246C14.0123 22.9314 14.1285 22.5648 14.1631 22.4682C14.029 22.5088 13.9236 23.1661 13.8279 23.3326C13.8245 23.3384 13.7751 23.2939 13.7723 23.3C13.7723 23.3001 13.7722 23.3002 13.7722 23.3004C13.7425 23.3653 13.6017 23.7978 13.704 23.7381C13.7313 23.722 13.8059 23.5268 13.8875 23.2926C13.8766 23.3604 13.9589 23.3394 13.9574 23.3516C13.9386 23.4986 13.7505 23.8021 13.6972 23.9151C13.6851 23.941 13.7274 23.9557 13.7258 23.9601C13.6758 24.0623 13.5738 23.9713 13.6545 24.129C13.4328 24.2616 13.7704 23.7607 13.6595 23.7611C13.5753 23.7618 13.141 25.0006 13.2588 25.0435C13.2446 25.0427 13.2225 25.0533 13.1913 25.0807C13.1222 25.1414 13.001 25.486 12.9994 25.5532C12.9998 25.5648 13.1152 25.6064 13.1115 25.6191C13.1021 25.6509 12.8486 26.03 12.8541 26.2117C12.9034 26.1345 12.9527 26.0573 13.0018 25.98C12.8021 26.4854 12.8667 26.4208 12.968 26.2663C12.9716 26.258 12.9792 26.2515 12.9829 26.2437C13.0601 26.1234 13.1506 25.9659 13.1606 25.9669C13.1838 25.9695 13.0745 26.2896 12.9754 26.4938C12.9114 26.6257 12.8519 26.7093 12.8363 26.6281C12.834 26.6155 12.8722 26.5362 12.9028 26.4648C12.9422 26.3732 12.9692 26.2948 12.8827 26.3881C12.876 26.3953 12.866 26.4169 12.8546 26.4455C12.8201 26.5321 12.772 26.6825 12.7617 26.6901C12.7094 26.7286 12.7363 26.5532 12.7485 26.4031C12.7577 26.2912 12.7588 26.1934 12.7137 26.209C12.7211 26.2674 12.7123 26.3249 12.6958 26.382C12.6659 26.4859 12.6109 26.5885 12.5832 26.6932C12.5637 26.767 12.6139 26.8071 12.6115 26.8162C12.5742 26.9518 12.5435 26.8551 12.5276 26.899C12.5193 26.9226 12.5435 27.2288 12.3873 27.1102C12.1747 28.0022 12.4228 27.3947 12.6211 26.8747C12.6194 27.0634 12.4588 27.3704 12.4152 27.5196C12.3996 27.5731 12.4706 27.5661 12.4468 27.6576C12.3985 27.846 11.9791 28.6705 11.8702 28.8854C11.9065 28.7412 11.8265 28.7556 11.787 28.8624C11.7475 28.9691 11.8689 28.9147 11.8695 28.9388C11.8698 28.9646 11.623 29.4408 11.5991 29.5269C11.725 29.1444 11.6267 29.2027 11.4876 29.5145C11.4887 29.4618 11.4898 29.4091 11.4908 29.3564C11.4387 29.5509 11.1792 29.8998 11.1624 30.0176C11.1598 30.0361 11.2378 29.9971 11.2364 30.0075C11.2191 30.1097 11.0301 30.4056 11.0415 30.4275C11.051 30.4459 11.1528 30.3282 11.1529 30.387C11.1529 30.3993 11.0264 30.5014 10.9886 30.6367C10.9744 30.6869 11.036 30.6779 11.0337 30.6911C11.021 30.7627 10.9919 30.7479 10.955 30.782L8.9344 35.5002L7.06463 30.8294C7.06569 30.803 7.05869 30.7654 7.02886 30.7036C6.96539 30.5723 6.84577 30.5055 6.79862 30.3066C6.9389 30.9658 6.77755 30.4303 6.64666 30.1857C6.62571 30.1464 6.55193 30.2194 6.4989 29.9541C6.86074 30.4119 6.5237 29.7688 6.47239 29.6297C6.47 29.6218 6.52616 29.5948 6.50085 29.5266C6.49858 29.5209 6.46317 29.5457 6.43593 29.4839C6.1784 28.8978 6.36869 29.2616 6.3628 29.1318C6.36017 29.0766 6.19485 28.8088 6.1639 28.7308C6.15691 28.7128 6.19951 28.7042 6.1714 28.6351C6.12155 28.5129 6.0379 28.4201 6.00386 28.3399C6.0001 28.3305 6.06159 28.3037 5.98325 28.1576C5.96127 28.1165 5.92113 28.077 5.92668 28.1464C5.94509 28.3764 6.19342 28.7212 6.22294 28.9775C6.24917 29.2114 5.99189 28.5485 5.97895 28.5138C5.97395 28.5012 6.05373 28.618 6.01001 28.4834C5.97237 28.3685 5.78878 28.2077 5.74949 28.0293C5.74649 28.0157 5.78592 27.8429 5.79338 27.8469C5.79923 27.8509 5.8959 28.049 5.91068 28.0079C5.91228 28.003 5.86249 27.8721 5.87534 27.8468C5.89101 27.8157 6.09944 27.6608 6.09443 27.6304C6.08127 27.5526 6.04678 27.6217 6.03276 27.5737C6.00268 27.4709 5.93866 27.0969 5.85599 27.1193C5.87287 27.1784 5.88975 27.2374 5.90665 27.2965C5.77866 26.9824 5.79648 27.1321 5.76482 27.0934C5.73076 27.0517 5.8047 27.0358 5.77086 26.9259C5.76335 26.9021 5.58132 26.4597 5.55617 26.48C5.69387 26.7087 5.57565 26.6527 5.57838 26.6648C5.58903 26.7107 5.65695 26.746 5.67782 26.8047C5.82371 27.2179 5.5941 26.8365 5.61103 26.9416C5.61689 26.9777 5.68221 27.0267 5.68542 27.0418C5.69583 27.0906 5.64276 27.1142 5.65847 27.1431C5.69511 27.2103 5.73958 27.0944 5.74558 27.0984C5.81685 27.142 5.85175 27.4176 5.71083 27.2971C5.7159 27.4035 5.82056 27.3714 5.80813 27.4628C5.78348 27.6446 5.72139 27.4147 5.68598 27.3604C5.55873 27.1657 5.5735 27.0854 5.44849 26.7862C5.40358 26.6784 5.30844 26.5686 5.28738 26.5187C5.27445 26.4871 5.32817 26.1135 5.06857 26.2144C5.0515 26.0854 5.1527 25.8282 5.10093 25.7099C5.0546 25.6037 4.97791 25.6767 4.97078 25.668C4.95978 25.6547 4.91974 25.5194 4.89136 25.48C4.85799 25.4338 4.83341 25.4745 4.79039 25.3971C4.68373 25.2042 4.77536 25.1712 4.77362 25.1474C4.75355 24.8713 4.66502 25.0339 4.63573 24.9833C4.60858 24.9362 4.40837 24.198 4.3261 24.0598C4.36426 24.114 4.4026 24.1682 4.4411 24.2222C4.45681 24.0892 4.32937 24.0099 4.42442 23.9668C4.26219 24.0107 4.28788 23.739 4.26036 23.6725C4.24955 23.6462 4.22432 23.6595 4.21176 23.6262C4.16253 23.4964 4.08259 23.1904 4.04572 23.1244C3.88758 22.8382 4.05813 23.6702 4.07272 23.7353C4.03206 23.61 3.76762 22.9163 3.80208 23.2725C3.80719 23.3277 3.90307 23.3882 3.91502 23.4153C3.99495 23.599 3.88532 23.4745 3.88454 23.492C3.88347 23.5215 3.98313 23.6222 3.98714 23.6584C3.9885 23.6704 3.91015 23.6227 3.96848 23.8056C3.88538 23.7389 3.76334 23.2069 3.7295 23.1448C3.7174 23.1226 3.65437 23.3208 3.62217 22.8346C3.61361 22.844 3.60504 22.8535 3.59646 22.863C3.51489 22.6195 3.43414 22.3756 3.35422 22.1314C3.38498 22.1485 3.47372 22.2668 3.4098 22.0973C3.37306 21.9997 3.34588 22.0952 3.34155 22.0867C3.29799 22.0037 2.83405 20.402 2.74093 20.0929C2.70826 19.9882 2.58841 19.7087 2.5816 19.6864C2.53979 19.5535 2.42726 19.0675 2.39596 18.9744C2.37635 18.9162 2.35787 18.9874 2.34475 18.9336C2.33261 18.8835 2.37976 18.9206 2.37707 18.9053C2.35342 18.7795 2.05937 17.8729 2.02967 17.6404C2.0561 17.7789 2.30183 18.4215 2.3218 18.3979C2.32412 18.3937 2.30201 18.2214 2.28093 18.1929C2.29188 18.1263 2.15744 17.9712 2.14501 17.8609C2.14349 17.8484 2.20119 17.8752 2.15736 17.6875C2.14198 17.623 2.06227 17.4709 2.05301 17.2875C1.96804 17.0525 1.66887 15.7541 1.6079 15.6823C1.6053 15.6805 1.63969 15.8667 1.59191 15.7514C1.52881 15.598 1.63684 15.7138 1.59221 15.5226C1.58517 15.4939 1.43909 14.9715 1.43107 14.9557C1.35476 14.8112 1.45836 15.2781 1.45222 15.2736C1.43701 15.2623 1.33433 14.8815 1.333 14.8648C1.33136 14.849 1.45768 15.1413 1.34424 14.7736C1.34975 14.819 1.35517 14.8643 1.36051 14.9097C1.30535 14.7376 1.33251 14.7073 1.32341 14.6638C1.29477 14.5286 1.21476 14.4033 1.21514 14.1669C1.21491 14.1046 1.25469 14.1912 1.25509 14.1832C1.2563 14.1077 1.18393 14.0429 1.19469 13.9255C1.1952 13.9168 1.27979 14.1431 1.17078 13.7308C1.17487 13.7607 1.17891 13.7905 1.18291 13.8204C1.15964 13.7657 1.04749 13.349 1.03489 13.2919C0.997435 13.1253 1.05624 13.2593 1.01062 13.0953C1.00791 13.2142 0.877735 12.7118 0.90803 12.7309C0.861153 12.673 0.776163 12.2352 0.725734 12.0339C0.694019 11.9068 0.620677 11.6513 0.612123 11.6103C0.601401 11.5605 0.619065 11.5694 0.599823 11.4794C0.593849 11.4539 0.520034 11.1929 0.474033 10.9557C0.465282 10.9097 0.458279 10.8081 0.484344 10.8895C0.529862 11.0284 0.584975 11.3044 0.596416 11.2956C0.608803 11.2858 0.503273 10.9275 0.479104 10.8292C0.364982 10.3767 0.443945 10.6324 0.444575 10.6192C0.443909 10.5861 0.374185 10.3419 0.371942 10.3315C0.362296 10.2882 0.416965 10.459 0.422189 10.4596C0.42908 10.4602 0.367746 10.2224 0.385233 10.2749C0.411043 10.3498 0.46833 10.568 0.472597 10.5816C0.532568 10.7562 0.472433 10.5074 0.456581 10.4385C0.451963 10.4175 0.481081 10.4965 0.476278 10.4795C0.401699 10.2211 0.441528 10.4332 0.389812 10.2622C0.343621 10.1097 0.412016 10.3021 0.410895 10.296C0.408946 10.2883 0.351464 10.1069 0.344521 10.0777C0.339808 10.0638 0.50905 10.5267 0.511629 10.5033C0.458877 10.355 0.406707 10.2065 0.355132 10.0578C0.358176 10.0431 0.426146 10.2597 0.434345 10.2816C0.451443 10.3254 0.412939 10.1993 0.417185 10.2036C0.419547 10.2058 0.477282 10.3486 0.432946 10.2163C0.417393 10.1709 0.379002 10.0783 0.325085 9.91201C0.536866 10.4803 0.399746 10.0824 0.394973 10.065C0.390969 10.0477 0.500149 10.3155 0.374231 9.98756C0.381735 9.96778 0.381053 9.99287 0.41941 10.0849C0.46692 10.1975 0.368916 9.93228 0.528223 10.3499C0.527457 10.3226 0.393482 9.98945 0.387015 9.97155C0.381311 9.95614 0.414075 10.0289 0.404512 10.0021C0.28865 9.6856 0.370784 9.90186 0.340096 9.80898C0.337572 9.80063 0.215249 9.50702 0.31074 9.72953C0.486478 10.1341 0.546142 10.3092 0.601501 10.3661C0.479378 10.0634 0.306287 9.70749 0.268183 9.61591C0.207376 9.4768 0.272463 9.62001 0.265735 9.60254C0.263324 9.5965 0.210342 9.47687 0.209784 9.4752C0.179096 9.38686 0.447112 10.0071 0.534064 10.2013C0.513525 10.1481 0.492653 10.095 0.471444 10.042C0.5034 10.1125 0.535368 10.183 0.567348 10.2534C0.420576 9.91537 0.562923 10.2412 0.61762 10.3177C0.630004 10.3349 0.520668 10.1183 0.648292 10.3641C0.563292 10.1789 0.593606 10.2366 0.510565 10.0715C0.517099 10.0739 0.704602 10.4451 0.78099 10.5904C0.533092 10.0675 0.657045 10.3732 0.448666 9.91857C0.402877 9.83733 0.50765 10.052 0.49816 10.0349C0.4649 9.97324 0.397401 9.82412 0.304632 9.64905C0.289882 9.62039 0.342643 9.74579 0.258767 9.56272C0.249656 9.5424 0.198327 9.42484 0.199095 9.42644C0.208078 9.44109 0.26146 9.55632 0.264641 9.56066C0.267678 9.5647 0.20656 9.43682 0.206573 9.43629C0.206994 9.43137 0.258297 9.54267 0.251445 9.52625C0.238092 9.49017 0.0167918 9.0308 0.309187 9.62878C0.0632491 9.13341 0.274766 9.56662 0.370181 9.75968C0.394619 9.80887 0.403236 9.82029 0.438748 9.89009C0.484503 9.97983 0.535043 10.0862 0.558601 10.1327C0.584407 10.1825 0.450648 9.89398 0.65354 10.3072C0.557519 10.0938 0.363679 9.72726 0.263661 9.5201C0.0563429 9.10451 0.4192 9.80515 0.459036 9.87727C0.469466 9.89656 0.439067 9.82993 0.446041 9.84278C0.457808 9.86364 0.663884 10.2612 0.688993 10.2984C0.71414 10.3354 0.612158 10.1533 0.609907 10.1393C0.607674 10.1301 0.870258 10.6037 0.733558 10.345C0.637804 10.1673 0.452214 9.84371 0.431077 9.78487C0.574343 10.0451 0.717866 10.3052 0.861612 10.5653C0.790065 10.4199 0.716703 10.2753 0.641479 10.1315C0.807602 10.4213 0.940129 10.6766 1.10583 10.9484C0.753363 10.2756 1.24864 11.1547 1.25807 11.1627C1.26262 11.1648 1.13325 10.8959 1.11143 10.8531C1.25403 11.0793 1.67591 11.7717 1.46284 11.3522C1.50043 11.4288 1.62724 11.599 1.62755 11.5959C1.62882 11.5668 1.37914 11.1841 1.43029 11.242C1.49011 11.309 1.53511 11.4194 1.6063 11.5313C1.97223 12.1052 1.96599 11.9074 2.32261 12.4873C2.31896 12.4742 2.31528 12.4612 2.31157 12.4483C2.71034 13.0738 3.10076 13.7029 3.48326 14.3354C3.68231 14.5617 4.12637 15.2006 4.32005 15.5249C4.35956 15.59 4.52592 15.9214 4.53485 15.948C4.55174 15.997 4.39832 15.7533 4.44681 15.8724C4.4577 15.8972 4.77055 16.4449 4.78138 16.3915C4.74866 16.3291 4.61693 16.1465 4.60597 16.1121C4.53159 15.8691 5.49281 17.5588 5.56366 17.6326C5.55423 17.5901 5.54466 17.5476 5.53494 17.5053C5.59199 17.6134 5.6487 17.7217 5.70509 17.8302ZM1.07754 13.7193C1.0395 13.656 1.01087 13.4688 0.979568 13.3643C0.935384 13.2204 0.809228 12.9976 0.903011 13.0766C0.9599 13.2914 1.01809 13.5056 1.07754 13.7193ZM1.84188 16.8869C1.82084 16.7356 1.91922 16.8178 1.92273 16.9477C1.92317 16.9621 1.87002 17.0918 1.84188 16.8869ZM1.47798 15.3617C1.48029 15.3674 1.51086 15.4929 1.51107 15.4976C1.51605 15.6198 1.42506 15.241 1.47798 15.3617ZM3.59717 22.5749C3.54329 22.4213 3.48349 22.5749 3.55322 22.6549C3.55767 22.6599 3.60068 22.585 3.59717 22.5749ZM3.56458 22.4632C3.61077 22.3062 3.3632 22.1359 3.44101 22.3223C3.44846 22.3404 3.56206 22.4706 3.56458 22.4632ZM1.73297 16.362C1.75759 16.3695 1.78734 16.5221 1.79918 16.5877C1.77962 16.5941 1.75172 16.4232 1.73297 16.362ZM2.78498 20.1052C2.8091 20.1019 2.65732 19.592 2.6193 19.5691C2.65466 19.6447 2.76311 20.108 2.78498 20.1052ZM3.21065 21.3972C3.21085 21.3826 3.15066 21.2098 3.13113 21.2239C3.12932 21.3217 3.20937 21.4634 3.21065 21.3972ZM4.02872 23.9773C4.03799 23.9841 4.14943 23.7876 4.15001 24.1398C4.14997 24.1916 4.05576 24.0471 4.05558 24.0656C4.05582 24.104 4.0595 24.1329 4.06564 24.1547C4.0054 24.0164 3.95077 23.8693 3.95537 23.8508C3.97717 23.764 4.02479 23.9742 4.02872 23.9773ZM4.59951 25.2713C4.6362 25.2894 4.68713 25.4835 4.69092 25.5311C4.69138 25.5393 4.60988 25.5374 4.64432 25.6199C4.67216 25.6861 4.70935 25.5535 4.74375 25.6909C4.77858 25.8297 4.66476 25.6731 4.66521 25.6863C4.66569 25.7041 4.77012 25.8971 4.72547 25.9089C4.69233 25.9175 4.63707 25.6865 4.61162 25.6344C4.57902 25.5677 4.55631 25.6753 4.52737 25.5529C4.50915 25.476 4.6139 25.478 4.61316 25.4605C4.61223 25.4459 4.47186 25.2099 4.59937 25.2718C4.59941 25.2716 4.59946 25.2714 4.59951 25.2713ZM4.08227 24.192C4.07578 24.1824 4.07005 24.1704 4.06564 24.1547C4.07111 24.1673 4.07675 24.1797 4.08227 24.192ZM1.1972 14.1314C1.20468 14.2115 1.13497 13.994 1.12824 13.9031C1.13911 13.8969 1.19589 14.1186 1.1972 14.1314ZM4.19703 24.295C4.2465 24.5177 4.1637 24.3738 4.08227 24.192C4.11839 24.2453 4.18038 24.2203 4.19703 24.295ZM2.28093 18.1929C2.27905 18.204 2.2737 18.2128 2.26242 18.2185C2.2682 18.189 2.2743 18.1839 2.28093 18.1929ZM2.40404 18.709C2.49043 18.867 2.38738 18.515 2.36245 18.5281C2.35305 18.5334 2.40057 18.7027 2.40404 18.709ZM3.6561 22.7763C3.65558 22.7587 3.87682 22.941 3.65596 22.6333C3.69972 22.8293 3.6204 22.6367 3.60903 22.6449C3.57567 22.668 3.71117 22.9706 3.71818 23.0475C3.80085 23.0746 3.65716 22.8347 3.65623 22.7767C3.65619 22.7766 3.65614 22.7764 3.6561 22.7763ZM5.41068 27.6966C5.35031 27.6735 5.31638 27.533 5.2864 27.4412C5.34632 27.4644 5.3805 27.6049 5.41068 27.6966ZM18.5632 10.5215C18.4197 11.1739 18.2638 11.2035 18.4776 10.6396C18.4819 10.6286 18.561 10.4776 18.5632 10.5215ZM16.931 15.9602C16.8382 15.99 16.8889 15.7889 16.9597 15.6719C16.9758 15.6454 17.0833 15.5668 17.0595 15.6961C16.9723 15.6568 16.8778 15.8338 16.931 15.9602ZM4.28334 24.3958C4.35219 24.4374 4.3828 24.6428 4.40959 24.7465C4.34871 24.7023 4.29833 24.4913 4.28334 24.3958ZM17.9036 12.5901C17.8793 12.6551 17.9215 12.7226 17.9295 12.7128C17.9655 12.6694 17.9571 12.5262 17.9036 12.5901ZM4.08428 23.7756C4.10911 23.755 4.22117 23.9965 4.15727 24.044C4.1442 23.9877 4.06882 23.7894 4.08428 23.7756ZM5.37265 27.5155C5.37461 27.4697 5.47668 27.6588 5.48288 27.7265C5.44709 27.7362 5.37137 27.5455 5.37265 27.5155ZM17.6057 13.6754C17.5828 13.7332 17.5365 13.8821 17.5554 13.9082C17.5791 13.9407 17.6339 13.7172 17.6057 13.6754ZM20.495 2.36557C20.4986 2.35857 20.4644 2.6041 20.437 2.70836C20.3833 2.90571 20.4912 2.37323 20.495 2.36557ZM18.0595 11.9442C18.1643 11.7749 18.0551 11.9657 18.1107 11.9787C18.1489 11.8519 18.2414 11.5352 18.1279 11.733C18.1058 11.7715 18.08 11.8862 18.0595 11.9442ZM17.9911 12.1117C18.0024 12.139 18.0184 12.2976 18.0483 12.1779C18.0619 12.1225 18.0266 12.0103 17.9911 12.1117ZM20.1706 3.84188C20.1128 4.00812 20.3057 3.21722 20.3126 3.195C20.3167 3.18347 20.3198 3.17606 20.3219 3.17199C20.3237 3.14083 20.357 2.99019 20.372 2.97722C20.3611 3.02202 20.3348 3.1457 20.3303 3.15948C20.3283 3.16542 20.3268 3.16981 20.3255 3.17276C20.3245 3.23022 20.1825 3.81032 20.1706 3.84188ZM19.8393 5.14774C19.8535 4.93675 19.919 4.92455 19.9166 4.94226C19.8891 5.16719 19.8799 5.00965 19.8765 5.01552C19.8695 5.02919 19.8527 5.19004 19.8395 5.14712C19.8394 5.14733 19.8394 5.14753 19.8393 5.14774ZM20.1007 4.10874C20.102 4.10036 20.1421 3.93449 20.1443 3.92792C20.191 3.79749 20.0791 4.26747 20.1007 4.10874ZM5.05513 26.2357C5.08099 26.3562 4.98638 26.2677 4.97923 26.1833C4.97897 26.1763 5.03228 26.1295 5.05513 26.2357ZM17.9758 12.2097C17.9604 12.2337 17.7241 12.9116 17.8055 12.8978C17.8154 12.8361 18.0779 12.0631 17.9758 12.2097ZM16.3669 17.3388C16.4071 17.2187 16.4426 17.3814 16.3922 17.4339C16.3735 17.4534 16.3568 17.3691 16.3669 17.3388ZM4.0347 23.4066C3.95482 23.2979 4.09187 23.2687 4.08411 23.3959C4.0838 23.4009 4.03783 23.4108 4.0347 23.4066ZM16.724 16.3935C16.6369 16.8284 16.4251 16.6324 16.6825 16.1246C16.6877 16.1458 16.693 16.167 16.6982 16.1882C16.9344 15.5777 16.729 16.1523 16.6931 16.3106C16.6796 16.3708 16.7355 16.3382 16.7245 16.3932C16.7243 16.3933 16.7242 16.3934 16.724 16.3935ZM16.1524 17.9694C15.8377 18.2959 16.2118 17.5819 16.2605 17.3536C16.2632 17.5948 16.1613 17.8668 16.3605 17.5212C16.1942 18.0764 16.1977 17.819 16.1847 17.8386C16.1694 17.8619 16.1658 17.9555 16.1524 17.9694ZM16.4991 16.9147C16.5016 16.8895 16.5937 16.7293 16.6082 16.6642C16.6392 16.7758 16.4839 17.0822 16.4991 16.9147ZM19.5197 6.52783C19.5005 6.50379 19.4933 6.46044 19.5374 6.32255C19.5375 6.37066 19.5247 6.46484 19.5197 6.52783ZM1.13063 13.5455C1.10615 13.4478 1.06108 13.2517 1.06021 13.3181C1.06046 13.3252 1.1207 13.5494 1.13063 13.5455ZM17.3449 14.2009C17.3337 14.2192 17.1681 14.742 17.2712 14.5798C17.3024 14.5309 17.442 14.0508 17.3449 14.2009ZM18.1593 11.4763C18.1462 11.5204 18.1014 11.7027 18.109 11.71C18.1356 11.7342 18.182 11.5069 18.1593 11.4763ZM1.01702 13.0484C1.01507 13.035 0.934122 12.7392 0.9361 12.7747C0.939253 12.8423 1.02297 13.0947 1.01702 13.0484ZM5.3149 26.6031C5.32535 26.6262 5.28516 26.68 5.28757 26.6885C5.2937 26.7083 5.47289 27.1372 5.34518 26.9987C5.32361 26.9757 5.12219 26.3346 5.09952 26.2497C5.15814 26.188 5.18822 26.4858 5.21902 26.5482C5.22455 26.5592 5.28633 26.5413 5.31453 26.603C5.31465 26.603 5.31477 26.603 5.3149 26.6031ZM19.6799 5.78172C19.665 5.75369 19.7872 5.2141 19.8069 5.22883C19.7646 5.41314 19.7223 5.59744 19.6799 5.78172ZM19.6089 6.05225C19.5658 6.16056 19.6285 5.8916 19.6544 5.81527C19.6678 5.81969 19.6152 6.03648 19.6089 6.05225ZM17.7324 12.4217C17.7255 12.478 17.8274 12.3369 17.8268 12.3774C17.8263 12.4032 17.7711 12.5133 17.7766 12.5576C17.7788 12.5704 17.8647 12.47 17.8727 12.4343C17.8844 12.3836 17.831 12.4159 17.8468 12.3618C17.8992 12.1821 17.9735 12.034 18.0219 11.8653C18.0262 11.85 17.9648 11.9572 18.0032 11.8277C18.0091 11.8077 18.084 11.7031 18.1229 11.5454C18.1021 11.1543 18.2924 10.9494 18.3741 10.4964C18.3591 10.5087 18.2363 10.8228 18.2294 10.8415C18.1049 11.1976 17.9094 11.8467 17.7945 12.226C17.7651 12.3233 17.8062 12.2868 17.7946 12.3291C17.7854 12.3626 17.7473 12.3032 17.7324 12.4217ZM1.15629 13.5919C1.16554 13.5364 1.1081 13.3801 1.08167 13.2759C1.07296 13.3203 1.13378 13.4887 1.15629 13.5919ZM18.9618 8.43537C18.9494 8.48773 18.8946 8.64352 18.9024 8.66133C18.9128 8.68443 18.9841 8.45642 18.9618 8.43537ZM6.21137 29.0699C6.21499 29.0739 6.25712 29.1952 6.25678 29.2006C6.24453 29.3303 6.11874 28.9664 6.21137 29.0699ZM11.555 29.827C11.5845 29.7342 11.6011 29.6353 11.6703 29.6279C11.6375 29.6814 11.5898 29.8532 11.555 29.827ZM13.1593 25.9174C13.0769 25.9061 13.2329 25.6537 13.2598 25.605C13.2856 25.6374 13.2188 25.9254 13.1593 25.9174ZM19.4149 6.50856C19.4625 6.33517 19.4059 6.35314 19.4565 6.25121C19.4649 6.23465 19.5765 6.21482 19.491 6.39216C19.4753 6.42395 19.4875 6.27991 19.4149 6.50856ZM16.713 16.0373C16.6853 15.9773 16.7415 15.8468 16.7742 15.7565C16.7982 15.7893 16.7311 15.971 16.713 16.0373ZM0.889636 12.5062C0.884397 12.4173 0.771641 12.0444 0.786753 12.1421C0.788703 12.1561 0.875943 12.453 0.889636 12.5062ZM4.61608 24.7475C4.71437 24.8787 4.61891 24.5606 4.54068 24.4808C4.55907 24.5243 4.60955 24.7386 4.61608 24.7475ZM12.7421 26.8438C12.7427 26.8358 12.8111 26.6812 12.8166 26.6753C12.9259 26.5699 12.7327 27.0074 12.7421 26.8438ZM11.0686 30.7172C11.0487 30.6437 11.2424 30.2903 11.3222 30.2256C11.3533 30.331 11.0937 30.8086 11.0686 30.7172ZM19.2393 7.23016C19.2713 7.10568 19.309 6.99049 19.3477 6.87984C19.3585 6.91069 19.2564 7.22248 19.2393 7.23016ZM12.968 26.2663C12.9716 26.258 12.9792 26.2515 12.9829 26.2437C12.9779 26.2514 12.9728 26.2589 12.968 26.2663ZM18.4605 9.99138C18.4218 10.0909 18.4705 10.0866 18.4736 10.0807C18.5093 10.0084 18.5041 9.87859 18.4605 9.99138ZM1.1557 13.4594C1.1647 13.4152 1.10201 13.2467 1.07894 13.1441C1.07292 13.1793 1.13142 13.3792 1.1557 13.4594ZM15.8923 18.3498C15.7867 18.4522 15.8926 17.9065 15.9691 17.8131C16.0094 17.8201 15.9071 18.3346 15.8923 18.3498ZM4.53047 24.246C4.56695 24.2187 4.44314 24.0223 4.44045 24.0765C4.43855 24.1109 4.50759 24.2628 4.53047 24.246ZM16.0829 17.5629C16.086 17.5089 16.1673 17.4126 16.18 17.4631C16.1965 17.5279 16.0825 17.577 16.0829 17.5629ZM17.4702 13.1605C17.4578 13.1797 17.4063 13.4839 17.481 13.3796C17.5327 13.3072 17.4833 13.2726 17.4892 13.253C17.4962 13.2314 17.7033 12.7926 17.4702 13.1605ZM14.8372 21.2215C14.8577 21.1072 14.9257 20.9861 14.9647 20.8734C14.9775 20.9308 14.8928 21.1916 14.8372 21.2215ZM4.83525 25.0773C4.84243 25.0441 4.60142 24.3282 4.69297 24.7544C4.69834 24.7792 4.81248 25.1784 4.83525 25.0773ZM19.4149 6.50856C19.4089 6.53042 19.4012 6.55535 19.3913 6.58388C19.3998 6.55505 19.408 6.53024 19.4149 6.50856ZM18.878 8.47933C18.8701 8.43186 18.8087 8.63052 18.8025 8.69388C18.8213 8.72169 18.8791 8.48588 18.878 8.47933ZM14.9198 20.8457C14.9234 20.7733 14.9866 20.6644 15.013 20.5834C15.04 20.6097 14.9624 20.8308 14.9198 20.8457ZM13.1842 25.3423C13.2539 25.2234 13.3058 25.0635 13.2658 25.0447C13.2732 25.0446 13.2824 25.0412 13.2932 25.0337C13.304 25.0261 13.338 24.8825 13.375 24.8289C13.5966 24.5086 12.8889 26.2139 13.164 25.1715C13.1708 25.2284 13.1775 25.2854 13.1842 25.3423ZM6.92355 30.4122C6.94277 30.3198 6.80377 30.1437 6.80567 30.204C6.8071 30.246 6.90388 30.5049 6.92355 30.4122ZM11.8932 28.4244C11.8756 28.4422 11.8292 28.6515 11.8532 28.667C11.9274 28.5657 11.9747 28.3436 11.8932 28.4244ZM6.76155 29.8347C6.75094 29.7864 6.65227 29.7613 6.65104 29.7681C6.64111 29.826 6.74881 29.9289 6.76155 29.8347ZM19.2232 6.83051C19.1933 6.89635 19.1568 7.12979 19.1682 7.18834C19.161 7.19549 19.148 7.2174 19.1281 7.25907C19.1281 7.25893 19.1281 7.2588 19.1282 7.25866C19.103 7.31563 18.5787 9.11045 18.9733 7.92373C18.9856 7.88652 18.9472 7.92868 18.9947 7.77635C18.9978 7.76629 19.0185 7.76893 19.0282 7.73785C19.0506 7.66637 19.1684 7.28498 19.1751 7.2015C19.1786 7.20218 19.1832 7.19844 19.189 7.18894C19.2403 7.10385 19.2456 6.77911 19.2232 6.83051ZM12.0462 28.0339C12.0156 28.0675 11.9779 28.1976 12.0068 28.2242C12.0491 28.1691 12.1173 27.956 12.0462 28.0339ZM4.94522 25.0048C4.9393 24.9129 4.82119 24.7244 4.82038 24.7971C4.81961 24.8417 4.95184 25.1107 4.94522 25.0048ZM11.5461 29.2874C11.7787 28.8449 11.5887 29.1767 11.5684 29.0865C11.561 29.1535 11.5536 29.2205 11.5461 29.2874ZM19.8743 4.61215C19.8505 4.68805 19.8432 4.58476 19.8822 4.50634C19.8944 4.48169 19.8873 4.56959 19.8743 4.61215ZM20.7398 1.10196C20.7168 1.16563 20.7994 0.842674 20.773 0.970873C20.7718 0.976842 20.7413 1.09733 20.7398 1.10196ZM20.1263 3.55132C20.1276 3.6098 20.1211 3.64494 20.0796 3.79166C20.131 3.57046 20.0658 3.76858 20.1263 3.55132ZM13.2588 25.0435C13.2615 25.0437 13.2636 25.0437 13.2658 25.0447C13.2632 25.0448 13.261 25.0443 13.2588 25.0435ZM6.57681 29.4052C6.60205 29.3267 6.53528 29.1655 6.50615 29.2345C6.50353 29.2411 6.53223 29.3966 6.57681 29.4052ZM19.1682 7.18834C19.1747 7.182 19.1762 7.18718 19.1751 7.2015C19.1718 7.20087 19.1697 7.19623 19.1682 7.18834ZM6.95796 30.261C6.91946 30.2707 7.00294 30.5239 7.01117 30.5319C7.13043 30.6466 7.00037 30.3621 6.95796 30.261ZM4.39975 23.3284C4.39218 23.3167 4.34466 23.4332 4.3926 23.4716C4.42991 23.5012 4.4286 23.3718 4.39975 23.3284ZM20.2494 3.04599C20.2704 2.96382 20.2999 2.84813 20.3144 2.83043C20.2992 2.88503 20.2563 3.05063 20.2494 3.04599ZM20.7037 1.22687C20.6847 1.3263 20.6313 1.54945 20.5954 1.69118C20.5861 1.69034 20.6832 1.31913 20.7037 1.22687ZM19.2964 6.61414C19.2934 6.62037 19.2271 6.82094 19.2561 6.80154C19.2985 6.77317 19.3234 6.56087 19.2964 6.61414ZM4.49469 23.7332C4.55263 23.8109 4.56083 23.5713 4.46545 23.504C4.41676 23.4693 4.485 23.7201 4.49469 23.7332ZM6.4422 28.8702C6.37145 28.7652 6.43612 29.073 6.49881 29.093C6.48189 29.0379 6.46734 28.9075 6.4422 28.8702ZM11.6293 28.6955C11.3347 28.9999 11.6794 28.9078 11.6831 28.8344C11.6836 28.824 11.6364 28.688 11.6293 28.6955ZM0.691995 11.5324C0.673552 11.4799 0.715852 11.6869 0.732062 11.7091C0.742372 11.7227 0.704007 11.5658 0.691995 11.5324ZM13.9036 23.246C13.8982 23.2617 13.8929 23.2772 13.8875 23.2926C13.8895 23.2802 13.8944 23.2649 13.9036 23.246ZM6.21495 27.7388C6.127 28.0767 6.26066 27.9879 6.26863 28.0106C6.28527 28.0599 6.27764 28.1942 6.32111 28.2818C6.25962 28.1865 6.19836 28.091 6.13735 27.9954C6.15527 28.0839 6.36032 28.8313 6.39723 28.8329C6.44959 28.8356 6.34877 28.616 6.35015 28.6077C6.35203 28.5959 6.46034 28.5084 6.45684 28.4855C6.45068 28.4481 6.22192 27.8477 6.21495 27.7388ZM11.3355 29.4611C11.3754 29.4092 11.4339 29.4132 11.4329 29.3813C11.4326 29.3704 11.384 29.3493 11.3845 29.3128C11.3682 29.3622 11.3519 29.4117 11.3355 29.4611ZM5.87215 27.3479C5.89913 27.2514 6.00251 27.5882 6.00036 27.6013C5.98417 27.6735 5.84991 27.4269 5.87215 27.3479ZM6.95134 30.1196C6.95 30.1063 6.86928 29.8482 6.8381 29.8639C6.83968 29.9407 6.96452 30.2785 6.95134 30.1196ZM11.3974 29.2726C11.4397 29.1877 11.5583 29.0427 11.4762 29.032C11.4761 29.0321 11.4761 29.0322 11.476 29.0323C11.4499 29.1125 11.4237 29.1926 11.3974 29.2726ZM4.7296 23.9837C4.76603 23.7775 4.67337 23.9075 4.69444 24.0672C4.75356 24.093 4.72369 24.0175 4.7296 23.9837ZM4.61055 23.4249C4.61074 23.3718 4.42262 22.906 4.39997 22.9991C4.39155 23.0324 4.53257 23.2861 4.53381 23.3C4.53551 23.3212 4.44995 23.2577 4.51242 23.3985C4.52793 23.382 4.61051 23.443 4.61055 23.4249ZM4.74173 23.8208C4.7548 23.6258 4.60841 23.646 4.65221 23.7696C4.6692 23.818 4.73968 23.8487 4.74173 23.8208ZM4.97314 24.4951C4.96476 24.4305 4.92618 24.2656 4.8417 24.1767C4.89033 24.3233 4.93904 24.4698 4.98786 24.6163C5.02 24.6218 4.98045 24.5516 4.97299 24.4947C4.97304 24.4948 4.97309 24.495 4.97314 24.4951ZM20.946 0.197272C20.9081 0.331065 20.9937 0.0221596 20.9975 0.00913274C21.008 -0.0297321 20.9627 0.137335 20.946 0.197272ZM0.562077 10.4127C0.549916 10.3761 0.546749 10.3502 0.511876 10.2731C0.539248 10.3539 0.565827 10.4351 0.591624 10.5166C0.627944 10.573 0.575392 10.4527 0.562077 10.4127ZM0.474097 10.097C0.47908 10.1079 0.466588 10.0419 0.519539 10.1881C0.553524 10.2877 0.324571 9.76513 0.288061 9.66874C0.335025 9.77241 0.431559 10.0027 0.474097 10.097ZM0.0875176 9.17552C0.0846622 9.16958 0.182268 9.36355 0.193266 9.38613C0.250202 9.50504 0.102344 9.20788 0.0875176 9.17552ZM0.394031 9.79639C0.35071 9.70437 0.45246 9.90575 0.48106 9.9665C0.481583 9.97336 0.400701 9.81062 0.394031 9.79639ZM20.3045 1.44906C20.2438 1.54322 20.2304 1.64383 20.2968 1.48812C20.2999 1.48068 20.3071 1.44506 20.3045 1.44906ZM0.186893 9.36345C0.232285 9.45458 0.129252 9.25376 0.0990281 9.1937C0.0965634 9.18797 0.179938 9.3496 0.186893 9.36345ZM20.2401 1.50668C20.1645 1.63377 20.221 1.601 20.2301 1.58496C20.2677 1.51899 20.3685 1.28164 20.3899 1.23347C20.2236 1.58258 20.2752 1.44667 20.2401 1.50668ZM19.964 2.12191C19.91 2.24624 20.0684 1.9366 20.0863 1.8726C20.0575 1.9336 19.9796 2.08661 19.964 2.12191ZM19.5871 2.85698C19.553 2.92184 19.452 3.11483 19.446 3.15159C19.4792 3.07923 19.5829 2.88845 19.5871 2.85698ZM19.4859 2.99419C19.4216 3.09114 19.4483 3.13125 19.4951 3.00851C19.4969 3.00374 19.4885 2.99072 19.4859 2.99419ZM19.1838 3.56297C19.1322 3.62279 19.1382 3.71706 19.1931 3.6086C19.2093 3.57633 19.1894 3.55668 19.1838 3.56297ZM20.1205 1.6558C20.0662 1.74932 20.0188 1.87881 20.1259 1.67563C20.0912 1.74816 20.0568 1.82083 20.0227 1.89361C20.1682 1.62952 20.1371 1.64075 20.1781 1.5646C20.2351 1.45812 20.2456 1.47253 20.2397 1.49609C20.2745 1.40401 20.4667 1.03048 20.5772 0.814366C20.4773 1.00318 20.3115 1.30814 20.2109 1.49366C20.1822 1.54663 20.1596 1.60016 20.1355 1.64546C20.0966 1.71803 20.1235 1.65053 20.1207 1.65543C20.1207 1.65555 20.1206 1.65567 20.1205 1.6558ZM18.806 4.31832C18.6836 4.50589 18.7982 4.40215 18.8437 4.2867C18.8453 4.28166 18.809 4.31366 18.806 4.31832ZM0.0575231 9.10207C0.201837 9.35944 0.0918591 9.17454 0.39801 9.71113C0.267041 9.4867 0.387313 9.7002 0.360678 9.65685C0.339596 9.62195 0.26815 9.48796 0.30757 9.56675C0.255494 9.4633 0.0117553 9.02172 0.00107528 9.00196C0.00117718 9.00214 0.00127908 9.00233 0.00138098 9.00251C-0.0051983 8.99071 0.0111787 9.02007 0.0575231 9.10207ZM19.495 2.82129C19.4175 2.86917 19.4733 2.92246 19.3692 3.03589C19.3343 3.22842 19.6176 2.56488 19.6979 2.50292C19.3352 3.20154 19.9727 2.05543 19.6649 2.5212C19.8942 2.12778 19.7269 2.38704 19.7524 2.32236C19.7803 2.25339 19.9083 2.03015 19.8905 2.03697C19.8904 2.0371 19.8904 2.03722 19.8903 2.03735C19.8168 2.17579 19.7436 2.31437 19.6707 2.45306C19.7718 2.32921 19.6153 2.60962 19.5373 2.69475C19.5229 2.73682 19.5088 2.779 19.495 2.82129ZM19.9322 2.04619C19.9244 2.05961 19.7723 2.36384 19.7883 2.34666C19.8123 2.30752 20.0283 1.87578 19.9322 2.04619ZM20.6218 0.715267C20.5649 0.823593 20.4741 0.989951 20.4481 1.05099C20.505 0.942622 20.5942 0.775607 20.6218 0.715267ZM17.7512 6.31696C17.7041 6.46519 17.9226 6.03815 17.836 6.15234C17.8317 6.15797 17.7536 6.3097 17.7512 6.31696ZM19.3375 3.13832C19.2496 3.27308 19.3309 3.22531 19.3723 3.116C19.3748 3.1097 19.3415 3.1321 19.3375 3.13832ZM0.17538 9.31024C0.181864 9.31894 0.391902 9.69208 0.428783 9.75838C0.404651 9.72207 0.168321 9.3001 0.17538 9.31024ZM20.7149 0.521795C20.589 0.732288 20.441 1.02703 20.4251 1.05947C20.4076 1.09105 20.4283 1.0388 20.4243 1.04598C20.4148 1.06227 20.2312 1.39985 20.223 1.41647C20.2173 1.42841 20.2615 1.37173 20.228 1.44315C20.2937 1.30395 20.6298 0.686965 20.6462 0.654538C20.6593 0.629569 20.5516 0.814216 20.7147 0.522168C20.7147 0.522039 20.7148 0.521917 20.7149 0.521795ZM20.3801 1.13844C20.4294 1.05548 20.3027 1.29278 20.2703 1.34949C20.1978 1.47531 20.3736 1.14905 20.3801 1.13844ZM20.0675 1.70599C20.0517 1.73252 19.918 1.97585 19.9146 1.9997C19.986 1.88777 20.1033 1.6457 20.0675 1.70599ZM18.6207 4.42957C18.5895 4.49417 18.4852 4.66441 18.4945 4.68027C18.5257 4.61561 18.6293 4.44512 18.6207 4.42957ZM0.935625 10.5647C0.878686 10.4597 1.02278 10.6977 1.06181 10.7684C1.06002 10.7739 0.940463 10.5736 0.935625 10.5647ZM19.2281 3.12337C19.2036 3.15919 18.7909 3.92516 18.7395 4.03521C18.8062 3.9341 19.2196 3.17676 19.2353 3.14118C19.2396 3.1307 19.2313 3.1188 19.2281 3.12337ZM20.1491 1.47822C20.1816 1.40585 20.2161 1.36395 20.221 1.35517C20.271 1.26957 20.3713 1.0908 20.3545 1.13206C20.2657 1.28285 20.0855 1.6227 20.1491 1.47822ZM18.4988 4.44701C18.3656 4.70986 18.6575 4.21937 18.6011 4.27648C18.5976 4.28021 18.5127 4.41986 18.4988 4.44701ZM19.2712 3.03657C19.2909 2.97473 19.7285 2.21846 19.7973 2.09644C19.7512 2.21194 19.6901 2.29545 19.6083 2.44261C19.5864 2.48236 19.5997 2.47476 19.5974 2.47903C19.5595 2.54792 19.5794 2.49299 19.5556 2.53529C19.5398 2.56171 19.243 3.12343 19.2712 3.03657ZM20.1667 1.43656C20.1864 1.39237 20.4595 0.920078 20.4714 0.901459C20.5583 0.761222 20.1892 1.40034 20.1667 1.43656ZM19.2126 3.09856C19.2333 3.0067 19.4648 2.63679 19.33 2.89943C19.3173 2.92458 19.2475 3.02465 19.2126 3.09856ZM18.4801 4.40577C18.4721 4.41811 18.3153 4.68494 18.3246 4.69459C18.3507 4.6574 18.5716 4.26535 18.4801 4.40577ZM18.5206 4.25107C18.5172 4.25769 18.5736 4.20297 18.5003 4.32818C18.4943 4.33864 18.4589 4.34849 18.3787 4.51068C18.3625 4.5436 18.3514 4.60025 18.3545 4.59707C18.4842 4.44668 18.6915 3.9204 18.5206 4.25107ZM20.1648 1.42515C20.1464 1.44909 20.1718 1.38368 20.2095 1.33061C20.2256 1.30781 20.2056 1.35435 20.1648 1.42515ZM17.9971 5.25775C18.0622 5.09217 17.7855 5.583 17.7777 5.61053C17.8009 5.60049 17.9906 5.2743 17.9971 5.25775ZM1.14083 10.7796C1.14075 10.7795 1.14068 10.7794 1.1406 10.7792C1.21967 10.9082 1.16254 10.8318 1.16618 10.8379C1.32618 11.1161 1.29765 11.0363 1.3267 11.0781C1.38897 11.1677 1.35727 11.1626 1.46292 11.3134C1.28994 11.0633 1.44052 11.2939 1.43638 11.3049C1.42057 11.348 1.24234 10.9564 1.15481 10.8322C1.14312 10.8147 1.21529 10.9501 1.18452 10.9055C1.08799 10.7593 0.836369 10.2853 1.14083 10.7796ZM20.2337 1.28771C20.2637 1.22497 20.541 0.768726 20.4719 0.891435C20.4604 0.911036 20.19 1.38011 20.2337 1.28771ZM9.16651 23.3552C9.1673 23.2192 9.00017 23.4682 9.01647 23.5333C9.02461 23.5656 9.16614 23.4149 9.16651 23.3552ZM8.19431 25.1813C8.14863 25.325 8.28824 25.5516 8.32624 25.3653C8.33019 25.3454 8.22809 25.1762 8.19431 25.1813ZM12.22 16.1558C12.0902 16.273 12.2111 16.3112 12.2583 16.206C12.2751 16.1688 12.2241 16.1521 12.22 16.1558ZM9.78618 21.6373C9.77548 21.65 9.71289 21.8204 9.74532 21.8263C9.78929 21.7716 9.85692 21.5561 9.78618 21.6373ZM12.2247 16.1039C12.2061 16.1967 12.3582 16.085 12.3249 15.9491C12.3069 16.0042 12.2267 16.0944 12.2247 16.1039ZM18.9763 3.35351C18.9505 3.42715 18.8342 3.6182 18.7725 3.73001C18.7454 3.73386 18.9334 3.43383 18.9763 3.35351ZM8.51003 24.62C8.50635 24.7719 8.66013 24.5049 8.58464 24.5048C8.57965 24.507 8.51 24.6139 8.51003 24.62ZM14.4389 11.5867C14.4221 11.6914 14.6125 11.4137 14.5183 11.4734C14.5141 11.4766 14.4398 11.581 14.4389 11.5867ZM15.1179 10.313C15.0718 10.3791 14.9194 10.6787 15.0076 10.5737C15.0212 10.5573 15.1407 10.3285 15.1179 10.313ZM1.33989 11.0821C1.32881 11.0408 1.4599 11.2518 1.47656 11.2829C1.48266 11.2953 1.35376 11.1362 1.33989 11.0821ZM11.7778 17.0773C11.7517 17.1544 11.6477 17.3397 11.6667 17.3873C11.7012 17.294 11.8572 17.0803 11.7778 17.0773ZM8.75235 24.0178C8.62774 24.1015 8.55617 24.301 8.6777 24.2932C8.75849 24.0735 8.57515 24.2833 8.75235 24.0178ZM12.376 15.6009C12.3426 15.6577 12.4067 15.737 12.4139 15.732C12.4824 15.6834 12.4372 15.5556 12.376 15.6009ZM10.4124 20.0814C10.3704 20.0686 10.3049 20.2674 10.3423 20.2523C10.3547 20.2474 10.4463 20.0917 10.4124 20.0814ZM17.5877 5.74415C17.5237 5.82162 17.6545 5.55916 17.7161 5.4907C17.763 5.4642 17.5956 5.7343 17.5877 5.74415ZM13.1881 13.9797C13.1414 13.9505 13.0255 14.2558 13.1251 14.1571C13.1499 14.1323 13.2036 13.9895 13.1881 13.9797ZM14.5501 11.1585C14.5015 11.3749 14.9641 10.5696 14.7881 10.7594C14.7755 10.773 14.5545 11.1397 14.5501 11.1585ZM15.286 9.83543C15.2628 9.86683 15.136 9.79586 15.2633 9.67835C15.2798 9.66284 15.2695 9.76212 15.2857 9.75053C15.295 9.74366 15.4755 9.4497 15.4799 9.43459C15.4845 9.41827 15.4328 9.41899 15.4363 9.40197C15.4404 9.38286 15.5775 9.21233 15.6304 9.11544C15.7302 8.93292 15.7075 8.89982 15.7156 8.88482C15.7393 8.84116 15.8032 8.77736 15.8515 8.68897C16.0937 8.24287 16.4494 7.55466 16.7071 7.2273C16.5077 7.53062 16.3679 7.83974 16.2059 8.15608C16.1901 8.03814 16.0055 8.63667 16.1053 8.28333C16.038 8.43747 15.3594 9.73142 15.2862 9.83506C15.2861 9.83518 15.2861 9.8353 15.286 9.83543ZM7.91862 25.7103C7.881 25.5957 7.72493 26.0439 7.7927 26.1143C7.82663 26.0605 7.92243 25.7242 7.91862 25.7103ZM8.55656 23.61C8.56096 23.5643 8.43764 23.47 8.59601 23.2847C8.59609 23.2845 8.59617 23.2843 8.59625 23.2841C8.64254 23.2299 8.64709 23.3146 8.66386 23.308C8.67049 23.3058 8.81978 23.1388 8.76429 23.3049C8.67996 23.5583 8.65136 23.2867 8.59585 23.4176C8.58906 23.4336 8.56243 23.7128 8.58493 23.7049C8.58746 23.7042 8.60215 23.6229 8.61408 23.6133C8.65901 23.5768 8.69312 23.617 8.69788 23.6112C8.71182 23.5917 8.79963 23.1685 8.88792 23.1372C8.916 23.1268 8.69897 23.7922 8.67827 23.8132C8.66496 23.8264 8.54711 23.7715 8.52853 23.7832C8.51909 23.7893 8.45861 24.0677 8.43392 24.0971C8.42674 24.1056 8.42025 24.1118 8.41517 24.1161C8.4684 24.0916 8.3705 24.3265 8.33133 24.3024C8.3164 24.2917 8.39149 24.1331 8.39676 24.1285C8.39901 24.1264 8.40159 24.1249 8.40359 24.1233C8.34425 24.1386 8.56958 23.5902 8.45377 23.6817C8.4817 23.5078 8.54377 23.744 8.55656 23.61ZM8.79738 22.8166C8.8032 22.838 8.80902 22.8595 8.81485 22.8809C8.89943 22.5907 9.0945 22.2948 9.22936 21.9755C9.2637 21.8945 9.14732 21.9569 9.21343 21.8592C9.26643 21.7809 9.37765 21.7153 9.37382 21.7679C9.37297 21.7807 9.253 21.9352 9.22107 22.0238C9.1269 22.2854 9.2204 22.2472 9.21583 22.2628C9.21074 22.2801 9.09649 22.4227 9.06168 22.5117C8.97433 22.7353 8.97279 22.8528 8.79421 23.1346C8.82285 22.9422 8.68817 23 8.79738 22.8166ZM13.659 12.683C13.6317 12.6598 13.7509 12.4954 13.7791 12.4296C13.8061 12.4525 13.687 12.6171 13.659 12.683ZM6.12173 18.6889C6.04735 18.655 6.26215 19.056 6.24018 18.9355C6.23539 18.9088 6.15012 18.7387 6.12173 18.6889ZM7.10159 20.4842C7.14515 20.5315 7.06137 20.3018 7.0232 20.3187C7.01114 20.3242 7.09601 20.4781 7.10159 20.4842ZM10.4102 19.2731C10.4128 19.2618 10.496 19.1154 10.5015 19.112C10.6165 19.0389 10.3511 19.524 10.4102 19.2731ZM8.35738 22.6391C8.22109 22.4676 8.50534 23.0378 8.46059 22.8455C8.45835 22.8359 8.36402 22.6473 8.35738 22.6391ZM8.78436 23.418C8.75871 23.3739 8.67159 23.1665 8.65277 23.1713C8.62277 23.1793 8.72392 23.4161 8.78436 23.418ZM12.169 15.4707C12.0908 15.4657 12.2727 15.219 12.31 15.1228C12.3875 15.1274 12.2059 15.3744 12.169 15.4707ZM11.3054 17.1419C11.7891 15.9884 11.8179 16.2969 11.3081 17.2232C11.2619 17.2064 11.2751 17.2148 11.3054 17.1419ZM12.008 15.6982C12.0316 15.7566 11.9566 15.8795 11.9112 15.9647C11.8882 15.9369 11.9854 15.7637 12.008 15.6982ZM5.91554 18.1901C5.99505 18.2413 6.12362 18.5641 6.07535 18.5176C6.06465 18.5066 5.8796 18.1741 5.91554 18.1901ZM10.3899 19.1521C10.3058 19.1498 10.4908 18.8193 10.5187 18.7995C10.6306 18.7195 10.3865 19.118 10.3899 19.1521ZM12.9061 13.8537C12.8879 13.775 12.9987 13.6165 13.0547 13.5084C13.0703 13.574 12.9537 13.7621 12.9061 13.8537ZM12.4727 14.6222C12.4742 14.6146 12.5547 14.4648 12.5604 14.459C12.6709 14.3541 12.4442 14.7782 12.4727 14.6222ZM1.10225 10.5704C1.10578 10.575 1.17945 10.6826 1.1817 10.6865C1.23968 10.7859 1.01981 10.4624 1.10225 10.5704Z" fill="#C69059"/>
<path d="M26.458 12.776C25.9207 12.776 25.47 12.594 25.106 12.23C24.742 11.866 24.56 11.4153 24.56 10.878C24.56 10.3407 24.742 9.89 25.106 9.526C25.47 9.162 25.9207 8.98 26.458 8.98C26.978 8.98 27.42 9.162 27.784 9.526C28.148 9.89 28.33 10.3407 28.33 10.878C28.33 11.4153 28.148 11.866 27.784 12.23C27.42 12.594 26.978 12.776 26.458 12.776ZM27.914 14.674V29H24.95V14.674H27.914ZM37.4735 21.85L44.0775 29H40.0735L34.7695 22.838V29H31.8055V9.76H34.7695V20.94L39.9695 14.674H44.0775L37.4735 21.85ZM49.166 16.754C49.5993 16.026 50.1713 15.4627 50.882 15.064C51.61 14.648 52.468 14.44 53.456 14.44V17.508H52.702C51.5406 17.508 50.6566 17.8027 50.05 18.392C49.4606 18.9813 49.166 20.004 49.166 21.46V29H46.202V14.674H49.166V16.754ZM55.1925 21.772C55.1925 20.3333 55.4871 19.0593 56.0765 17.95C56.6831 16.8407 57.4978 15.9827 58.5205 15.376C59.5605 14.752 60.7045 14.44 61.9525 14.44C63.0791 14.44 64.0585 14.6653 64.8905 15.116C65.7398 15.5493 66.4158 16.0953 66.9185 16.754V14.674H69.9085V29H66.9185V26.868C66.4158 27.544 65.7311 28.1073 64.8645 28.558C63.9978 29.0087 63.0098 29.234 61.9005 29.234C60.6698 29.234 59.5431 28.922 58.5205 28.298C57.4978 27.6567 56.6831 26.7727 56.0765 25.646C55.4871 24.502 55.1925 23.2107 55.1925 21.772ZM66.9185 21.824C66.9185 20.836 66.7105 19.978 66.2945 19.25C65.8958 18.522 65.3671 17.9673 64.7085 17.586C64.0498 17.2047 63.3391 17.014 62.5765 17.014C61.8138 17.014 61.1031 17.2047 60.4445 17.586C59.7858 17.95 59.2485 18.496 58.8325 19.224C58.4338 19.9347 58.2345 20.784 58.2345 21.772C58.2345 22.76 58.4338 23.6267 58.8325 24.372C59.2485 25.1173 59.7858 25.6893 60.4445 26.088C61.1205 26.4693 61.8311 26.66 62.5765 26.66C63.3391 26.66 64.0498 26.4693 64.7085 26.088C65.3671 25.7067 65.8958 25.152 66.2945 24.424C66.7105 23.6787 66.9185 22.812 66.9185 21.824ZM81.0296 14.44C82.1562 14.44 83.1616 14.674 84.0456 15.142C84.9469 15.61 85.6489 16.3033 86.1516 17.222C86.6542 18.1407 86.9056 19.25 86.9056 20.55V29H83.9676V20.992C83.9676 19.7093 83.6469 18.73 83.0056 18.054C82.3642 17.3607 81.4889 17.014 80.3796 17.014C79.2702 17.014 78.3862 17.3607 77.7276 18.054C77.0862 18.73 76.7656 19.7093 76.7656 20.992V29H73.8016V14.674H76.7656V16.312C77.2509 15.7227 77.8662 15.2633 78.6116 14.934C79.3742 14.6047 80.1802 14.44 81.0296 14.44ZM94.1443 17.092V25.022C94.1443 25.5593 94.2657 25.9493 94.5083 26.192C94.7683 26.4173 95.2017 26.53 95.8083 26.53H97.6283V29H95.2883C93.9537 29 92.931 28.688 92.2203 28.064C91.5097 27.44 91.1543 26.426 91.1543 25.022V17.092H89.4643V14.674H91.1543V11.112H94.1443V14.674H97.6283V17.092H94.1443ZM119.75 16.312C119.75 17.2307 119.533 18.0973 119.1 18.912C118.667 19.7267 117.973 20.394 117.02 20.914C116.067 21.4167 114.845 21.668 113.354 21.668H110.078V29H107.114V10.93H113.354C114.741 10.93 115.911 11.1727 116.864 11.658C117.835 12.126 118.554 12.7673 119.022 13.582C119.507 14.3967 119.75 15.3067 119.75 16.312ZM113.354 19.25C114.481 19.25 115.321 18.9987 115.876 18.496C116.431 17.976 116.708 17.248 116.708 16.312C116.708 14.336 115.59 13.348 113.354 13.348H110.078V19.25H113.354ZM121.589 21.772C121.589 20.3333 121.884 19.0593 122.473 17.95C123.08 16.8407 123.894 15.9827 124.917 15.376C125.957 14.752 127.101 14.44 128.349 14.44C129.476 14.44 130.455 14.6653 131.287 15.116C132.136 15.5493 132.812 16.0953 133.315 16.754V14.674H136.305V29H133.315V26.868C132.812 27.544 132.128 28.1073 131.261 28.558C130.394 29.0087 129.406 29.234 128.297 29.234C127.066 29.234 125.94 28.922 124.917 28.298C123.894 27.6567 123.08 26.7727 122.473 25.646C121.884 24.502 121.589 23.2107 121.589 21.772ZM133.315 21.824C133.315 20.836 133.107 19.978 132.691 19.25C132.292 18.522 131.764 17.9673 131.105 17.586C130.446 17.2047 129.736 17.014 128.973 17.014C128.21 17.014 127.5 17.2047 126.841 17.586C126.182 17.95 125.645 18.496 125.229 19.224C124.83 19.9347 124.631 20.784 124.631 21.772C124.631 22.76 124.83 23.6267 125.229 24.372C125.645 25.1173 126.182 25.6893 126.841 26.088C127.517 26.4693 128.228 26.66 128.973 26.66C129.736 26.66 130.446 26.4693 131.105 26.088C131.764 25.7067 132.292 25.152 132.691 24.424C133.107 23.6787 133.315 22.812 133.315 21.824ZM159.438 14.674L154.992 29H151.872L148.986 18.418L146.1 29H142.98L138.508 14.674H141.524L144.514 26.192L147.556 14.674H150.65L153.562 26.14L156.526 14.674H159.438ZM160.665 21.772C160.665 20.3333 160.96 19.0593 161.549 17.95C162.156 16.8407 162.97 15.9827 163.993 15.376C165.033 14.752 166.177 14.44 167.425 14.44C168.552 14.44 169.531 14.6653 170.363 15.116C171.212 15.5493 171.888 16.0953 172.391 16.754V14.674H175.381V29H172.391V26.868C171.888 27.544 171.204 28.1073 170.337 28.558C169.47 29.0087 168.482 29.234 167.373 29.234C166.142 29.234 165.016 28.922 163.993 28.298C162.97 27.6567 162.156 26.7727 161.549 25.646C160.96 24.502 160.665 23.2107 160.665 21.772ZM172.391 21.824C172.391 20.836 172.183 19.978 171.767 19.25C171.368 18.522 170.84 17.9673 170.181 17.586C169.522 17.2047 168.812 17.014 168.049 17.014C167.286 17.014 166.576 17.2047 165.917 17.586C165.258 17.95 164.721 18.496 164.305 19.224C163.906 19.9347 163.707 20.784 163.707 21.772C163.707 22.76 163.906 23.6267 164.305 24.372C164.721 25.1173 165.258 25.6893 165.917 26.088C166.593 26.4693 167.304 26.66 168.049 26.66C168.812 26.66 169.522 26.4693 170.181 26.088C170.84 25.7067 171.368 25.152 171.767 24.424C172.183 23.6787 172.391 22.812 172.391 21.824ZM182.238 16.754C182.672 16.026 183.244 15.4627 183.954 15.064C184.682 14.648 185.54 14.44 186.528 14.44V17.508H185.774C184.613 17.508 183.729 17.8027 183.122 18.392C182.533 18.9813 182.238 20.004 182.238 21.46V29H179.274V14.674H182.238V16.754Z" fill="white"/>
</svg>
