<svg width="64" height="65" viewBox="0 0 64 65" fill="none" xmlns="http://www.w3.org/2000/svg">
<path fill-rule="evenodd" clip-rule="evenodd" d="M63.108 0.369093C44.9965 0.363507 26.966 0.364015 8.854 0.364015C6.2635 0.364015 3.6285 0.361984 1.038 0.369601C0.874 0.370109 0.5 0.447297 0.5 0.489445V64.4921H63.5V0.489445C63.5 0.447297 63.293 0.369093 63.108 0.369093ZM56.74 58.2287C40.4195 58.2094 24.1045 58.2135 7.784 58.2135C6.996 58.2135 6.9995 58.212 6.9995 57.3873V7.72476C7 6.9087 6.992 7.10929 7.7885 7.10929H56.6875C57.5065 7.10929 57.5 6.90819 57.5 7.76487V32.5649C57.5 40.8524 57.4965 49.1399 57.518 57.4269C57.52 58.0581 57.3735 58.2293 56.74 58.2287ZM28.41 20.1316C25.076 19.3379 21.72 19.7294 18.3675 20.0773C17.656 20.1514 17.52 20.4607 17.522 21.1021C17.5435 28.8244 17.5 36.5467 17.5 44.269V44.6874H22V35.6174C24.5 35.8078 26.788 35.7626 29.0245 34.9521C32.609 33.6532 34.4005 30.8333 34.207 26.7159C34.0505 23.3908 31.994 20.9848 28.41 20.1316V20.1316ZM27.4335 31.4782C25.8365 32.2689 24.1385 32.2501 22.431 32.0155C22.298 31.9972 22.0935 31.756 22.0925 31.6173C22.0725 28.9102 22.0775 26.2035 22.0775 23.4223C23.643 23.1744 25.1275 23.0536 26.6085 23.4314C28.445 23.9001 29.5105 25.1168 29.709 26.9439C29.927 28.9518 29.0855 30.6606 27.4335 31.4782V31.4782ZM44.084 35.0867C43.3495 34.6779 42.544 34.4027 41.781 34.0442C41.076 33.7126 40.3645 33.386 39.694 32.99C39.2265 32.7142 39.014 32.2323 39.014 31.6641C39.014 30.7033 39.661 29.9289 40.766 29.8369C41.5905 29.7684 42.4465 29.8547 43.263 30.0096C43.951 30.1396 44.6035 30.4661 45.304 30.718L46.1875 27.5345C44.515 26.7098 42.813 26.3996 41.045 26.463C39.542 26.5164 38.138 26.9053 36.869 27.7828C34.4975 29.4226 33.3405 33.7786 36.8945 36.1191C37.797 36.7137 38.841 37.0865 39.82 37.5618C40.429 37.8578 41.0645 38.1097 41.6405 38.4616C42.3665 38.9055 42.6135 39.6281 42.4875 40.4624C42.364 41.2825 41.8225 41.802 41.0695 41.9219C40.2295 42.0559 39.3365 42.1428 38.5105 41.995C37.341 41.7863 36.211 41.3445 35.0235 40.99C34.8105 41.7975 34.608 42.6907 34.3315 43.5596C34.18 44.0359 34.269 44.271 34.729 44.4574C37.5375 45.5903 40.396 45.8234 43.27 44.8215C45.418 44.0725 46.7275 42.5241 46.898 40.1653C47.064 37.8665 46.044 36.1785 44.084 35.0867V35.0867Z" fill="#80B5E2"/>
</svg>
