<svg width="20" height="20" viewBox="0 0 20 20" fill="none" xmlns="http://www.w3.org/2000/svg">
<path d="M9.96209 19.923L8.96611 16.9351H1.99195C1.44412 16.9351 0.975175 16.7404 0.585105 16.3512C0.195035 15.9611 0 15.4921 0 14.9443V2.00019C0 1.45236 0.194642 0.981846 0.583927 0.588637C0.974782 0.196212 1.44412 0 1.99195 0H7.96896L8.84015 2.98674H17.9299C18.5107 2.98674 18.9882 3.17314 19.3626 3.54595C19.737 3.91875 19.9238 4.39594 19.923 4.97751V17.9216C19.923 18.4695 19.7362 18.94 19.3626 19.3332C18.989 19.7264 18.5114 19.9226 17.9299 19.9218L9.96209 19.923ZM5.14586 12.5462C6.29645 12.5462 7.2367 12.1769 7.96661 11.4384C8.69652 10.6998 9.06147 9.74115 9.06147 8.56231C9.06147 8.38964 9.0603 8.25465 9.05794 8.15733C9.05559 8.06001 9.03754 7.96543 9.00379 7.87361H5.04697V9.40406H7.28144C7.14016 9.87811 6.88627 10.2446 6.51974 10.5036C6.154 10.7626 5.70468 10.8921 5.17176 10.8921C4.52269 10.8921 3.96506 10.6551 3.49886 10.1811C3.03266 9.70701 2.79956 9.13564 2.79956 8.46695C2.79956 7.79826 3.03109 7.22689 3.49415 6.75284C3.95721 6.27879 4.5117 6.04177 5.15764 6.04177C5.45509 6.04177 5.7345 6.09435 5.99585 6.19952C6.25721 6.30469 6.50012 6.46951 6.72459 6.69398L7.94071 5.53672C7.5891 5.1804 7.16842 4.89981 6.67867 4.69497C6.18893 4.49012 5.67093 4.3877 5.12467 4.3877C4.01333 4.3877 3.06366 4.78562 2.27567 5.58145C1.48611 6.37729 1.09133 7.33873 1.09133 8.46577C1.09133 9.59282 1.48768 10.555 2.28038 11.3524C3.07308 12.1499 4.02824 12.5478 5.14586 12.5462ZM11.801 13.0442L12.3578 12.5168C12.1279 12.2287 11.9117 11.954 11.7092 11.6927C11.5067 11.4313 11.3199 11.1547 11.1488 10.8627L11.801 13.0442ZM13.0454 11.7704C13.5131 11.2241 13.8683 10.703 14.1108 10.207C14.3533 9.71094 14.5162 9.31851 14.5994 9.02969H10.6437L10.938 10.0833H11.9187C12.0498 10.3337 12.2075 10.6033 12.392 10.8921C12.5764 11.181 12.7942 11.4745 13.0454 11.7704ZM10.9581 18.927H17.9311C18.2301 18.927 18.471 18.8313 18.6539 18.6398C18.836 18.4491 18.927 18.2128 18.927 17.9311V4.98928C18.927 4.69104 18.836 4.44852 18.6539 4.26173C18.471 4.07651 18.2305 3.98389 17.9322 3.98389H9.14977L10.3153 8.02783H12.2766V6.98006H13.295V8.02783H16.9351V9.03086H15.6613C15.4949 9.65561 15.2492 10.2682 14.9243 10.8686C14.6002 11.4698 14.2109 12.029 13.7564 12.5462L16.4665 15.2198L15.7484 15.9379L13.0465 13.2573L12.1459 14.165L12.9524 16.9339L10.9581 18.927Z" fill="#C69059"/>
</svg>
