<svg width="64" height="65" viewBox="0 0 64 65" fill="none" xmlns="http://www.w3.org/2000/svg">
<path fill-rule="evenodd" clip-rule="evenodd" d="M21.6285 61.5637C21.668 62.0807 21.643 62.6154 21.778 63.106C21.8355 63.3131 22.228 63.4254 22.4685 63.5808L22.781 63.7844C22.6635 63.854 22.5465 63.9819 22.4275 63.9835C21.4946 63.9998 20.5614 64.0001 19.6285 63.9845C19.5045 63.9824 19.383 63.8641 19.261 63.7996C19.36 63.727 19.455 63.6011 19.5595 63.5924C20.185 63.5391 20.3755 63.1532 20.3725 62.5824C20.367 61.5333 20.3695 60.4831 20.374 59.4329C20.3765 58.8479 20.213 58.4209 19.5345 58.3945C19.4405 58.3904 19.3515 58.2442 19.2605 58.1644C19.3515 58.1081 19.4435 58.0014 19.5335 58.0029C20.7285 58.0177 21.9285 57.9908 23.117 58.0928C24.0535 58.1736 24.6705 58.8317 24.734 59.5904C24.803 60.4227 24.3825 60.994 23.4315 61.3606L23.067 61.4987C23.6795 62.0868 24.222 62.6616 24.825 63.1603C25.0925 63.3822 25.4715 63.5142 25.8195 63.5752C26.516 63.696 26.894 63.3919 26.913 62.6906C26.9435 61.5587 26.929 60.4252 26.9185 59.2928C26.9135 58.7738 26.694 58.431 26.124 58.4026C26.0165 58.3975 25.914 58.2741 25.8095 58.2056C25.929 58.1345 26.0485 58.0024 26.167 58.0029C27.383 58.0131 28.6045 57.975 29.8125 58.0847C31.874 58.2706 33.0225 60.0129 32.4195 61.938C32.052 63.112 31.172 63.7758 30.04 63.854C28.061 63.9911 26.071 63.9631 24.0855 63.9774C23.9275 63.9784 23.7325 63.8042 23.6135 63.661C23.1565 63.11 22.7255 62.5372 22.2795 61.9771C22.1445 61.8075 21.994 61.6516 21.8505 61.4891L21.6285 61.5637ZM28.188 58.5834C28.188 59.9976 28.171 61.3682 28.206 62.7373C28.2115 62.9475 28.411 63.2649 28.596 63.3401C29.3245 63.6351 30.502 63.1532 30.831 62.4047C31.2715 61.4028 31.325 60.348 30.7295 59.3974C30.142 58.4595 29.1635 58.5529 28.188 58.5834ZM21.6775 60.8995C22.3085 60.9158 23.004 61.0585 23.2735 60.3546C23.4245 59.9601 23.3905 59.3481 23.182 58.9886C22.8655 58.4422 22.229 58.5377 21.677 58.6067L21.6775 60.8995Z" fill="#337BA2"/>
<path fill-rule="evenodd" clip-rule="evenodd" d="M48.385 60.6073C48.802 60.5159 49.2155 60.5291 49.484 60.3346C49.7095 60.1721 49.7655 59.7679 49.938 59.3769C50.0375 59.5582 50.131 59.6506 50.133 59.7445C50.1455 60.4453 50.148 61.1466 50.133 61.8474C50.1305 61.9571 50.02 62.0642 49.9595 62.1729C49.8915 62.115 49.79 62.0713 49.76 61.9972C49.3935 61.0979 49.3955 61.0974 48.3385 61.1933C48.493 61.8951 47.957 62.7924 48.7835 63.254C49.205 63.4892 49.885 63.4424 50.378 63.2886C50.7985 63.1586 51.118 62.6939 51.484 62.3755V63.9477C51.2815 63.966 51.128 63.9914 50.9735 63.9914C48.903 63.9944 46.8325 63.9853 44.7625 64.001C44.4055 64.0041 44.164 63.9127 43.946 63.6085C43.5175 63.0083 43.0465 62.4395 42.5835 61.8657C42.4675 61.722 42.3165 61.6077 42.073 61.3772C42.073 61.9632 42.052 62.3831 42.079 62.8001C42.107 63.2358 42.3135 63.5247 42.788 63.579C42.9275 63.5953 43.0525 63.7441 43.184 63.8329C43.0485 63.8863 42.914 63.9843 42.778 63.9868C41.8645 64 40.9515 63.9995 40.038 63.9873C39.898 63.9853 39.759 63.8995 39.605 63.8477L39.683 63.6938C40.805 63.2337 40.808 63.2337 40.807 61.9124C40.8062 61.088 40.7997 60.2636 40.7875 59.4393C40.779 58.8701 40.627 58.4186 39.943 58.3943C39.8445 58.3907 39.751 58.2485 39.6545 58.1703C39.7675 58.1129 39.881 58.0053 39.9935 58.0063C41.149 58.0175 42.311 57.9789 43.4585 58.0876C44.7145 58.2064 45.491 59.2702 45.0245 60.2493C44.7695 60.784 44.1805 61.1547 43.662 61.6803C44.154 62.1374 44.7205 62.7945 45.4075 63.2723C46.378 63.9477 47.0415 63.5623 47.066 62.3847C47.0865 61.3959 47.0625 60.4062 47.0585 59.4165C47.0565 58.83 46.878 58.4039 46.2 58.3943C46.1075 58.3927 46.0165 58.2927 45.907 58.2267C46.2595 57.9626 49.6565 57.8667 51.131 58.0581L51.226 59.6902L51.0595 59.7593C50.7165 59.3952 50.759 58.6426 50.0495 58.64C49.5075 58.6375 48.9655 58.5796 48.3835 58.5441C48.385 59.2327 48.385 59.8593 48.385 60.6073ZM42.0615 60.8947C43.3665 60.9481 43.8845 60.5885 43.8535 59.6943C43.823 58.832 43.256 58.4842 42.0615 58.6172V60.8947Z" fill="white"/>
<path fill-rule="evenodd" clip-rule="evenodd" d="M5.77752 61.2839C6.27552 59.7873 6.76702 58.2893 7.27902 56.7978C7.34952 56.5927 7.52202 56.4236 7.64752 56.2372C7.77152 56.4292 7.94102 56.6054 8.01202 56.8161C8.47752 58.1969 8.92052 59.5842 9.37302 60.9695C9.40902 61.0807 9.45552 61.1879 9.56052 61.4616C10.0245 60.0331 10.454 58.7661 10.8425 57.4859C10.9775 57.0426 10.802 56.7222 10.294 56.6643C10.1265 56.6445 9.96402 56.578 9.76852 56.5251C10.1065 56.1448 12.747 56.1169 13.182 56.4703C13.064 56.5272 12.97 56.6079 12.873 56.612C12.048 56.6445 11.666 57.1691 11.431 57.8922C10.802 59.8269 10.161 61.7571 9.52252 63.6889C9.45602 63.8894 9.37252 64.0839 9.29652 64.281L9.08602 64.2962L7.29652 58.8012L5.48702 64.2794L5.31002 64.2906C5.21752 64.087 5.10402 63.8894 5.03652 63.6777C4.45302 61.8592 3.87702 60.0382 3.29952 58.2182C3.05202 57.4367 2.80452 56.6597 1.79352 56.61C1.72752 56.6069 1.66702 56.4937 1.60352 56.4322C1.68252 56.3662 1.76152 56.2428 1.84152 56.2418C2.97752 56.2296 4.11452 56.2296 5.25052 56.2423C5.32952 56.2428 5.40702 56.3677 5.48552 56.4348C5.40102 56.4987 5.32602 56.5917 5.23152 56.6211C4.32152 56.9004 4.25602 57.0076 4.54252 57.9039C4.90402 59.0378 5.27652 60.1672 5.64452 61.2991L5.77752 61.2839Z" fill="#3179A1"/>
<path fill-rule="evenodd" clip-rule="evenodd" d="M32.742 56.4942C32.8815 56.3718 32.9595 56.2434 33.0355 56.2449C34.514 56.2672 36.0045 56.1977 37.4675 56.3703C38.8515 56.5333 39.618 57.8526 39.2005 59.0917C38.8265 60.2033 37.904 60.5511 36.8605 60.6476C36.42 60.6888 35.9725 60.6542 35.4485 60.6542C35.495 61.3921 35.5185 62.0659 35.586 62.7352C35.6425 63.3009 36.0175 63.5274 36.5475 63.5731C36.667 63.5838 36.776 63.7194 36.8895 63.7976C36.7645 63.8616 36.6405 63.9804 36.5145 63.9819C35.419 63.9966 34.3225 63.9961 33.227 63.9829C33.0955 63.9814 32.9655 63.8717 32.835 63.8123C32.944 63.7285 33.051 63.5772 33.163 63.5726C33.8945 63.5442 34.169 63.0831 34.178 62.4377C34.2 60.8731 34.198 59.3085 34.179 57.7439C34.171 57.0787 33.8545 56.6532 33.143 56.6237C33.037 56.6196 32.932 56.5577 32.742 56.4942ZM35.5035 59.8996C36.8445 60.0408 37.355 59.9108 37.678 59.307C38.002 58.7017 38.003 58.0684 37.62 57.4961C37.0905 56.7045 36.2805 56.9386 35.5035 56.9101V59.8996Z" fill="white"/>
<path fill-rule="evenodd" clip-rule="evenodd" d="M15.538 64.2196C14.34 64.1668 13.364 63.7849 12.641 62.8754C11.6145 61.5846 11.7705 59.8316 12.9965 58.7154C14.319 57.5119 16.5055 57.4601 17.863 58.6286C18.782 59.4203 19.2175 60.4227 18.9185 61.6516C18.581 63.0379 17.618 63.7803 16.3095 64.1175C16.0365 64.1871 15.7485 64.1932 15.538 64.2196ZM17.81 61.0463L17.698 60.9716C17.6235 60.6116 17.58 60.2409 17.469 59.8925C17.148 58.8916 16.476 58.397 15.4875 58.395C14.5025 58.3929 13.84 58.8901 13.518 59.9017C13.232 60.801 13.269 61.6922 13.7095 62.5321C14.367 63.7854 16.124 64.0205 16.984 62.9059C17.385 62.3864 17.542 61.6719 17.81 61.0463Z" fill="#3279A1"/>
<path fill-rule="evenodd" clip-rule="evenodd" d="M61.374 58.0516L61.8205 57.6545V59.8767L61.691 59.9758C61.5865 59.8259 61.442 59.6904 61.3835 59.5233C61.088 58.6829 60.451 58.2268 59.724 58.4482C59.4745 58.5239 59.1745 58.7778 59.108 59.0119C59.0535 59.2029 59.2505 59.5807 59.4435 59.7097C59.9475 60.0468 60.509 60.2967 61.0505 60.5745C62.2285 61.1798 62.6495 62.0192 62.251 62.9795C61.8465 63.955 60.6195 64.4597 59.52 64.0829C59.217 63.9783 58.9365 63.8067 58.656 63.6711L58.2275 64.2429L58.038 64.184C58.038 63.434 58.0335 62.6839 58.0455 61.9339C58.0465 61.8613 58.153 61.7907 58.2105 61.7191C58.3005 61.8298 58.4345 61.9273 58.474 62.0542C58.7355 62.8952 59.239 63.4538 60.1365 63.5472C60.648 63.6005 61.148 63.5365 61.3255 62.9444C61.4875 62.4026 61.1155 62.0969 60.716 61.8658C60.2765 61.6119 59.812 61.4042 59.362 61.1701C59.1645 61.067 58.963 60.965 58.7855 60.8324C58.157 60.3617 57.909 59.6833 58.095 58.9952C58.261 58.3802 58.8565 57.8592 59.5935 57.8373C60.139 57.8216 60.691 57.9643 61.374 58.0516ZM53.2395 63.6513C53.1565 63.8189 53.1105 63.9595 53.025 64.0682C52.9735 64.1332 52.847 64.1952 52.78 64.1738C52.7165 64.1535 52.649 64.0245 52.6475 63.9423C52.637 63.2826 52.637 62.6225 52.648 61.9638C52.649 61.8831 52.737 61.8044 52.785 61.7247C52.877 61.7841 53.008 61.8227 53.0535 61.9085C53.138 62.0679 53.1575 62.2619 53.2315 62.4285C53.5655 63.1811 54.242 63.6518 55.018 63.5375C55.3425 63.4903 55.743 63.24 55.904 62.9597C56.121 62.5834 55.861 62.1959 55.497 61.9821C55.0075 61.6947 54.5005 61.4362 53.9925 61.1843C52.844 60.6151 52.3595 59.6751 52.771 58.788C53.18 57.9059 54.436 57.5388 55.4855 57.9978C55.6135 58.0537 55.735 58.1248 55.8355 58.1776L56.3745 57.7277C56.431 57.8886 56.467 57.944 56.4675 57.9993C56.4715 58.6168 56.47 59.2338 56.47 59.8508L56.3115 59.9585C56.206 59.8214 56.0595 59.7 56.002 59.5451C55.7155 58.7672 55.262 58.336 54.597 58.4183C54.285 58.4564 53.8875 58.6742 53.734 58.9352C53.509 59.3186 53.834 59.6264 54.1765 59.8133C54.658 60.0768 55.151 60.317 55.6395 60.5663C56.8485 61.1823 57.274 62.038 56.8565 63.016C56.45 63.9687 55.1835 64.4618 54.098 64.0707C53.816 63.9697 53.5545 63.8067 53.2395 63.6513Z" fill="white"/>
<path fill-rule="evenodd" clip-rule="evenodd" d="M32.6305 0.708519C19.24 0.465785 8.05147 11.5011 8.04797 24.8829C8.04397 38.6497 18.717 49.6332 32.0865 49.6129C45.3315 49.5931 56.0525 38.6507 56.0525 25.1531C56.052 11.8748 45.38 0.939574 32.6305 0.708519ZM32.0565 48.3855C19.3935 48.3886 9.20947 37.9606 9.20997 24.9921C9.21047 12.3577 19.5525 1.8968 32.047 1.89223C44.763 1.88817 54.8945 12.3806 54.8905 25.5497C54.8865 37.9825 44.487 48.383 32.0565 48.3855ZM44.254 18.2484C43.757 17.4166 43.146 16.6097 42.865 15.7027C42.545 14.6708 42.2795 13.4963 42.449 12.4618C42.737 10.7079 44.0615 9.83696 45.855 9.67039C36.043 0.421605 20.624 3.73204 14.9425 13.7811C17.1295 13.6781 19.2175 13.5435 21.307 13.515C21.7025 13.5095 22.357 13.8487 22.45 14.1635C22.658 14.8668 22.076 15.1121 21.457 15.1604C20.8065 15.2122 20.155 15.2614 19.3995 15.3198L26.867 37.9144C27.0465 37.6163 27.1205 37.5325 27.153 37.4345C28.534 33.2425 29.923 29.0531 31.269 24.8489C31.392 24.4655 31.331 23.9577 31.196 23.5636C30.484 21.476 29.631 19.4336 29.0065 17.3206C28.579 15.8738 28.0125 14.9379 26.329 15.1055C26.042 15.1339 25.6925 14.5073 25.371 14.1833C25.7595 13.9482 26.145 13.515 26.537 13.5089C29.9655 13.4556 33.3945 13.4566 36.823 13.512C37.216 13.5186 37.6015 13.9634 37.9905 14.2047C37.65 14.5205 37.357 14.9938 36.959 15.1157C36.321 15.3112 35.6135 15.2741 34.85 15.3432L42.3265 37.9327C43.4595 34.1119 44.5135 30.6029 45.5375 27.0858C46.4525 23.9465 45.9075 21.0139 44.254 18.2484ZM26.3595 44.7633C26.3135 44.8989 26.311 45.0492 26.2755 45.2747C30.5045 46.465 34.6505 46.3791 38.8955 44.9268L32.4115 26.8893C30.336 33.0156 28.346 38.8889 26.3595 44.7633ZM23.092 43.9477L13.323 16.731C8.91597 25.474 12.2685 38.8138 23.092 43.9477ZM50.318 15.8134C50.183 17.3338 50.277 19.0263 49.8475 20.5675C48.836 24.1994 47.5995 27.7688 46.409 31.3479C45.115 35.2377 43.769 39.1103 42.4455 42.9905C48.664 39.2469 52.081 33.7214 52.625 26.4587C52.935 22.3251 51.531 16.601 50.318 15.8134Z" fill="white"/>
</svg>
