<svg width="65" height="65" viewBox="0 0 65 65" fill="none" xmlns="http://www.w3.org/2000/svg">
<path d="M64.0859 0.355469H1.06641C0.863281 0.355469 0.507812 0.457031 0.507812 0.507812V64.4922H64.4922V0.507812C64.4922 0.457031 64.2891 0.355469 64.0859 0.355469ZM57.6367 58.2461H7.92188C7.10938 58.2461 7.10938 58.2461 7.10938 57.4336V7.71875C7.10938 6.90625 7.10938 7.10938 7.92188 7.10938H57.5859C58.3984 7.10938 58.3984 6.90625 58.3984 7.76953V57.4336C58.3984 58.043 58.2461 58.2461 57.6367 58.2461ZM38.9492 44.6367C41.793 45.4492 44.6367 45.043 47.4805 44.6875C48.0898 44.6367 48.1914 44.2812 48.1914 43.6719V20.2109H44.3828V29.25C42.25 29.0469 40.3203 29.0977 38.4414 29.9102C35.3945 31.1797 33.8711 34.0234 34.0234 38.0859C34.125 41.3867 35.9023 43.7734 38.9492 44.6367ZM39.5586 33.5156C40.9805 32.7031 42.4531 32.7539 43.9258 32.957C44.0273 32.957 44.2305 33.2109 44.2305 33.3633V41.5391C42.8594 41.793 41.5391 41.8945 40.2695 41.5391C38.6445 41.082 37.7305 39.8633 37.5273 38.0352C37.375 36.0547 38.1367 34.3281 39.5586 33.5156ZM22.3438 44.7383L26.457 35.8516L30.418 44.7383H34.9375L28.9961 32.1445L34.9883 20.1602H30.5703L26.3047 28.4883L22.8516 20.2109L18.1797 20.1602L23.6641 32.8047L17.7734 44.7383H22.3438Z" fill="#DD80BC"/>
</svg>
